<svg xmlns="http://www.w3.org/2000/svg" viewBox="0 0 300 300">
  <g fill='#00000033'>
    <path d="m5.6324 38.831c-0.853-1.137-3.2727-3.314-3.6516-2.556-0.8382 1.677-1.5764 7.737 0 9.859 1.5882 2.138 6.7146 3.958 9.4936 2.921 5.376-2.006 13.711-7.338 14.971-12.049 1.052-3.931-3.3434-8.709-8.2109-10.26-2.6226-0.83545-6.3883-0.13534-7.3441-7.8074-0.82315-6.6069 4.0039-9.2716 8.1913-6.8782 4.6003 2.6294 4.9208 6.9501 6.9988 10.704 1.695 3.062 3.385 8.889 6.208 8.398 9.71-1.687 16.653-15.42 23.552-16.614 5.76-0.997 11.059 3.109 13.328 7.303 3.849 7.114 0.637 14.837-4.747 16.979-2.546 1.014-1.788-14.329-10.955-8.398-6.732 4.356-1.515 9.939 0.183 11.685 2.684 2.758 8.365 4.232 12.05 1.643 9.327-6.555 8.963-17.358 6.207-23.37-2.6-5.673-7.056-9.668-15.153-10.041-7.182-0.332-8.101 4.94-12.415 4.747-4.453-0.2 1.382-6.276-0.731-10.407-2.999-5.8644-9.227-3.8137-9.311 1.46-0.139 8.46 5.366 7.027 4.673 11.555-1.121 7.319-5.23 9.509-8.324 3.599-5.372-10.258-7.78-14.826-12.598-16.432-2.12-0.7062-2.728 2.794-5.477 1.644-3.8-1.59 0.473-5.1811-4.382-5.2951-3.5547-0.0834-6.7378 2.8403-6.7554 6.3901-0.0156 3.166 5.2554 0.965 5.8424 4.017 0.729 3.791-3.1782 6.179-2.7386 9.311 0.5346 3.806 3.2436 5.9268 6.0766 8.5928 1.306 1.229 8.2457 1.2719 7.2811 6.6452-0.35754 1.9916-0.48412 3.0519-2.0381 4.8449-1.611 1.859-6.241 3.019-8.398 2.556-1.251-0.268-0.853-3.449-1.826-4.747z"/>
    <path d="m38.885 69.082c0-3.357 5.035 0.452 4.131-4.777-0.287-1.664-3.303-1.821-4.776-1.162-2.453 1.098-4.39 4.132-2.97 9.683 0.986 3.853 1.356 8.585 6.197 10.844 4.841 2.26 7.875 3.099 13.168-1.807s8.715-9.683 8.004-17.816c-0.71-8.133-4.657-12.22-10.844-16.008-5.314-3.254-10.944-3.021-20.656-1.033-8.198 1.678-10.909 3.679-18.332 9.553-7.423 5.874-10.07 5.035-10.328 13.685-0.2581 8.65 9.553 9.166 9.295 20.914-0.258 11.753-8.9076 16.593-10.328 26.083-1.4198 9.48 1.2267 10.06 4.648 11.87 3.421 1.81 8.843-0.77 9.037-4.65 0.193-3.87-8.844-2.64-8.263-10.84s9.941-10.97 10.587-21.947c0.645-10.973-8.586-13.426-8.005-21.946 0.581-8.521 2.97-7.488 10.328-12.136 7.359-4.647 12.204-6.195 19.107-6.455 7.818-0.294 12.265 2.259 16.267 8.004s2.775 10.328-0.259 14.976c-3.033 4.648-8.326 5.164-11.877 3.615-3.55-1.549-4.131-5.293-4.131-8.65z"/>
    <path d="m85.467 101.98c-4.905 4.71-9.989 9.26-14.606 14.25-6.095 6.58-10.226 16.23-17.527 20.44-6.818 3.94-18.653 5.03-23.187 0.92-6.055-5.5-9.03-19.14-8.581-29.76 0.282-6.67 3.337-15.638 8.216-18.078 4.615-2.307 16.571-0.458 20.266 3.834 4.582 5.324 7.07 12.434 7.12 19.534 0.041 5.99-5.106 6.5-6.39 6.03-7.599-2.83-2.047-15.25-5.842-20.09-2.412-3.07-9.398-5.492-12.415-4.01-3.191 1.56-6.165 8.67-6.208 13.14-0.079 8.31 2.55 18.87 7.303 23.01 3.646 3.17 12.946 2.75 17.892-1.1 8.808-6.86 18.455-18.14 21.544-28.48 2.145-7.183-5.361-15.977-5.842-24.1-0.493-8.309 0.545-17.252 2.921-25.195 1.884-6.298 7.461-11.361 9.859-17.528 1.862-4.787 4.328-10.763 2.921-15.336-2.001-6.503-11.846-10.467-12.415-15.336-0.5-4.2836 7.1163-2.3068 9.129-0.3652 1.8887 1.8221 7.988 8.2622 9.859 14.971 1.659 5.949-1.564 13.85-4.017 20.083-2.05 5.209-8.216 10.05-9.859 15.336-2.252 7.25-2.866 15.737-2.191 23.37 0.542 6.121 4.564 16.72 7.668 17.53 2.982 0.77 8.18-9.431 12.598-13.514 5.201-4.802 13.331-7.984 16.251-13.145 1.34-2.385 1.94-8.254-2.19-8.763-3.94-0.487-4.79 5.952-7.49 6.025-2.36 0.063-4.78-2.369-3.1-5.66 1.64-3.225 6.26-6.423 9.49-6.208 4.08 0.272 9.47 1.329 12.42 7.668 1.55 3.34 0.22 9.482-2.19 12.781-4.53 6.195-13.64 6.857-19.72 12.232-4.388 3.876-7.463 11.464-11.687 15.514z"/>
    <path d="m22.39 151.58c2.236-1.09 4.454 1.42 2.84 3.09-1.613 1.68-3.679 5.39-9.295 3.62-5.616-1.78-11.07-4.65-13.168-10.72-2.0979-6.06-0.6778-12.29 4.777-13.55 5.454-1.26 9.593 6.42 17.041 8.52 4.583 1.29 9.396-0.47 12.135 1.81 8.709 7.24-1.955 24.92-7.1 30.46-8.811 9.49-17.235 2.55-20.011 4.26-2.775 1.71-3.679 3.43-3.873 7.75-0.193 4.32 7.682 18.78 6.584 25.17-1.097 6.39-6.358 5.2-7.8748 9.94-1.5169 4.75 2.1138 4.7 1.8078 9.04-0.307 4.34-2.6106 8.26-3.0342 8.33s1.8312-3.64 1.3394-8.05c-0.4922-4.42-3.9456-3.77-3.3082-9.61 0.6374-5.83 5.92-5.13 5.858-13.73-0.063-8.6-6.0794-12.51-6.1081-20.68-0.0288-8.17 2.1251-9.01 5.9931-12.01 3.868-3.01 11.611 4.43 20.507-4.66 4.307-4.4 10.971-17.39 7.199-21.68-2.811-3.19-4.777-1.25-10.644-2.89-7.526-2.1-10.698-7.34-15.069-7.06-4.3718 0.28-4.017 4.32-2.417 8.18 1.599 3.86 6.279 6.66 10.234 7.78s3.692-2.39 5.587-3.31z"/>
    <path d="m121.43 26.4c-0.09 3.423 1.87 4.154 4.56 0 2.7-4.154 8.95-10.152 6.21-16.614-2.74-6.4622-11.41-10.831-20.45-7.5905-9.03 3.2405-13.1 9.2525-15.7 20.554-2.599 11.3 2.86 18.552 7.49 21.361 5.09 3.091 12.64 0.137 18.26 4.199 5.61 4.062 2.19 10.954 5.29 13.693s6.85 0.365 6.94-3.469-5.62-4.884-5.66-9.676c-0.05-4.793 1.7-7.722 6.02-10.59 4.48-2.966 10.31-0.744 13.51 2.374 3.52 3.423-2.23 7.394 1.1 9.676 2.11 1.444 7.12 0.183 6.94-3.469-0.19-3.687-1.14-8.489-6.03-12.05-4.88-3.56-10.91-3.605-15.15-2.19-6.42 2.14-7.67 7.348-10.41 7.85-6.48 1.188-13.64 1.757-17.16-0.913-3.41-2.58-7.17-7.211-5.3-15.153 1.88-7.942 5.76-13.876 11.87-16.797 6.12-2.9213 11.23 0.319 12.6 5.112 1.37 4.793-4.84 10.27-4.93 13.693z"/>
    <path d="m179.49 16.541c5.57-0.822 10.41-0.62 10.59 0.183 0.18 0.832-4.29 0.639-12.42 3.103-8.12 2.465-10.18 7.851-20.08 6.756-9.9-1.096-14.7-3.808-16.98-10.225-2.28-6.416 2.19-14.893 7.3-15.258 5.14-0.3665 10.91 5.582 13.51 5.765 7.88 0.552 9.5-5.8154 18.44-5.861 10.609 0.86725 21.282 4.0179 29.474 6.6882 5.5299 0.88075 7.8521 3.605 12.203 1.254 6.4325-3.476 9.933-4.1037 11.587-3.9317 5.53 0.57491 7.0861 1.0575 6.7661 1.6508-0.32 0.5934-2.15-0.639-8.59 0.9129-6.44 1.5518-6.1076 6.4388-13.15 5.2948-6.6274-1.0766-8e-3 0.0031-9.15-1.461-0.30321 8.8054-17.069 19.038-28.41 23.204-9.99 3.651-12.54 7.259-16.79 7.12-4.2-0.137-6.07-3.834-4.75-6.938 1.32-3.103 4.09-3.26 5.3-2.556 3.74 2.191 0.16 3.76 3.28 3.652 1.37-0.047 3.86-1.502 5.49-2.254 1.64-0.752 3.48-1.506 5.43-2.264 3.91-1.515 8.3-3.048 12.49-4.617 8.37-3.14 9.94-6.43 11.31-10.035 2.73-7.212-15.23-11.597-22.85-10.772-7.06 0.764-11.26 7.051-18.44 6.025-1.92-0.274-11.27-10.662-14.97-2.374-3.45 7.733 5.84 12.461 14.97 11.502 7.63-0.801 10.72-3.425 18.44-4.564z"/>
  </g>
</svg>
