<svg xmlns="http://www.w3.org/2000/svg" viewBox="0 0 1000 1000">
  <g transform="translate(-32.779 197.73)" fill="#00000033">
    <path d="m670.35-179.89c4.8114-4.3896 3.0892-8.7055-6.2766-12.418-11.341-4.4959-113.63-2.4095-138.39 2.822-29.489 6.2308-28.936 6.2216-30.79 0.38031-2.5033-7.8876-49.651-5.189-87.593 5.015-19.462 5.2342-21.276 5.4611-22.878 2.8682-0.88375-1.43-0.41665-5.7284 1.0379-9.5537l2.6443-6.952-17 1.8162c-9.3506 1.0014-25.212 4.6161-35.247 8.029-23.066 7.8452-24.11 7.7952-28.878-1.4253-5.2788-10.208-17.944-4.6834-43.479 18.976-16.089 14.908-24.766 10.843-13.428-6.2909 12.55-18.964 1.5101-26.617-12.998-9.0099-16.97 20.595-19.805 25.725-23.23 42.103-6.152 29.416-18.858 35.039-18.859 8.3452 2.5e-4 -27.533-18.388-62.658-27.851-53.199-2.8226 2.8218-2.7017 5.0895 0.72161 13.282 4.7541 11.378 3.6732 16.587-3.4441 16.587-4.5168 0-9.9129-5.3048-22.939-22.548-4.4846-5.9364-22.061-16.058-27.886-16.058-5.6324 0-6.3805 4.6393-2.3208 14.355 4.9936 11.952 5.1321 11.381-2.7652 11.381-3.6886-4e-5 -11.459-3.7664-17.266-8.3666-22.186-17.574-42.344-20.475-51.412-11.313-9.5843 9.6844-3.4017 33.175 10.922 51.802 4.6002 5.8073 8.3665 13.578 8.3665 17.266 0 7.8974 0.57132 7.759-11.381 2.7652-9.7161-4.0597-14.355-3.3117-14.355 2.3209 0 5.8254 10.121 23.402 16.058 27.886 17.243 13.026 22.548 18.422 22.548 22.939 0 7.1173-5.2088 8.1982-16.587 3.444-8.1925-3.4231-10.46-3.5441-13.282-0.72151-9.4592 9.4623 25.666 27.851 53.199 27.851 26.694 2.5e-5 21.071 12.707-8.3454 18.859-16.367 3.429-21.498 6.264-42.092 23.234-17.608 14.508-9.954 25.547 9.01 12.998 17.133-11.339 21.198-2.662 6.29 13.427-23.659 25.535-29.184 38.2-18.975 43.479 9.2204 4.7681 9.2703 5.8118 1.4252 28.878-3.413 10.034-7.0275 25.896-8.0291 35.247l-1.8161 17 6.9521-2.6443c3.8253-1.4544 8.1238-1.9215 9.5537-1.0378 2.5928 1.6025 2.3658 3.416-2.8682 22.878-10.204 37.942-12.903 85.09-5.015 87.593 5.8414 1.8539 5.8506 1.3012-0.38037 30.79-5.2314 24.759-7.318 127.05-2.8219 138.39 3.7128 9.3659 8.0286 11.088 12.418 6.2767 7.316-8.0188 14.831-34.192 20.06-73.394 5.1648-38.721 9.294-67.683 10.645-74.677 0.99311-5.143 2.2122-5.7429 8.7788-4.3006 5.2793 1.1595 7.9432 0.62327 8.6473-1.7451 2.6839-9.0264 7.2192-41.938 8.8001-63.869 1.8558-25.739 10.766-39.939 10.766-17.156 0 49.248 31.189-13.262 40.088-80.343 2.731-20.588 9.7415-19.226 13.47 2.6159 4.4347 25.978 20.016-4.3965 23.291-45.405 1.9396-24.289 6.7745-27.583 13.215-9.0064 9.0235 26.029 20.597 11.392 20.597-26.049 0-26.69-8.7325-47.932-24.449-59.48-9.0284-6.6331-17.187 5.4707-18.272 27.101-1.5799 31.503-7.0185 56.983-12.379 58.015-4.6341 0.89242-4.795-0.44555-3.1206-26.344 1.9096-29.539-4.472-40.573-10.947-18.923-3.0921 10.339-32.568 77.398-37.405 85.095-6.3417 10.094-39.927 113.49-45.224 139.23-2.8419 13.813-5.7371 26.035-6.433 27.161-1.8882 3.0553-9.7073 58.508-14.092 99.926-2.2222 20.989-5.95 30.282-10.919 27.211-2.6999-1.6685-1.7405-16.613 4.6027-71.734 4.5886-39.873 7.5515-56.257 14.146-78.121 2.713-8.9956 4.9334-20.139 4.9334-24.766s1.8568-13.479 4.1264-19.673c2.2693-6.1936 6.2243-18.793 8.786-27.993 2.5617-9.2003 10.994-34.097 18.741-55.328 7.7478-21.232 16.676-46.132 19.84-55.332 3.1639-9.2003 11.404-28.454 18.308-42.789 26.11-54.213 13.092-56.869-22.082-4.5032-8.7288 12.995-15.054 17.818-19.644 14.981-6.4734-4.0009 1.4417-17.877 31.604-55.41 14.265-17.751 10.728-29.228-12.632-40.987-35.213-17.726-34.072-29.848 1.4216-15.098 27.922 11.604 26.311 1.4628-4.8622-30.573-26.741-30.856-63.439-60.744-54.376-70.256 7.6202-7.5288 21.43 7.2575 70.057 54.575 32.036 31.173 42.177 32.784 30.573 4.8622-14.75-35.493-2.6281-36.634 15.098-1.4217 11.759 23.36 23.236 26.897 40.987 12.632 37.533-30.162 51.409-38.078 55.41-31.604 2.8373 4.5906-1.9857 10.915-14.981 19.644-52.366 35.174-49.71 48.192 4.5032 22.082 14.335-6.904 33.589-15.144 42.789-18.308 9.2003-3.1639 34.1-12.092 55.332-19.84 21.232-7.7478 46.128-16.18 55.328-18.741 9.2006-2.5617 21.8-6.5166 27.993-8.786 6.1937-2.2695 15.046-4.1264 19.673-4.1264 4.6269 4e-5 15.77-2.2203 24.765-4.9332 21.865-6.5941 38.248-9.5573 78.121-14.146 55.121-6.3432 70.066-7.3025 71.734-4.6027 3.0707 4.9687-6.222 8.6963-27.211 10.919-41.418 4.385-96.871 12.204-99.926 14.092-1.1259 0.69582-13.348 3.591-27.161 6.4331-25.743 5.2968-129.14 38.882-139.23 45.224-7.6971 4.8361-74.756 34.312-85.095 37.404-21.651 6.475-10.616 12.857 18.923 10.947 25.898-1.6744 27.236-1.5134 26.344 3.1206-1.0325 5.3607-26.512 10.799-58.015 12.379-21.63 1.0848-33.734 9.2437-27.101 18.272 11.547 15.717 32.789 24.449 59.48 24.449 37.441 2.57e-5 52.077-11.573 26.049-20.597-18.577-6.44-15.282-11.275 9.0063-13.215 41.008-3.2747 71.383-18.856 45.405-23.291-21.842-3.7287-23.204-10.739-2.616-13.47 67.08-8.8985 129.59-40.088 80.343-40.088-22.782-2e-5 -8.5829-8.9099 17.156-10.766 21.931-1.5811 54.842-6.1165 63.869-8.8002 2.3681-0.70415 2.9045-3.3681 1.7451-8.6474-1.4425-6.5665-0.84257-7.7857 4.3006-8.7788 6.9946-1.3507 35.956-5.48 74.677-10.645 39.202-5.229 65.375-12.744 73.394-20.06zm-469.35 151.29a31.408 31.408 0 0 0-2e-3 -44.417 31.408 31.408 0 0 0-44.413 0 31.408 31.408 0 0 0-2e-3 44.417 31.408 31.408 0 0 0 44.42 2.5e-5z"/>
  </g>
</svg>
