<svg xmlns="http://www.w3.org/2000/svg" viewBox="0 0 380 380">
  <g fill="#00000033">
    <path d="M 0.7,0.7 C 0.3,1 0,86.5 0,190.7 0,379.3 0,380 2,380 4,380 4,379.2 4.2,192.2 L 4.5,4.5 192.3,4.2 C 379.2,4 380,4 380,2 380,0 379.3,0 190.7,0 86.5,0 1,0.3 0.7,0.7 Z"/>
    <path d="m9 194.5c0 127.9 0.3 185.5 1 185.5s1-10 0.8-31c-0.2-22.9 0-30.6 0.8-29.5 1.4 1.9 3.8 2 3.1 0.1-0.3-0.8-0.1-1.6 0.6-1.9 0.9-0.3 0.8-1.1-0.3-3.3-2.4-4.8-2.4-5-0.6-3.5 2.6 2.2 3.2 0.4 0.7-2.3-1.3-1.3-1.8-2.5-1.2-2.7 0.7-0.3 0.3-2-1-4.7-2-3.9-2.1-4.7-0.9-8.5 0.8-2.3 1.9-4.7 2.5-5.2 0.7-0.6 1.5-1.9 1.9-3 0.3-1.1 1.6-3.1 2.7-4.5 2-2.4 2-2.4 0.9-0.2-1.7 3.5-0.3 4 1.5 0.6 0.9-1.6 4.5-8.1 8.1-14.4 11.3-20.1 14.4-27.1 16-36.1 0.8-4.6 2.1-10.5 2.9-13 1.9-5.9 1.9-6.9-0.1-6.9-1.7 0-1.7-0.9 0.2-9.4 0.6-2.5 0.4-2.8-1-2.3-1.5 0.6-1.7 0-1.5-4.8 0.1-3-0.1-5.8-0.5-6.2-1.4-1.4-2.5 2.2-2.1 7.1 0.3 4.1 0.1 3.5-1-2.4-2-10.3-1.1-16.6 2.7-20.2 8.1-7.5 18.8 1.9 11.6 10.1l-2.3 2.6 2.8-2.4c5.4-4.8 2.2-14.1-4.9-14.1-7.5 0-12.4 5.5-12.4 13.9 0 2.3-0.4 4.1-0.9 4.1-0.7 0-9.1-16.2-9.1-17.6 0-0.2 1.1-0.4 2.3-0.4 3.9 0 3.9-1.2 0.2-3.4l-3.5-2.1 2.6-3.8c1.5-2.3 3.1-3.6 3.9-3.3 4.6 1.7 8.2 1.6 12.5-0.6 4.5-2.3 9-7.7 9-10.7-0.1-0.9-0.7-0.2-1.4 1.4-0.7 1.7-2.8 4.3-4.5 5.8-8.7 7.3-20.2 2.3-21.6-9.3l-0.5-4.5 1.4 5c3 10.5 12.8 14 20.2 7.2 2.8-2.6 3.7-4.2 4.1-7.8 0.4-3.9 0.2-4.9-2.2-7.5-2.2-2.4-2.4-2.4-1.1-0.4 2 3.1 2 6.3 0.1 10-4.3 8.3-15.6 6.1-17.2-3.3-0.8-4.9 2.7-11.9 7.5-14.9 3.9-2.4 13.1-3.1 18.6-1.4 2.3 0.7 2.7 0.6 2.1-0.4-0.5-0.9-0.4-1.1 0.4-0.6 0.6 0.4 0.9 1.1 0.6 1.6s0.5 1.4 1.7 2.1c2.2 1.1 2.2 1.1 0.9-0.7-0.7-1 0.7 0.3 3.3 2.9 7.5 7.9 9.4 18.3 5.7 31.7-1 3.6-2.2 7.4-2.6 8.5-0.5 1.1-0.4 1.7 0.1 1.2 0.4-0.4 1.8-3 2.9-5.7l2.1-4.9 3.4 4.7c12.1 16.2 37 12 42.5-7.2 7-24.2-16-46.6-47.8-46.6h-8.9l3-3.4c3.6-4.2 5.6-12.3 4.3-17.8-2.9-12.5-13.7-20.4-27.6-20.2-9.2 0.1-16.3 3.4-23.4 10.9-8.2 8.6-10.5 14.6-10.9 28.6-0.3 9.9 0 12.9 2.1 21 1.4 5.2 3.7 12.1 5.1 15.2s2.3 5.7 2.1 5.7c-0.8 0-2.9-4.6-6.1-13.5-1.8-5-3.3-8.4-3.4-7.8 0 1.6 5.1 17.4 7.3 22.4 2.1 4.8 1 6.5-3.4 5-4.2-1.5-4.6-0.9-1.9 2.9 1.2 1.7 2.1 3.3 1.9 3.4-0.6 0.5-4.7 2.6-5.1 2.6-0.2 0-0.3-34.9-0.3-77.5v-77.5h77.8c62 0 77.7 0.3 77.1 1.2-2.1 3.7-2.6 3.9-6.2 1.6l-3.5-2.2 0.6 2.6c0.4 1.5 0.9 3.3 1.3 4.1 1 2.7-2.5 2.6-9.3-0.2-7.4-3-19.2-6.5-19.9-5.9-0.2 0.3 2.2 1.2 5.4 2.2 6.3 2 17.4 6.7 16.9 7.2-0.2 0.2-3.5-1-7.4-2.6-17.6-7.4-37.8-9-50.6-4.1-7.6 3-16.7 11.4-20.4 18.9-2.4 4.8-2.8 6.9-2.8 13.7 0 6.7 0.5 8.8 2.7 13.1 7.2 13.8 24.2 18.6 34.6 9.9 1.7-1.4 3.1-2.5 3.3-2.5s0.5 3.7 0.5 8.3c0.4 20.6 10.2 38.6 24.9 45.7 6.6 3.2 20 3.5 25.5 0.6 13.9-7.3 17.9-23.2 9-36.1-1.5-2.2-4.4-5-6.4-6-2-1.1-3.6-2.2-3.6-2.5s2.2-1.4 4.9-2.4c2.7-0.9 5.7-2.3 6.7-3.1 1.1-0.8-1.2-0.2-5.1 1.1-8.2 3-20.1 4.1-26.1 2.5-5-1.4-11.5-5.6-14.5-9.6-1.5-1.8-1.7-2.5-0.6-1.6 1.5 1.2 1.5 0.9-0.3-3-4.5-10-1.3-21.3 7.3-25.7 3.6-1.9 5.5-2.3 8.3-1.8 7.8 1.5 11 9.5 6 14.9-3.6 3.9-7 4.5-13.1 2.2-1.9-0.7-1.9-0.7-0.3 1 1 1.1 3.7 2 6.6 2.3 4.6 0.4 5.3 0.2 8.6-2.9 7-6.4 5.7-16.1-2.7-20-2.6-1.1-3.5-1.9-2.2-1.9 3.3 0 8.1 3.5 9.9 7.5 3 6.3 0.3 13.3-6.8 17.6-1.7 1-2.6 1.9-2.1 1.9 2.2 0 7.6-4.2 9.5-7.2 2.6-4.3 2.6-11.3 0-15.6-2.9-4.7-9.7-7.6-16.6-7-7.7 0.7-14 4.9-17.7 11.8-2.6 5-2.8 6.2-2.5 13 0.5 8.4 2 12 7.6 18.2 3.8 4.3 12 8.8 16 8.8 2.8 0 2.8 0.5-0.3 4.2-3.4 4-4.7 9.3-3.4 14.3 0.6 2.2 1 4.7 0.9 5.5-0.8 7.2-0.3 10 1.9 12.4 5.6 6-5.4 0.3-12.1-6.2-2.7-2.5-4.8-4.1-4.8-3.5 0 1.6 8.7 9.1 13.2 11.4 6.3 3.2 13.2 4.3 18.9 2.9 2.8-0.7 4.8-1.5 4.4-1.8-0.3-0.3 0.6-1.8 2-3.2 6.5-6.8 2-20.1-6.5-18.8l-2.2 0.3 2.2 2.8c1.5 1.9 2.8 2.6 4 2.2 1.3-0.4 2.2 0.1 2.9 1.4 1.6 3 1.4 4.6-0.3 3.1-0.8-0.6-2.5-1-3.8-0.8-3.1 0.4-3.4 5.3-0.3 5.3 1.1 0 2-0.7 2-1.5s-0.8-1.4-1.7-1.4c-1 0.1-1.5-0.2-1.2-0.7 0.9-1.5 3.3-1 4.3 0.9 1.2 2.3-0.6 5.7-4.5 8.3-4.4 2.8-5.8 2.4-3.3-1 1.7-2.4 1.9-3.2 0.9-5-1.6-3.1-3.5-2-3.5 2 0 3.3-0.2 3.4-4 3.6-2.2 0.1-3.5 0-2.9-0.3 1.8-0.8 0.5-4.1-2.2-5.9-1.4-0.9-2.4-2.5-2.4-3.8 0-1.7 0.2-1.9 0.9-0.8 1.1 1.7 4.5 0.7 3.9-1.2-0.3-0.6-1.3-1.4-2.4-1.6-2.7-0.5-3.4-1.9-3.4-7.4 0-9.5 5.4-14.9 14.9-15.1 4.7-0.1 6.5 0.4 9.7 2.6 2.1 1.5 4.5 3.8 5.3 5 1.2 2 1 2-1.5-0.4-3.4-3.2-9.3-5.8-12.9-5.8-1.6 0-3.5 1.1-5 2.7l-2.3 2.8 2.6 1.7c2 1.3 4 1.5 9.1 1.1 5.2-0.4 7-0.1 8.6 1.2 1.1 0.9 1.3 1.3 0.5 0.9-0.8-0.5-0.5 0.4 0.8 2 1.2 1.6 2.2 3.6 2.3 4.5 0 1.1 0.2 1.2 0.6 0.3 0.3-0.7-0.2-2.4-1.1-3.7-0.9-1.4-1.2-2.5-0.7-2.5 3.5 0 4.2 11.9 1.2 17.9-7.7 14.9-29 16.2-42.7 2.5-4.1-4.1-7.7-9.3-5.5-8 1.7 1.1 1.3 0-1.9-5.1-6.5-10.2-9.9-29.7-6.5-37.2 2.7-6.1 1.8-16.7-1.8-21.5-4.8-6.3-13.7-9.5-21-7.5-4.3 1.1-9.7 4.6-9.7 6.3 0 0.5 1 0 2.3-1.2 4.8-4.5 12.4-5.4 19.3-2.3 12.6 5.7 13.8 23.8 2.1 32.5-3.8 2.8-14.1 3.4-18.8 1.1-4.5-2.3-7.8-5.3-9.6-9-1.1-2.1-1.1-2.6-0.2-1.8 0.7 0.7 3.3 1.3 5.9 1.3 6 0 9.4-3.4 9.7-9.5 0.2-5.5-3.5-9.4-9.4-10-3.4-0.3-4.4 0-6.4 2.3l-2.4 2.7-0.3-2.4c-0.6-3.6 5.4-14.6 10.1-18.7 15.4-13.4 37.1-13.8 67.4-1.3l7.1 3-1.4 3.4c-1.9 4.7-1.9 4.7 1.9 2.5 1.7-1.1 3.5-2 3.9-2s1.6 1.7 2.6 3.7l1.9 3.6 0.7-3.5 0.7-3.6 8.9 4.1c5 2.3 9 4.5 9 4.9 0 0.5-1.3 0.8-2.9 0.8-5.4 0-9.2 1.3-12 4.1-5.3 5.3-4.5 13 1.6 15.6 2 0.8 3.7 1.2 4 0.9 0.2-0.2-0.6-0.7-1.9-1.1-6.2-1.9-7.9-8.9-3.4-14.2 2.2-2.5 3.1-2.8 10.3-3.1 4.3-0.2 9.6 0.1 11.8 0.6l4 1-5.3 0.1c-3.8 0.1-5.2 0.5-4.9 1.3 0.3 0.9 2.1 1.2 6 1 5.1-0.4 5.6-0.2 5 1.4-0.7 1.8 0.3 1.8 8.8-0.2 2.1-0.5 2.7-0.2 3.2 1.5 0.5 2 0.7 2 4.1 0.6 2-0.9 7.5-2.2 12.1-3 11.3-2 17-4.3 31.6-12.7 6.8-3.9 14.7-8.2 17.6-9.5 2.8-1.3 5.7-3 6.3-3.8 1.5-1.8 0.7-1.9-2.1-0.5-1 0.6-1.9 0.8-1.9 0.6 0-0.3 1.9-1.5 4.3-2.7 2.3-1.2 4.5-2.6 4.8-3.2 0.4-0.5 1.2-0.6 1.9-0.2 0.9 0.5 1.1 0.4 0.6-0.3-0.5-0.8 0-1.2 1.3-1.2 1.1 0 2.3-0.5 2.6-1.1 0.8-1.2 6.2-0.2 9 1.7 2.4 1.7 3.8 1.8 2.9 0.1-0.4-0.6 0.4-0.2 1.8 1 3.6 3.4 6.7 2.8 3.6-0.7-0.8-0.8-0.3-0.7 1.4 0.3 3 1.9 5.8 2.2 5.8 0.7 0-0.5 0.7-0.7 1.5-0.4 2.1 0.8 1.9-1.3-0.2-2.5-1.3-0.7 7.7-1 29.5-1.1 20.1 0 31.2-0.4 31.2-1 0-0.7-62.5-1-185.5-1h-185.5zm273.7-180c-4.2 1.8-10.2 4.8-13.2 6.5-5.7 3.2-6.2 3.2-4.5-0.1 1.8-3.3 0.3-2.1-2 1.6-1.2 1.9-3 3.5-3.9 3.5-1.4 0-1-0.9 1.8-3.8 2-2.1 4.5-5.4 5.5-7.3l1.9-3.4-2.4 2.1c-4 3.6-7 4.7-15.2 5.5-10.4 1-13.9 3.8-10 8.1 1.9 2.1 9.1 2.5 12.5 0.7 1.5-0.8 1.9-0.8 1.4 0-0.4 0.6 0 1.1 1 1.1 1.5 0 1.4 0.4-0.6 2.5-3.3 3.5-12.9 8.1-19.7 9.5-8.3 1.8-27.9 0.9-32.2-1.4-1.8-1-3-1.3-2.6-0.6 0.5 0.7-0.2 0.9-2.2 0.4-3.9-0.9-6.7-2.7-3-1.9 3.1 0.6 3.5-0.2 1-2.1-1.7-1.3-1.7-1.5 0.1-2.9 1.9-1.4 1.9-1.5-0.7-1.5-2.3 0-2.7-0.4-2.7-2.7v-2.7l-1.6 2.3c-1.2 1.6-1.9 2-2.7 1.2-1.7-1.7-2.7-1.3-2.4 1 0.4 3.5-3.1 4-8.8 1.3-2.7-1.3-3.9-2.2-2.6-2 2.3 0.5 2.2 0.3-0.9-2.9l-3.2-3.3 3.3-3.2 3.4-3.1-4.7 0.6-4.8 0.6v-7.1h61.3l61.2 0.1zm31.9-1.3 1.9 2.1-3-1.8c-4.1-2.6-4-2.5-2.3-2.5 0.8 0 2.3 1 3.4 2.2zm-177.9 17.4c-0.3 0.3-1.2 0.4-1.9 0.1-0.8-0.3-0.5-0.6 0.6-0.6 1.1-0.1 1.7 0.2 1.3 0.5zm-5.2 1.6c-6.5 3.6-9.6 8.8-10.5 17.8l-0.7 6.5-0.1-5.5c-0.1-3.4 0.5-7 1.7-9.5 1.8-4.1 8.2-10.5 10.4-10.5 0.7 0 0.3 0.6-0.8 1.2zm58.5 7.8c1.3 0.8 1.3 1-0.2 1-0.9 0-2-0.5-2.3-1-0.8-1.3 0.5-1.3 2.5 0zm10.7 4.6c-0.3 0.3-1.2 0.4-1.9 0.1-0.8-0.3-0.5-0.6 0.6-0.6 1.1-0.1 1.7 0.2 1.3 0.5zm-115.6 3.1c1.3 1.5 1.2 1.5-0.8 0.2-2-1.2-2.6-1.2-4.5 0-2.1 1.3-2.2 1.3-0.9-0.2 0.7-1 2.1-1.7 3.1-1.7s2.4 0.7 3.1 1.7zm-5.7 4.9c0.3 0.8 0.2 1.2-0.4 0.9s-1-1-1-1.6c0-1.4 0.7-1.1 1.4 0.7zm5.7 0.7c-1 0.9-1.1 0.8-0.5-0.6 0.3-1 0.9-1.5 1.2-1.2s0 1.1-0.7 1.8zm-41.1 20.5c0 0.5-0.9 1.7-2 2.7s-2 2.1-2 2.5c0 0.5-1.3 2.2-3 4-3.6 3.9-5.4 10-4.5 15.5 2.1 13.2 14.3 20 28.2 15.7 18.9-5.9 46.5 5.5 55.4 22.9 2.3 4.6 2.5 7.2 0.4 4.2s-8.5-4.9-11.3-3.4c-1.4 0.8-2.9 0.8-4.7 0.1-6.4-2.4-14.7-0.7-18.9 3.9l-2 2.2-1.3-5.3c-2.5-9.7-11-18.3-20.6-20.9-6.2-1.7-14.9-0.6-20.2 2.6-11.1 6.4-14.1 23-5.9 31.6l2.5 2.6-3.8 1.6c-2.1 0.8-4.1 1.2-4.5 0.8-1.5-1.3-9-22.5-10.4-29-2-9.7-1.8-22.6 0.6-30.2 2.4-7.8 7.9-15.3 14.4-19.7 6-4 13.6-6.5 13.6-4.4zm17.8 3.7c6.4 4.3 8.7 8.7 8.7 17 0 6.3-0.3 7.6-2.9 10.9-5.3 7-16.1 9.6-23.5 5.8-1.9-0.9-4.8-3.4-6.5-5.5-2.8-3.5-3.1-4.6-3.1-10.7 0-5.4 0.5-7.5 2.1-9.6 2.6-3.5 4.9-4.4 4-1.6-0.5 1.5 0.2 2.9 2.3 5.1 2.5 2.5 3.9 3.1 7.3 3.1 6.1 0 9.6-3.8 9.6-10.3 0-3.3-0.5-5-1.6-5.7-0.9-0.5-1.4-1-0.9-1 0.4 0 2.4 1.1 4.5 2.5zm-9.4 1.1c0.9 0.3 1.6 1.1 1.6 1.7 0 0.7-0.4 0.7-1.2-0.1-1.7-1.7-4.5-1.5-5.7 0.5-0.6 1-1.1 1.3-1.1 0.7 0-2.6 3.2-4 6.4-2.8zm-2.2 7.4c0.6 0 0.9 0.3 0.6 0.6-0.9 0.8-4.8-1.4-4.8-2.7 0-0.6 0.7-0.3 1.6 0.5 0.8 0.9 2 1.6 2.6 1.6zm2.1 34.7c-1.3 0.2-3.3 0.2-4.5 0-1.3-0.2-0.3-0.4 2.2-0.4s3.5 0.2 2.3 0.4zm-10.8 2.2c-4.8 2.2-7.8 5.3-9.9 10.1-0.8 1.9-1.5 2.9-1.6 2.2-0.1-4.6 9.3-14.1 14-14.1 0.8-0.1-0.3 0.8-2.5 1.8zm72 6.2c10.1 11.2 11.1 26.4 2.4 36.3-4 4.6-9.5 7.2-13 6.3-1.2-0.3-1.7-0.1-1.3 0.5 1.2 1.9-7-0.2-9.4-2.5-3.1-2.9-4.3-8.1-3.2-13.4 0.8-3.5 0.7-4.8-0.6-6.8-1.9-3-2.2-3-5.1-0.6-4.2 3.5-2.4 11.8 3.8 18 1.9 1.9 2.5 2.9 1.4 2.3-5.2-2.7-9.5-10.1-9.5-16.4 0-8.1 6.6-14.8 14.5-14.8 6.4 0 8.5 0.9 8.5 3.6 0 1.4 0.6 2.4 1.4 2.4 2.2 0 3-1.9 1.6-3.5-1-1.2-0.9-1.5 0.9-1.5 1.3 0 2.6 1 3.2 2.4 1.3 2.8 4.9 4.1 6.1 2.3 0.5-0.7 0.8 0 0.8 1.9 0 1.6-0.6 3.9-1.4 4.9-1.2 1.7-1.6 1.7-3 0.6-2.3-1.9-4.5 0.1-2.6 2.4 1.7 2 3.2 1.9 6.4-0.6 3-2.4 3.2-2 1 2.7-2.8 5.9-10.6 8.2-10.3 3 0.1-1.6 0.2-1.7 0.6-0.4 0.5 2 2.8 2.4 3.8 0.8 0.7-1.1-1.2-4-2.6-4-1 0-3.9 2.9-3.9 4 0 0.5 1 1.9 2.3 3.1l2.2 2.1-2.5-0.7c-3.6-1.1-5-2.4-5-5 0-1.3-1.1-3-2.5-3.9-2.5-1.6-2.5-1.6-2.5 1.7 0 4.7 3.6 7.9 9.8 8.5 4.1 0.4 5.2 0 8-2.3 2-1.7 3-2.1 2.6-1.1-0.3 0.9-0.3 1.6 0 1.6 1.6 0 3.6-7.4 3.6-13.2 0-8.3-3.4-15.5-10.8-23.2-3.7-3.8-4.6-5.2-2.6-3.8 1.7 1.2 4.8 4 6.9 6.3zm-98 39.5c1.7 0.4 2 1.2 1.7 4.7l-0.3 4.2 3-3.3 3.1-3.2 3 3.2c2.6 2.9 3 3 3 1.3 0.1-1.5 0.6-1 2.1 1.8 1.1 2.1 1.9 5 1.7 6.5-0.3 2.3-0.7 2.7-3.2 2.5-2.7-0.2-2.7-0.1-1.1 1.6 1.5 1.8 1.5 2-0.7 3.5l-2.2 1.6h2.8c2.6 0 2.8 0.2 2.1 2.7l-0.6 2.7 2.1-1.9c2-1.8 2.2-1.8 3.1-0.2 1.4 2.4 2.8 2.1 2.2-0.6-0.4-1.8-0.3-1.9 0.6-0.6 0.6 0.9 1.3 3.4 1.6 5.5s0.9 5.7 1.5 7.9c1.3 5.5 1.2 20.2-0.1 26.7-1.5 6.9-4.9 14.5-8.3 18.5-2.2 2.6-3 3-4.1 2-0.8-0.8-1-1.8-0.4-2.9 1.7-3.1 1-9.7-1.1-11.8-2.5-2.5-3.2-2.5-5.4-0.1-1.2 1.3-2.1 4.8-2.7 10.1-1 8.6-1.8 11-5.3 14.9l-2.1 2.4 3.4-1.9c1.9-1 5.2-3.5 7.3-5.5 3.1-2.9 3.8-3.2 3.8-1.7 0 1.1-1.9 3-4.7 4.8-5.1 3.1-5.2 4-0.3 1.5l2.9-1.5-4.4 8.3c-2.4 4.5-5.1 10.2-6.1 12.7-0.9 2.5-2 4.8-2.3 5.2s-0.5-26.8-0.4-60.5c0.2-33.7 0.3-61.3 0.3-61.5 0-0.4 2.4-0.2 4.5 0.4zm24.8 20.4c0.3 1.1 0.1 1.8-0.4 1.4-0.5-0.3-0.9-1.2-0.9-2 0-2 0.7-1.7 1.3 0.6zm-27.9 123.2c0.9 1.7 1.4 3.3 1.2 3.6-0.4 0.4-3.6-5.1-3.6-6.3 0-1.3 1-0.3 2.4 2.7z"/>
    <path d="m201 19.5c-0.7 0.8-0.9 2.3-0.6 3.2 0.3 1-0.3 0.6-1.5-1-2.4-3.1-4.9-3.6-4.9-0.9 0 2.6 3.4 5.4 10.7 9.1 7.6 3.8 8.9 3.9 4.5 0.5-3.2-2.5-7-8.4-5.5-8.4 0.5 0 3 2.2 5.7 5 6.2 6.3 12.4 9.3 20.1 9.7 6 0.4 6 0.4 2.8-1.1-1.7-0.8-4.4-3.3-5.9-5.5-1.5-2.3-3-4.1-3.5-4.1-1.6 0-2 2-0.8 4.2 2.3 4.5-1.3 0-4-4.9-3.1-5.7-6.1-6.9-6.1-2.6 0 1.9 1.1 4.1 3.3 6.3 2.5 2.6 2.7 3 0.9 2.1-1.3-0.7-4.4-3.9-6.9-7.2-4.8-6.1-6.2-6.9-8.3-4.4z"/>
    <path d="m223 39.5c0 0.8 0.7 1.5 1.5 1.5s1.5-0.7 1.5-1.5-0.7-1.5-1.5-1.5-1.5 0.7-1.5 1.5z"/>
    <path d="m18.1 95.3c-2.3 2.8-4.3 21.7-2.3 21.7 0.4 0 1.4-2 2.1-4.4 1.2-4.1 4.5-8.5 5.6-7.5 0.2 0.3-0.2 1.7-1 3.3-2.6 5-4.5 12.8-4.5 18.6 0 5.9 2.1 14.3 4.2 17.3 1.1 1.5 1.3 1 1.3-3.5 0-3.9 0.6-6.1 2.3-8.5 1.2-1.7 2.2-3.8 2.2-4.7 0-2.3-2.6-2-4.4 0.6-0.9 1.2-1.6 1.9-1.6 1.5 0-1.4 2.8-6.1 5.9-10.1 2.4-3 2.9-4.2 2-5.2-0.6-0.8-1.7-1.4-2.3-1.4-1.8 0-5.2 4-6.4 7.5-0.7 2.1-1.1 2.4-1.1 1-0.1-1 1.5-5.4 3.5-9.6 2-4.3 3.4-8.5 3.1-9.3-0.8-1.9-4.8-2.1-6.6-0.4-0.7 0.7-0.3-0.4 0.9-2.4 2.2-3.8 2-5.8-0.4-5.8-0.8 0-1.9 0.6-2.5 1.3z"/>
    <path d="m90.1 163.6c0 1.1 0.3 1.4 0.6 0.6 0.3-0.7 0.2-1.6-0.1-1.9-0.3-0.4-0.6 0.2-0.5 1.3z"/>
    <path d="m113.4 165.1c-1 1.2-3.7 3-5.9 4s-3.3 1.9-2.4 1.9c2 0 10.9-5.7 10.9-7 0-1.5-0.5-1.3-2.6 1.1z"/>
    <path d="m91 167c0 1.4 4.7 4.3 6.2 3.7 0.8-0.4 0.6-0.6-0.4-0.6-1-0.1-2.7-1-3.8-2.1s-2-1.6-2-1z"/>
    <path d="m19 195.9c0 1 1 2.6 2.3 3.5 1.2 0.9 1.6 1.4 0.9 1.1-1.5-0.8-4.2 1.2-4.2 3 0 0.7 2.3 3.1 5.1 5.4 2.8 2.2 6 5.3 7.2 6.8 2 2.6 1.9 2.6-1.6-0.5-4.4-3.7-8.7-4.3-8.7-1.2 0 1.5 1.2 2.6 4.3 3.9 2.3 1 5.1 2.9 6.2 4.1l2 2.3-2.7-1.7c-3.9-2.6-5 0-1.2 3.1 1.6 1.2 3.3 2.3 3.7 2.3s1.7 1.9 2.7 4.2l2 4.3v-4.7c0-7.9-3.5-15.5-10.2-22.1-3.9-3.8-5.3-5.7-4.1-5.7 0.9 0 3.7 1.9 6.1 4.2l4.3 4.3-2.1-4.9c-2.2-5.3-5.5-10.4-7.8-12.4-2.3-1.8-4.2-1.5-4.2 0.7z"/>
    <path d="m37.6 223.9c-0.3 0.5 0.1 1.4 0.8 2 1.6 1.3 3.2-0.2 2.1-1.9-0.8-1.2-2.2-1.3-2.9-0.1z"/>
    <path d="m66.6 13.8c-0.6 1 0.9 2.5 3.4 3.5 0.8 0.3 0.3 0.6-1.3 0.6-1.5 0.1-4.5-0.8-6.7-1.9-4.7-2.4-6.9-2.5-7.7-0.4-0.8 2.3 1.7 4.3 7.3 5.9 6.9 1.9 2 1.8-7.6-0.1-6.4-1.3-8.3-1.4-9.5-0.4-2 1.6-1.9 2.9 0.2 5.3 1.7 1.8 1.7 1.8-0.9 0.7-3.1-1.5-5.8-0.7-5.8 1.5 0 3.8 10.3 3.8 20.7 0l3.8-1.4h-4.3c-3.6-0.1-11.2-2.3-11.2-3.3 0-0.2 5.5-0.3 12.2-0.3 12.1 0 12.4-0.1 18.5-3.4 3.4-1.8 7-4.2 7.9-5.2 1.7-1.8 1.6-1.9-1.5-0.8-3 1.1-7.9 0.8-14.2-0.7-1.5-0.3-2.9-0.1-3.3 0.4z"/>
    <path d="m104 16c-6.4 0.8-10 2.4-10 4.6 0 2.3 2.8 2.8 5.6 0.9 2.5-1.6 2.6-1.6 1.6 0.1-1.2 2.1 0.1 5.4 2.2 5.4 0.7 0 4.7-1.6 8.9-3.5s8.4-3.5 9.4-3.5 0 0.9-2.2 1.9c-4.7 2.1-6.8 4.3-6.3 6.7 0.5 2.9 2.2 2.6 7.1-1.1 2.5-1.9 5.9-4 7.4-4.5l2.8-1-2.7 2.1c-1.6 1.1-2.8 2.5-2.8 3 0 1.7 4.2 0.9 7.3-1.3 2.2-1.6 4.6-2.2 8.5-2.3h5.4l-5.4-2.5c-4.4-2-6.8-2.5-14.3-2.5-7.7 0-9.8 0.4-14.9 2.8-3.2 1.5-6.3 2.7-6.9 2.7-2.6 0 3.5-4.4 8.4-6.1 4.8-1.6 5-1.8 2.2-1.9-1.7 0-3.7-0.2-4.5-0.4-0.7-0.2-3.8 0-6.8 0.4z"/>
    <path d="m30.5 31c1.5 1.9 9.9 11 18.6 20.2s17.6 19.1 19.8 22c5.3 7.1 10.8 18.4 12.4 25.5l1.4 5.8 4.7 0.8c6.2 1 14 4.5 21.7 9.8 13.1 8.9 31.6 29 36.3 39.6l1.9 4.3h11.7v-6c0-5.5-0.2-6-2.5-6.6-8.6-2.1-32.9-24.1-42-37.9-5.6-8.5-9.5-17.7-9.5-22.4 0-2.7-0.4-3-5.2-4.1-6.7-1.6-18.2-6.8-24.4-11.1-4.1-2.8-12.9-10.7-42.3-38.3-4-3.8-4.7-4.2-2.6-1.6z"/>
    <path d="m257 37.4c-4.7 2.5-9 7.6-9 10.8 0 1.1 0.5 1.6 1 1.3 0.6-0.3 1-1.7 1-3 0-3.6 8-9.2 15-10.6l3.5-0.7-3.5-0.1c-2 0-5.5 0.9-8 2.3z"/>
    <path d="m26.3 41.4c0.5 3.2 0.4 3.5-1.2 2.6-1.3-0.6-2.4-0.5-3.7 0.4-1.9 1.4-1.7 3.1 1.2 17.3 0.2 1.3 0 2.3-0.6 2.3-0.5 0-1-1.1-1-2.4 0-3-4.2-8.2-5.8-7.2-1.8 1.1-1.5 4.2 0.8 8.6 1.1 2.2 2 5.2 1.9 6.7l-0.1 2.8-0.7-2.5c-0.8-2.8-4.1-4.1-4.1-1.6 0 0.9 0.5 3.6 1.2 6.1 0.9 3.3 0.9 5.6 0.1 8.5-1 4-1 4 0.9 2.4 1-1 3.3-4.7 5.1-8.3 3.1-6.3 3.2-7.1 3.2-18.3-0.1-6.4 0.2-11.5 0.7-11.2 1.1 0.7 2.8 7.4 2.9 11.4v3.5l1.6-4c0.8-2.2 1.6-7.6 1.6-12 0.2-7.7 0.1-8-2.2-8.3-2.2-0.4-2.4-0.1-1.8 3.2z"/>
    <path d="m263.5 41.8c0 2.1-0.5 2.8-2.3 3-1.3 0.2-3-0.2-3.9-1-1.4-1.1-1.3-0.8 0.1 1.5 1.5 2.2 1.6 3 0.6 4.2-2 2.4-3.9 1.7-4.9-1.8l-0.9-3.2-0.1 3.7c-0.1 4.5 0.7 6.8 2.4 6.8 1.6 0 5.5-5.2 5.5-7.2 0-0.7 1-1.8 2.2-2.3 2.4-1.1 3.6-4.1 2.1-5.6-0.5-0.5-0.9 0.3-0.8 1.9z"/>
    <path d="m135.3 41.1c-4 1.5-4.2 7.8-0.1 10 2.6 1.4 8.1 0.4 10.1-1.9 0.8-0.9 1.8-3.1 2.2-4.7 0.7-3 0.7-3-1.2 0.5-3.3 6.3-10.8 6.6-10.8 0.4 0-2.2 0.6-2.9 2.5-3.4 1.8-0.4 2.1-0.8 1-1.2-0.8-0.3-2.5-0.2-3.7 0.3z"/>
    <path d="m226.8 48.8c-2.5 2.9-2.8 6-0.7 8.6 3.3 4.2 10.9 1.7 10.9-3.7s-6.9-8.7-10.2-4.9z"/>
    <path d="m239 49c0 0.5 0.5 1 1 1 0.6 0 1-0.5 1-1 0-0.6-0.4-1-1-1-0.5 0-1 0.4-1 1z"/>
    <path d="m180.7 57.5c-1.5 1.4-2.4 2.5-1.9 2.5s1.9-1.1 3.2-2.5c3-3.2 2.3-3.2-1.3 0z"/>
    <path d="m159.7 60c-1.4 1.6-3.2 3-4 3-2.2 0-4.2 2.9-3 4.1 0.8 0.8 1.1 0.6 1-0.7-0.2-1.5 0.4-1.9 2.9-1.8s3.1-0.2 2.7-1.6c-0.3-1 0.2-2 1.2-2.4 2.1-0.8 3.5 0 3.6 2.2 0 0.9 0.5 0.4 0.9-1.2 1.7-5.4-1.4-6.3-5.3-1.6z"/>
    <path d="m166.9 61.7c-0.1 1-0.1 2.1 0 2.5 0.1 1.3-5.1 4.8-8.6 5.7-2 0.6-4.9 0.8-6.7 0.6l-3.1-0.5 3.3 1c6.7 2.1 16.2-2.8 16.2-8.5 0-2.8-0.9-3.5-1.1-0.8z"/>
    <path d="m169.7 105.9c-0.4 2-2.4 5.1-5.1 7.7-4.7 4.8-4.9 5.3-1 2.8 3.1-2.1 7.7-9.8 7.2-12.1-0.2-1.1-0.7-0.5-1.1 1.6z"/>
    <path d="m43.3 133c-2.6 1.1-3.8 4.3-2.4 6.7 0.9 1.6 1 1.4 1.1-0.9 0-2.1 0.6-2.9 2.7-3.4 3.3-0.9 5.7 1.9 4.8 5.6-0.9 3.5-2.3 4.9-5.9 5.9-2.6 0.8-2.7 0.9-0.8 1 3.3 0.1 6-1.5 7.7-4.9 2.1-4 1.9-5.7-1-8.5-2.6-2.7-3-2.8-6.2-1.5z"/>
    <path d="m70.1 154c-0.1 5.6-2.8 11.1-6.1 12.7-2.3 1.2-2.3 1.3-0.4 1.3 1.1 0 2.9-0.9 3.8-1.9 2.5-2.7 4.4-10.1 3.5-13.6-0.6-2.7-0.7-2.5-0.8 1.5z"/>
    <path d="m63.7 153.7c-0.4 0.3-0.7 1.3-0.7 2 0 0.8-1.3 2.6-3 4-5.3 4.4-3.6 7.4 3 5.3l2.5-0.8-2.7-0.1c-2.8-0.1-3.5-1.5-1.9-4 0.7-1 1.3-1.1 3.2-0.1 2 1 2.2 1 1.2-0.1-0.7-0.7-1.3-2.4-1.3-3.7 0-2 0.4-2.4 2.5-2 1.3 0.3 2.2 0.1 1.9-0.3-0.6-1.1-3.8-1.2-4.7-0.2z"/>
    <path d="m48.7 226.8c-3.8 4.2-0.8 10.2 4.9 10.2 5.1 0 7.6-7.6 3.6-10.7-2.5-1.8-6.6-1.6-8.5 0.5z"/>
    <path d="m47.5 239.9c-0.6 1.1 0.9 2.3 1.9 1.4 0.9-0.9 0.7-2.3-0.3-2.3-0.6 0-1.2 0.4-1.6 0.9z"/>
    <path d="m42.2 250.5c-3.6 2.6-7.2 9.7-7.1 14.1l0.1 3.9 0.9-4.5c1.2-6.1 5.6-12.2 9.9-13.7 3.1-1 3.2-1.2 1-1.2-1.4-0.1-3.5 0.6-4.8 1.4z"/>
    <path d="m47.8 253.6c3.5 1.5 3.8 3 0.9 4.8-1.2 0.8-2.1 0.5-3.8-0.9l-2.2-2 1.2 2.2c1.4 2.8 1.4 3.5-0.3 5.8-1.4 1.9-1.4 1.9-3.6 0-1.6-1.5-2-1.6-1.5-0.3 0.4 0.9 1.4 1.9 2.2 2.2 1.8 0.7 5.3-2 5.3-4.1 0-0.7 0.8-1.3 1.8-1.3 0.9 0 3.1-1.1 4.7-2.5 2.9-2.4 2.9-2.5 1.1-4-1.1-0.8-3.6-1.5-5.5-1.4l-3.6 0.1z"/>
    <path d="m14 289.9c0 1.1 0.4 2.2 0.9 2.5 0.4 0.3 0.6-0.6 0.3-1.9-0.5-3-1.2-3.3-1.2-0.6z"/>
  </g>
</svg>
