<svg xmlns="http://www.w3.org/2000/svg" viewBox="0 0 2000 2000">
  <g transform="rotate(-90 800.28 865.11)" fill="#00000033">
    <path d="m1482.9 65.492c-0.132-0.905-12.858-0.641 182.45-0.581 1e-3 1.002 0.124 178.16-0.12 184.31-48.613 0.032-97.222-0.018-145.83 0.023-0.01 105.58-0.05 1358.4 0.023 1415.6-12.181 0.078-24.357 0-36.534 0.041 0-1.005-0.027-1404.2 0.014-1415.6-12.903-0.105 81.958-0.098-1417.8-0.083 5e-3 -12.167 0.014-24.33-5e-3 -36.497 141.92-0.142 1416.1 0.26 1417.8-0.355-0.07-12.256-0.042-139.2-0.028-146.88m36.488 36.331c0.051 36.866 0.028 73.736 0.014 110.6 36.488 0.088 72.975 0.065 109.46 0.014 0-36.875-0.028-73.755 0.014-110.63-36.498-1e-3 -72.994-0.033-109.49 0.018z"/>
    <path d="m64.9 292.26c15.568-0.016 1360.9 4.593 1375.6 4.635-0.216 27.44 4.325 1255.8 4.363 1368-23.403-0.041-46.801-0.014-70.203-0.018 0.028-287.8 0.023-575.6 0.01-863.41-7.289-0.104-24.081 3.453-23.509-26.331-12.955-0.062-26.076-8.466-32.77-26.128 62.883-36.802 80.806-132-6.476-194.93-0.078-27.503 0.01-55.01-0.037-82.513 10.009-5e-3 20.022-0.014 30.04 5e-3 0.023-27.946 0.023-55.896 0-83.846-25.377 0.028-50.753 0-76.125 0.014-0.069 10.027-0.023 20.049-0.023 30.077-30.026 0.065-60.056 0.037-90.077 0.014-60.75-83.959-150.04-70.368-187.3-6.489-2.029-0.65-3.897-1.66-5.825-2.518-0.876 0.457-1.125 1.637-1.605 2.454-14.002-4.109-25.974-17.093-26.465-32.627-18.634-0.062-30.621-7.41-24.759-23.606-288.26-5e-3 -576.51-0.014-864.77 5e-3 -0.06-20.93 9e-3 -41.855-0.033-62.777z"/>
    <path d="m615.78 390.37c18.963-8.258 37.446 8.77 46.552 13.666 4.004 2.508 19.943 9.195 21.115 8.952-3.027-3.501-7.411-7.65-10.105-16.064 14.087-3.108 28.799-1.539 40.463 7.753 2.515-7.265 11.952-8.199 19.653-7.67-0.512 4.829 0.729 9.75 3.104 13.947 11.822 13.66 22.583 21.194 25.746 21.991-6.399-8.061-9.916-17.833-3.87-30.625 4.681-1.356 9.718-0.627 14.547-1.172 0.3-3.215 2.103-6.084 4.308-8.353 13.294-13.326 40.003-4.394 50.633-10.659 4.159 23.113-24.225 14.91-33.527 30.155 16.765 14.048 20.959 42.348 58.511 59.48-0.337-2.16-16.194-13.898-14.745-36.88 3.708 0.641 7.523 0.434 11.226-0.171-2.587-6.061-2.698-12.781-2.361-19.256 2.016 2.827 5.124 4.585 8.237 5.968 23.38 9.988 47.771-3.075 59.964 34.749 0.383 0.987 0.387 2.325 1.513 2.818 18.998 12.543 0.377 29.036 29.574 54.904 0.315-1.671-21.032-23.843-4.363-49.19 7.248-11.149 20.999-15.9 29.883-16.24 10.005 20.565-5.639 29.582-8.362 32.18-26.474 24.443 13.231 45.057 45.772 89.879-2.389-1.545-4.539-3.487-7.052-4.801l-0.793-9e-3c0.41 1.065 1.107 1.983 1.785 2.906-15.547-14.416-96.381-72.13-226.98-115.1-65.656-22.101-136.02-48.199-216.19-31.276 0.074-2.071 0.839-3.999 1.564-5.908-8.708 2.214-17.241 5.05-25.676 8.127-1.614-3.736-2.634-7.721-2.924-11.784-21.083 5.318-44.172 0.323-61.837-12.149 33.813 9.255 43.74-2.03 68.926-7.892 1-0.278 10.765-2.189 12.278-4.451 14.404-17.615 37.393-21.368 63.43 2.179z"/>
    <path d="m1106.3 465.32c8.135 39.986-32.204 63.069-57.547 59.789-21.72-1.97-29.944-21.226-29.791-29.574 2.643 6.526 6.803 12.707 12.817 16.553 0.314 0.032 0.936 0.097 1.245 0.129-3.856-4.926-6.785-10.645-7.97-16.821 0.826-0.203 1.67-0.42 2.518-0.623 12.63 47.306 77.231 7.451 57.026-34.292-5.326-11.492-15.675-20.147-29.758-22.19-53.138-7.551-68.714 72.918-30.501 108.89l0.623 0.083c-2.444-4.179-4.446-8.616-5.466-13.362 1.822-0.54 3.741-0.6 5.618-0.862-0.304-1.158-0.59-2.311-0.858-3.464 41.585 12.992 39.637 28.387 62.464 33.37 0.212-1.54-1.619-1.31-2.486-1.882-3.607-1.499-7.002-3.759-9.34-6.928 0-5e-3 -8.937-6.957-11.522-9.769 2.777 1.421 5.858 2.408 8.999 2.5-0.306-6.047 5.871-14.15 23.375-7.108 3.698 1.293 7.636-2.575 16.267-0.849 8.209 1.553 17.25 8.337 21.175 8.039 19.74-0.352 35.943-16.662 41.589-29.98 4.386-20.75-6.784-37.891-9.432-38.854 0.711 1.75 8.146 13.374 1.384 27.171-9.179 18.845-46.272 26.833-57.215 0.47-15.616-38.391 50.879-78.732 79.202-29.375 29.912 51.476-23.126 101.8-86.872 105.59-113.56 10.609-143.03-93.607-100.99-139.7 34.885-39.22 97.066-19.934 105.45 23.046z"/>
    <path d="m1215.4 430.34c2.112 0.701 4.211-0.604 6.379-0.194 20.018 1.463 21.094 47.901-11.452 74.585 2.03-3.75 3.657-7.804 4.326-12.029-2.472 2.361-4.428 5.207-6.9 7.583-1.711 1.757-3.69 3.233-5.309 5.078 8.416-14.881 6.978-32.424 0.337-48.627-6.971-18.396 2.979-28.47 12.619-26.396z"/>
    <path d="m1277.5 440c2.096 0.462 9.62-2.471 15.742 4.603 21.759 20.214-35.069 48.759-61.44 60.725 0.747-1.494 1.513-2.984 2.205-4.511-3.192 1.421-6.346 2.938-9.46 4.515 0.534-2.35 15.105-32.724 28.342-50.739 5.917-7.869 14.943-16.444 24.611-14.593z"/>
    <path d="m1279.4 501.6c38.873-2.146 32.592 31.218 8.763 27.424-16.023 2.643-25.87-13.156-49.6-4.829-2.094 0.701-3.985 1.859-6.047 2.611 1.167-1.379 2.486-2.629 3.556-4.091-3.362 0.812-6.665 1.932-9.727 3.551-0.223-2.484 22.321-26.558 53.055-24.666z"/>
    <path d="m1249.2 543.3c62.045 20.024 31.974 100.6-24.26 77.237-16.461-5.854-23.378-26.361-13.348-41.031 10.678-16.318 28.492-11.274 31.866-11.664 5.378-0.364 10.645 1.31 15.271 3.957-11.508-28.74-91.439-14.864-66.343 38.605 4.305 9.417 8.774 15.293 4.949 28.019-2.066 7.058-12.463 20.07-4.363 35.524-5-4.861-9.068-10.622-12.398-16.733-2.242-0.489-4.086-1.84-6.056-2.906 0.849 3.791 1.513 8.03 4.414 10.871 8.456 9.999 4.958 7.867 15.396 21.11 8.962 10.533 8.889 13.062 13.468 26.719-3.971-0.862-7.942-1.969-11.521-3.916-0.088 0.24-0.258 0.724-0.346 0.964-4.118-0.19-9.215-3.452-11.231-3.63 1.01 2.345 22.094 31.295 62.487 24.426 46.558-8.1 57.983-61.572 28.328-82.13-45.962-33.387-82.965 47.083-32.968 61.039-0.235 0.798-0.47 1.591-0.673 2.408-2.91-0.387-5.586-1.614-8.33-2.551-0.212 0.945 0.604 1.245 1.278 1.6-49.918-10.883-32.753-75.179 8.643-84.215 32.394-7.56 76.953 20.901 67.892 65.798-8.289 40.918-48.328 54.252-73.423 53.82-66.959 1.206-100.27-65.369-87.864-125.81 5.949-29.672 25.101-64.287 54.023-74.156 2.958-0.875 21.008-11.021 45.109-3.352z"/>
    <path d="m1149.8 579.89c-2.458 3.27-5.401 6.314-7.103 10.064 6.555-3.23 10.745-7.421 13.708-8.883-30.338 36.488-25.857 90.072-4.677 128.28-3.538-0.235-6.471-2.472-9.529-4.031 0.599 1.536 1.374 3.003 2.121 4.479-19.984-5.844-32.399-31.394-39.149-51.085-26.936 7.467-43.977-6.876-31.562-33.425-20.185-6.251-48.028-19.518-53.645-39.942 2.892 1.665 5.913 3.109 8.98 4.437-0.424-1.338-0.904-2.675-0.987-4.077 42.199 21.464 85.219 24.508 121.84-5.822z"/>
    <path d="m1161.7 727.04c2.758 1.559 4.926 3.948 7.624 5.59 0-1.882-1.776-3.026-2.578-4.575 42.635 30.607 63.479 69.548 87.25 48.318 4.76-4.099 13.609-21.798 34.892-10.83-2.197 23.061-18.538 36.777-39.158 35.934-0.055 0.198-0.157 0.6-0.208 0.798 3.109 0.363 19.012-0.153 24.685 17.905 55.704 13.002 24.473 53.72 47.599 70.069-22.137 1.097-24.431-6.913-27.249-7.177-0.097 2.809-0.3 5.664 0.332 8.44-10.082 0.752-20.363-2.274-28.601-8.108-1.232-0.687-2.163-2.108-3.644-2.172 23.628 45.093 41.705 32.206 60.85 62.708 14.49-8.2 9.475-24.262 19.196-31.921 3.422-2.795 8.099-3.487 12.356-2.652-6.022 10.603 4.167 51.884-19.012 55.057 0.18 3.98-0.475 8.141-2.712 11.517-8.645 13.839-28.085-0.259-29.085-0.535 6.703 11.871 14.986 22.268 28.495 20.967 0.364 3.985 0.078 8.021-0.909 11.9 4.147 9.339-1.569 14.008-1.619 15.548 1.667 5.737 15.795 18.027 9.344 36.441-9.643-0.547-13.321-5.322-15.437-5.802 1.959 4.619 11.717 29.133 11.738 29.168 6.654 12.128 5.173 19.27 5.862 21.881 5.132 20.313 1.665 12.195 5.207 17.877 10.386 15.009 12.627 31.467 2.209 45.874-0.992 1.148-0.664 2.726-0.775 4.123-3.37 45.084-23.686 55.601-11.484 92.886-14.63-20.174-18.804-47.972-9.275-71.19-7.191 2.869-15.354 1.914-22.296-1.185 14.063-39.987 18.952-65.83 3.731-130.75-17.049-70.238-63.009-220.11-131.38-315.79-5.025-6.993-10.302-13.81-15.952-20.309z"/>
  </g>
</svg>
