<svg xmlns="http://www.w3.org/2000/svg" viewBox="0 0 300 300">
  <g transform="translate(-.65475 -.6562)" fill="#00000033">
    <g transform="rotate(90 125 125)">
      <path d="m9.8425 240.16v-26.58h26.574l1e-3 26.58h-26.574zm26.574 8.86h8.859v-44.3h-44.292l-4e-5 8.86v35.44h35.432zm-26.574-62.01v-70.87h44.292v44.29h-17.717v-26.57h-8.858v35.43h35.433v-62.01h-26.575v-53.146h26.575v-8.858h-35.433v62.004h-17.716l-5e-4 -106.3-8.8582 0.00426-4e-5 186.03v8.86h53.15v53.15h194.89v-8.86h-106.3v-17.72h62v-35.43h-8.85v26.57h-53.15v-26.57h-62.011v35.43h53.151v17.72h-70.868v-53.15h-53.15zm124.02 26.57h-44.293v-17.71h44.293zm-44.293-53.15v-26.57h26.573v26.57zm26.573 8.86h8.86v-44.29h-44.291v44.29h8.858z"/>
      <path d="m0.65625 0.65625v195.53h53.156v53.15h195.53v-9.5h-106.31v-17.09h62v-36.06h-9.47v26.59h-52.53v-26.59h-62.624v36.06h53.124v17.09h-70.218v-53.15h-53.156v-70.22h43.656v43.65h-17.093v-26.59h-9.469v36.06h36.062v-62.62h-26.593v-52.532h26.593v-9.469h-36.062v62.001h-17.094v-106.31h-9.4998zm0.62495 0.62495h8.25v106.31h18.344v-61.996h34.813v8.218h-26.594v53.778h26.594v61.38h-34.813v-34.81h8.219v26.59h18.344v-44.91h-44.907v71.47h53.157v53.16h71.472v-18.35h-53.129v-34.81h61.379v26.6h53.78v-26.6h8.22v34.81h-62v18.35h106.31v8.25h-194.28v-53.16h-53.157l2e-4 -8.56v-185.72zm79.125 123.41v44.9h44.904v-44.9h-44.591zm0.625 0.62h43.659v43.66h-43.659v-35.13zm8.219 8.22v27.22h27.22v-27.22h-26.908zm0.625 0.63h25.965v25.96h-25.965zm-0.625 61.4v18.35h44.91v-18.35h-44.598zm0.625 0.63h43.655v17.09h-43.655zm-89.219 8.22v44.93h44.938v-44.93h-44.938zm0.62495 0.62h43.688v43.69h-43.688v-43.69zm8.25 8.25v27.19h27.188v-27.19h-27.188zm0.6248 0.63h25.938v25.93h-25.938z"/>
    </g>
  </g>
</svg>
