<svg version="1.1" viewBox="0 0 300 300" xmlns="http://www.w3.org/2000/svg">
  <path d="m0.0058594 0v49.66h12.719l23.592 0.01172v12.043h-36.311l-0.0058594 0.009764v176.78h13.352v-163.41h22.965v88.061l1.0645-1.0606 12.094-12.156 0.18555-0.18945v-74.654h12.061v36.01l1.0742-1.0703 12.131-12.131 0.18359-0.18945v-22.619h22.607l0.18359-0.18164 12.135-12.129 1.0703-1.0703h-35.996v-12.055h74.643l0.18946-0.18945 12.15-12.1 1.0684-1.0605h-88.051v-22.955h163.4v-13.35h-176.79v36.305h-12.061v-36.311h-49.654zm13.344 13.35h22.967v22.971h-22.967zm36.311 36.311h12.061v12.055h-12.061z" fill="#00000033"/>
</svg>
