<svg version="1.1" viewBox="0 0 220 220" xmlns="http://www.w3.org/2000/svg">
  <path fill="#00000033" d="m0.0097656 0v0.52539 199.97h1v-179.99l6.3242 126.48 0.99805-0.04883-6.3164-126.37 10.785 107.86 0.99609-0.09961-10.77-107.69 14.348 95.641 0.98828-0.14844-14.301-95.338 17.406 87.039 0.98242-0.19532-17.307-86.529 19.857 79.43 0.9707-0.24218-19.762-79.049 22.15 73.832 0.95703-0.28711-22.002-73.34 24.062 68.748 0.94336-0.33008-23.809-68.021 25.582 63.953 0.92774-0.37305-25.309-63.271 26.994 59.984 0.91016-0.41016-26.596-59.104 28.148 56.301 0.89453-0.44726-27.707-55.416 29.094 52.898 0.87695-0.48242-28.568-51.938 29.803 49.67 0.85742-0.51367-29.246-48.742 30.354 46.699 0.83984-0.54492-29.553-45.467 30.645 43.777 0.81836-0.57422-29.822-42.604 30.889 41.186 0.79883-0.59961-30.043-40.059 31.018 38.775 0.78125-0.625-29.965-37.457 30.857 36.305 0.76172-0.64844-29.814-35.076 30.639 34.043 0.74219-0.66797-29.361-32.621 30.113 31.697 0.72461-0.6875-28.867-30.387 29.566 29.566 0.70703-0.70703-29.75-29.75 30.471 28.947 0.68945-0.72656-31.66-30.076 32.576 29.318 0.66797-0.74219-33.979-30.58 35.062 29.803 0.64844-0.76172-36.273-30.83 37.48 29.982 0.625-0.78125-38.688-30.949 40.023 30.018 0.59961-0.80078-41.293-30.969 42.789 29.951 0.57226-0.81836-43.908-30.734 45.572 29.621 0.54492-0.83789-46.682-30.342 48.52 29.111 0.51367-0.85742-49.533-29.721 51.795 28.488 0.48047-0.87695-52.754-29.016 55.381 27.689 0.44726-0.89453-56.369-28.184 59.291 26.682 0.41016-0.91016-60.035-27.016 63.305 25.32 0.37109-0.92969-64.055-25.623 67.832 23.742 0.33008-0.94336-68.391-23.937 73.184 21.955 0.28906-0.95898-73.838-22.15 79.311 19.826 0.24219-0.9707-79.902-19.977 86.545 17.311 0.19531-0.98047-86.844-17.369 95.631 14.346 0.14844-0.98828-95.818-14.373 107.55 10.756 0.09961-0.99414-107.87-10.787 126.43 6.3223 0.05078-1-126.64-6.3301h180.11v-1h-200.5z"/>
</svg>
