<svg xmlns="http://www.w3.org/2000/svg" viewBox="0 0 2000 2000">
  <path fill="#00000033" d="m1787.3 279.24c-4.8565 17.688-20.747 34.191-36.728 38.145-3.2127 0.7948-3.1928 0.6658-1.25 8.1248 11.704 44.935-35.917 82.676-77.883 61.726l-4.8829-2.4377-5.6773 5.4152c-32.881 31.364-90.951 7.4366-91.045-37.514l-0.012-5.6498-7.25 2.5238c-50.857 17.704-94.113-41.466-61.66-84.343 4.1413-5.4714 4.6202-6.5387 3.1471-7.0148-60.152-19.442-48.087-106.67 14.763-106.73 25.143-0.025 38.564 9.2053 27.056 18.607-68.335 55.826-30.292 162.07 62.444 174.38 147.91 19.648 181.85-158.54 43.5-228.42-125.74-63.514-324.45 3.0386-392.98 131.62-3.9315 7.3763-4.2666 7.3536-9.6305-0.6526-27.345-40.814 13.265-97.379 59.399-82.736l2.2009 0.6986-1.862-4.344c-20.664-48.208 36.571-95.982 80.026-66.798 4.9117 3.2988 4.8641 3.3215 7.3352-3.4883 12.702-35.004 58.993-45.574 87.322-19.937l5.78 5.2306 3.4288-7.6466c18.331-40.88 78.552-40.919 98.166-0.063l3.2415 6.7523 3.3616-2.9515c34.938-30.676 89.522-5.274 89.679 41.733l0.037 11.118 4-1.475c46.957-17.315 90.181 40.84 61.541 82.798-2.3019 3.3723-4.0403 6.2382-3.8631 6.3688 0.1772 0.1305 2.9576 1.2847 6.1787 2.5649 24.599 9.7764 39.124 38.898 32.122 64.401zm-280.9-144.14c-5.8243 16.321-26.96 21.388-39.408 9.4473-14.827-14.222-6.6289-38.962 13.709-41.371 17.558-2.0795 31.606 15.371 25.699 31.924zm-58.408 20.248c-6.6267 13.944-24.476 15.048-31.883 1.9704-6.6815-11.797 1.971-26.529 15.533-26.448 12.536 0.075 21.54 13.556 16.35 24.478zm-46.056 18.089c-10.347 16.969-35.828 4.3806-26.952-13.315 3.2625-6.5039 6.7146-8.774 13.343-8.774 11.637 0 19.398 12.596 13.609 22.089zm-33.8 18.9c-3.4338 13.461-23.45 12.01-25.008-1.812-1.8461-16.378 22.36-19.462 25.027-3.188 0.2703 1.65 0.262 3.9-0.019 5zm-39.076 25.454c-6.1345 6.1345-15.2 2.6638-15.2-5.8193 0-11.24 15.846-12.022 17.655-0.8709 0.509 3.1365 0.1672 4.0679-2.4551 6.6902zm-26.2 81.5c-3.0761 7.3882-10.744 10.069-25.479 8.9081-49.829-3.9265-84.431 3.8985-118.3 26.753l-7.7266 5.2138 3.277-4.1375c27.827-35.134 73.604-65.824 103.07-69.102 27.657-3.0766 52.499 14.729 45.156 32.365zm-0.8847-61.444c-2.1282 2.6282-7.4431 3.1029-9.6376 0.8608-4.2145-4.3059-1.3057-11.917 4.5544-11.917 5.9238 0 8.8617 6.3897 5.0832 11.056zm-11.9 166.9c-3.9696 7.9463-12.079 8.3145-20.952 0.9513-2.6381-2.1892-7.4642-6.2158-10.725-8.9479-22.32-18.703-63.217-23.95-102.06-13.094-9.347 2.6125-9.1729 2.1468 1.1925-3.1892 54.15-27.876 99.038-31.893 121.57-10.878 11.095 10.347 15.812 25.466 10.971 35.157zm-13.693-147.46c-3.2197 3.2197-8.5555 1.2074-8.5555-3.2265 0-1.7829 3.653-5.3089 5.5-5.3089 4.6121 0 6.4518 5.1391 3.0555 8.5354zm-52.589 227.07c-4.7673 9.631-11.82 8.3746-24.135-4.2996-29.634-30.496-92.227-47.986-131.33-36.697-10.784 3.1133 27.768-15.355 42.888-20.545 66.329-22.77 135.58 15.084 112.58 61.542zm1.3737-317.1c-4.4486 37.089-23.293 79.376-50.244 112.75-7.3558 9.1087-8.1422 9.612-3.9745 2.5435 32.143-54.514 38.537-109.6 15.611-134.47-11.038-11.974-23.653-11.488-31.686 1.2225-8.8635 14.024-23.3 21.085-41.441 20.268-51.657-2.3286-48.999-85.396 3.3945-106.08 58.539-23.11 116.86 32.746 108.34 103.76zm-107.7 153.5c-5.9287 28.187-25.996 58.495-56.513 85.352-14.744 12.976-35.787 28.926-32.444 24.593 32-41.483 37.919-57.104 39.389-103.95 1.0241-32.64 3.154-39.83 13.946-47.077 20.723-13.918 42.024 10.645 35.623 41.077zm-89.152 18c-5.0965 30.168-22.391 50.443-49.416 57.932-7.4329 2.0598-23.487 2.8487-28.834 1.4169-2.7014-0.7233-2.7427-0.4997 2.3573-12.754 44.286-106.41-15.55-246.75-120.88-283.52-186.21-65.005-336.32 133.18-212.96 281.14 51.817 62.152 184.29 39.359 210.5-36.217 24.913-71.84-11.276-134.31-79.186-136.7-71.976-2.5293-94.678 91.776-31.032 128.91l5.4684 3.1902-4.4684 1.9659c-37.962 16.702-81.858-4.3333-92.575-44.363-9.3865-35.059 13.919-73.577 49.361-81.581 7.0896-1.601 7.2033-1.6773 7.8558-5.2719 10.354-57.045 85.039-74.345 119.55-27.691l2.9264 3.9566 12.709-0.26c69.786-1.4278 104.94 79.523 56.074 129.12l-8.6459 8.7754 3.3732 6.7045c27.118 53.899-28.815 113.53-85.244 90.879l-8.1511-3.2718-1.6202 6.5655c-15.96 64.675-108.43 67.863-128.21 4.4209-1.4317-4.592-2.7347-8.3491-2.8955-8.3491-0.16079 0-3.1258 1.34-6.5889 2.9778-65.942 31.186-126.13-54.494-75.144-106.98 9.845-10.135 9.7988-9.878 2.3874-13.28-56.964-26.147-48.005-111.56 13.159-125.46 7.088-1.6109 7.7598-1.9931 9.7609-5.5537l2.1491-3.8237-2.0004-4.6904c-26.776-62.783 44.483-121.11 99.841-81.729l4.5358 3.227 2.7401-5.6408c21.615-44.498 88.659-48.434 114.81-6.7403 1.7913 2.8558 3.3769 5.3603 3.5238 5.5655 0.14681 0.2053 2.3116-1.4265 4.8105-3.6262 42.602-37.5 111.87-3.0716 109.36 54.353-0.30907 7.0665-0.11118 9.3422 0.78255 8.9992 18.106-6.9479 45.931-1.085 63.196 13.316 34.489 28.768 28.865 87.729-10.376 108.79l-5.5355 2.9703 8.461 3.0475c28.068 10.11 48.613 42.406 44.073 69.282zm-104.9 132.4c-10.03 48.444-47.366 64.162-121.15 51.004-2.9342-0.5233-3.2234-0.3059-4.3645 3.2807-17.834 56.051-88.884 61.469-139.89 10.667-10.215-10.174-10.804-9.6031 8.5856-8.316 85.823 5.697 177.9-26.978 246.64-87.524 5.4067-4.762 10.115-8.3733 10.463-8.0251 1.367 1.3671 1.1385 32.014-0.29018 38.914zm-202.05 237.6c-0.89193 0-88.223-52.492-89.613-53.863-0.9123-0.9003-9.8425-22.336-19.845-47.636s-18.423-46.382-18.712-46.85c-0.95485-1.545 85.048 50.319 87.358 52.681 1.09 1.1 41.43 95.7 40.81 95.7zm-132.7-154c-0.1375-0.01-20.05-7.3895-44.25-16.401l-44-16.385-10.613-47.349c-5.837-26.042-10.453-47.533-10.258-47.758 0.19541-0.225 20.787 7.6363 45.759 17.47l45.403 17.879 9.1043 45.53c8.8697 44.357 9.3765 47.048 8.8537 47.014zm-4.18 141c-6.3508 30.076-33.283 56-58.179 56-2.0243 0-2.1915 0.63143-2.8467 10.75-3.3009 50.98-15.914 85.746-34.56 95.259-17.515 8.9355-66.99 9.3169-75.723 0.58385-0.15597-0.15597 4.3344-3.8962 9.9785-8.3115 72.875-57.009 121.24-143.08 130.8-232.78 0.64476-6.05 1.319-11.156 1.4983-11.347 0.5149-0.5484 9.2704 11.672 13.679 19.091 13.475 22.68 19.573 50.779 15.355 70.756zm-45.269-571c-3.9442 10.904-6.6101 12.463-21.356 12.484-27.228 0.039-34.863 23.743-34.954 108.52-0.0336 31.296-1.3106 68.112-3.0825 88.865-1.6282 19.07-2.2577 20.494-3.7869 8.5662-21.757-169.71-153.37-290.08-240.65-220.09-89.774 71.99 0.82152 221.95 168.42 278.79l11.607 3.936-9.5-0.5998c-16.734-1.0565-48.464-5.3995-87.698-12.004-97.84-16.469-120.79-13.704-123.32 14.858-3.0652 34.521-50.483 17.259-50.328-18.321 0.19472-44.704 34.928-74.589 78.099-67.198 2.8875 0.4943 5.25 0.7899 5.25 0.6568 0-0.4473-21.393-14.079-32.637-20.797-46.31-27.668-54.058-81.521-17.129-119.05l7.2764-7.3953-3.7544-4.8562c-21.944-28.384-23.14-61.947-3.0573-85.825 31.995-38.041 71.614-41.054 105.07-7.9904l9.2694 9.1604 5.2306-3.9237c29.792-22.349 65.2-22.207 92.572 0.3714 12.685 10.463 18.539 19.788 27.72 44.154 3.0679 8.1418 6.8233 17.592 8.3454 21l2.7674 6.1967 0.69648-9.2224c2.7935-36.99 20.305-55.032 59.129-60.921 32.433-4.9195 58.566 16.408 49.8 40.643zm-43.312 536.76c-7.3578 28.08-28.735 46.668-57.827 50.284-10.383 1.2903-9.5096 0.37518-7.6974 8.0633 14.221 60.328-63.31 108.68-107.23 66.869l-3.2689-3.1114-4.3496 3.8184c-55.321 48.564-144.53-10.148-121.88-80.215l1.9503-6.033-5.4125-5.9558c-36.943-40.652-6.9736-110.34 47.509-110.46 5.0819-0.012 6.3944-0.349 6.8733-1.7648 24.009-70.987 129.74-53.68 129.81 21.25 0.0176 17.916-11.296 48.196-14.759 39.5-2.7202-6.8316-8.099-18-8.669-18-0.35499 0-2.5436-2.6915-4.8635-5.9812-27.275-38.676-93.819-36.095-113.72 4.4107-35.97 73.1 38.6 147.04 125.04 123.83 71.66-19.24 109.71-138.83 62.78-197.33-119.58-149-342.29-39.6-315.61 155 15.39 112.33 146.21 199.43 259.33 172.67 14.735-3.4858 15.73 7.9656 2.8317 32.603-29.381 56.124-124.53 35.577-124.82-26.954-0.0147-3.1685-0.041-3.1525-8.2648 5.033-52.528 52.283-141.81-9.4275-108.07-74.697 1.8685-3.6147 1.8128-3.6558-6.3444-4.6882-57.887-7.3261-80.161-80.271-35.823-117.32l4.6059-3.8485-5.4771-5.7421c-34.331-35.992-20.758-94.854 25.378-110.06 4.1152-1.356 7.6604-2.5776 7.8781-2.7146 0.21774-0.137-0.77349-2.8549-2.2027-6.0396-27.233-60.683 43.362-120.71 97.863-83.212 7.0204 4.8301 12.335 3.1564 15.556-4.8986 23.908-59.797 112.6-53.779 126.89 8.6099 1.4675 6.4092 2.4397 6.5319 9.2301 1.1644 59.369-46.928 140.97 31.646 95.177 91.643-4.2441 5.5601-4.5189 4.7686 2.9275 8.4344 27.502 13.539 42.417 46.147 34.656 75.767zm-36.9-261.8c-6.2643 0-74.93-39.194-108.09-61.695l-14.5-9.8403-16.104-60.982c-8.8571-33.54-15.994-61.12-15.86-61.289 1.4395-1.8098 102.64 51.239 104.43 54.739 15.61 30.5 54.7 139 50.12 139zm-9.08 731.34c-11.048 9.2961-38.005 2.5982-54.027-13.424-26.145-26.145-25.383-70.432 2.1786-126.74 8.168-16.688 8.2182-16.711 6.7208-3.0751-5.2147 47.485 10.801 98.54 37.839 120.63 10.016 8.182 13.094 17.73 7.2886 22.615zm-61.121-185.87c-49.741 70.266-128.96 106.13-147.92 66.963-10.774-22.257 5.6988-33.932 50.035-35.462 44.478-1.5351 61.999-7.7854 95.834-34.188 7.9414-6.1968 8.1504-5.9237 2.0553 2.6866zm-16.17 249.53c-3.1961 6.3965-17.681 7.9482-28.054 3.0053-32.229-15.359-34.026-64.593-4.5165-123.73 4.3297-8.6766 7.6154-14.651 7.3016-13.276-12.146 53.214-7.1668 86.148 17.073 112.92 9.101 10.051 11.117 15.236 8.1957 21.083zm-5.7396 347.06c-1.6905 10.897-6.3218 20.155-14.365 28.715l-4.9585 5.2773 2.7139 5.7227c21.058 44.405-22.498 92.996-67.783 75.619-0.83862-0.3218-2.0432 1.5843-3.4643 5.4816-17.758 48.704-87.551 46.584-103.51-3.1438-0.49968-1.5572-1.1452-1.3508-5.4515 1.7429-41.6 29.882-100.28-10.931-84.803-58.98 0.88603-2.75 1.6162-5.225 1.6226-5.5s-4.2915-0.3431-9.5508-0.1513c-46.22 1.6851-73.694-53.819-43.88-88.646 2.0235-2.3638 3.5131-4.4354 3.3102-4.6035-0.20287-0.1682-3.4874-1.8233-7.2991-3.6782-39.698-19.318-39.131-78.409 0.93468-97.433l7.9955-3.7963-4.7286-4.9366c-26.594-27.764-15.518-75.753 20.432-88.521 5.6637-2.0116 5.6127-1.7879 1.8065-7.9179-26.522-42.715 17.628-97.659 64.34-80.071l6.8498 2.5791-0.58585-2.6621c-11.037-50.151 48.834-88.742 86.783-55.938l3.8768 3.3512-6.1031 3.2529c-127.54 67.98-194.8 263.24-134.22 389.67 71.15 148.51 262.41 104.64 228.15-52.33-18.75-85.91-125.22-113.94-175.33-46.17-8.1845 11.069-19.589-24.023-14.285-43.955 13.493-50.701 85.794-55.267 103.66-6.5453 1.2101 3.3 2.3137 6.1515 2.4525 6.3366 0.13884 0.1851 2.5362-1.4686 5.3274-3.6749 45.01-35.578 105.97 12.61 83.603 66.088-0.63324 1.514-0.13233 1.75 3.7151 1.75 31.442 0 57.668 31.354 52.749 63.062zm-69.16-473.56c-19.631 27.523-31.099 69.823-27.835 102.66 2.7599 27.761 2.4566 31.214-3.2914 37.472-10.176 11.078-29.395 1.0426-35.449-18.509-10.047-32.45 21.856-90.787 70.009-128.02 2.3975-1.8536 2.2465-1.5726-3.4341 6.3919zm-54.57 15.55c-82.4 66.06-181.77 67.78-213.1 3.68-27.107-55.46 15.154-113.77 72.63-100.22 36.235 8.543 41.329 58.565 7.9166 77.746-14.057 8.0699-10.451 25.253 7.5687 36.071 25.007 15.013 65.768 10.163 112.48-13.385 10.588-5.3368 19.25-9.6129 19.25-9.5025 0 0.1105-3.0375 2.636-6.75 5.6123zm-23.08 102.3c-2.2967 2.0785-4.5761 2.1073-6.5998 0.084-4.2701-4.2701 0.92529-11.299 5.9286-8.0205 2.9723 1.9475 3.2792 5.5768 0.67126 7.937zm-19.17 24.65c-5.7505 5.7505-14.956-1.9722-9.9449-8.3429 3.99-5.08 11.94-2.64 11.94 3.67 0 1.47-0.9 3.57-2 4.67zm-17.954 24.643c-2.3246 5.5188-9.9253 7.052-14.4 2.9048-8.1755-7.5768 3.4332-20.66 11.799-13.298 2.8328 2.4929 3.9866 7.1033 2.601 10.393zm-4.8-1175.5c-24.395-9.6524-38.335-15.419-38.7-16.01-0.92663-1.4993-10.607-43.358-10.136-43.829 0.6382-0.6382 39.722 16.511 41.189 18.073 0.98387 1.0475 12.397 40.358 12.397 42.699 0 0.5204-2.1375 0.1004-4.75-0.9334zm-15.08 1210.8c-6.03 11.24-22.24 8.08-23.82-4.65-0.86-6.96 5.63-14.29 12.65-14.29 6.1788 0 13 6.8212 13 13 0 1.3922-0.82227 4.0644-1.8273 5.9383zm-19.17 30.94c-3.97 16.82-29.99 13.45-29.99-3.88 0-13.222 16.066-20.136 25.513-10.98 2.8669 2.7787 5.7986 8.7716 5.3712 10.98-0.0532 0.275-0.45627 2.023-0.89564 3.8846zm-16.39 46.634c-1.8487 4.2429-7.9068 9.2595-12.141 10.054-22.796 4.2766-30.693-28.727-8.3021-34.697 14.081-3.7546 26.365 11.053 20.443 24.644zm-16.21 55.32c-11 22.07-45.4 14.66-45.4-9.78 0-10.892 4.5187-18.52 13.429-22.67 20.9-9.7322 42.209 11.899 31.967 32.451z"/>
</svg>
