<svg version="1.1" viewBox="0 0 1200 1200" xmlns="http://www.w3.org/2000/svg">
  <path d="m9.1342 225.61c1.4995-5.2649-1.2312-10.918-2.8082-16.149-1.3701-4.5447-8.4051-9.1256-5.7209-13.04 8.7678-12.788 17.479 3.4948 25.124-2.6466 18.458-14.828 31.738-14.592 52.676 0.93636 15.581 11.556 34.199 19.806 44.949 19.918 0.4761 6e-3 -0.46246-2.0612-2.0819-4.5904-1.6197-2.5293-3.8-4.6073-4.8493-4.6171-2.635-0.0276-18.586-12.573-29.012-22.819-17.244-16.946-20.512-37.124-7.8791-48.648 11.516-10.506 36.666 1.2686 46.007 21.544 5.143 11.163 10.665 13.327 13.775 5.3974 4.7546-12.122 16.99 2.0097 12.675 14.639-5.5364 16.203-22.981 19.493-43.598 8.2254-12.69-6.9355-14.203-5.5704-5.1613 4.6513 9.8905 11.181 34.044 22.738 50.483 24.155l13.516 1.1647 8.7926-7.449c5.2975-4.4887 9.5584-7.0489 13.071-7.605-0.35001-8.4504 2.8213-17.872 9.0628-20.192 7.3547-2.7343 2.362-31.97-9.6756-56.649-9.3581-19.186-16.367-22.832-11.328-5.8922 6.2033 20.854-0.72789 35.539-16.698 35.372-11.365-0.11906-20.653-7.6478-12.081-9.7936 2.1967-0.54993 3.6831-2.4535 3.7075-4.7541 0.0409-3.9591-2.3216-6.4504-16.264-17.147-24.401-18.721-10.434-49.629 18.731-41.447 10.608 2.976 35.346 27.843 41.706 41.923 4.3307 9.5877 8.8541 12.782 8.922 6.2994 0.0974-9.3419-7.3915-27.337-15.758-37.869-18.567-23.371-20.903-38.692-8.8231-57.871 6.5492-10.398 6.9262-13.439 1.9983-16.143-8.0703-4.4284-1.0374-14.629 10.007-14.513 2.9628 0.031 5.2195 5.8188 8.7392 7.1554 4.4469 1.6887 9.6356 1.6856 14.259 0.56715 3.2552-0.78749 5.4423-5.4886 8.7468-4.944 4.2406 0.69891 15.36 2.4632 8.5947 9.6109-6.1199 6.4664-5.9586 8.521 1.3246 16.82 16.841 19.19 16.015 30.346-4.4724 60.292-7.7184 11.282-12.056 19.73-13.684 26.663-3.8047 16.203 0.2173 16.134 9.6413-0.16369 20.457-35.376 56.202-50.897 70.189-30.477 9.6266 14.055-1.5944 33.943-26.629 47.202-8.1216 4.3014-8.3681 12.333-0.38061 12.416 8.7696 0.0918 3.8562 9.4836-6.2271 11.902-19.957 4.7874-30.82-16.605-19.96-39.308 10.885-22.756-5.5368-12.563-17.753 11.019-13.447 25.959-14.523 39.668-3.9776 50.765 6.1211 6.4409 8.3515 13.283 7.7078 19.237 8.9011-0.99148 19.689 2.1702 22.195 8.9106 2.7342 7.3547 31.97 2.3581 56.649-9.6795 19.186-9.3581 22.828-16.367 5.8884-11.328-20.854 6.2034-35.535-0.72783-35.368-16.698 0.11876-11.365 7.6478-20.649 9.7937-12.077 0.54977 2.1967 2.4534 3.6792 4.754 3.7035 3.9591 0.0415 6.4504-2.3216 17.147-16.264 18.721-24.401 49.625-10.433 41.443 18.731-2.976 10.608-27.839 35.35-41.919 41.71-9.5877 4.3308-12.781 8.8504-6.2994 8.9182 9.3417 0.0978 27.337-7.3876 37.869-15.754 23.371-18.567 38.692-20.903 57.871-8.823 10.398 6.5492 13.439 6.926 16.143 1.9983 4.4285-8.0703 14.629-1.0374 14.514 10.007-0.0312 2.9629-1.4515 6.8956-3.1554 8.7393-5.1794 5.604-1.0785 6.8212 18.087 5.3669 24.809-1.8825 38.461-10.214 47.172-28.791 6.2264-13.279 14.739-22.901 26.363-29.796 15.863-9.4092 17.84-11.303 19.264-18.476 2.3993-12.09 9.8143-1.908 9.6985 13.318-0.13772 18.226-18.236 43.169-37.024 51.027-5.5655 2.3278-11.771 4.9345-13.79 5.7932-2.0189 0.85868-5.1137 2.0067-6.878 2.5502-16.534 5.0939 37.616 5.6123 56.851 0.54429 18.041-4.7534 30.358-14.649 38.383-30.839 5.415-10.925 13.401-18.44 26.442-24.878 6.6542-3.2848 9.8475-6.222 11.872-10.928 4.919-11.435 13.834-2.6545 13.592 13.387-0.34576 23-34.011 52.97-59.439 52.915-1.7586-4e-3 -3.2084 0.86827-3.2201 1.9412-0.029 2.7754 67.377 0.99951 80.884-2.1315 14.454-3.3504 19.287-6.9207 24.851-18.362 6.5291-13.424 12.753-18.955 28.144-25.004 9.8459-3.8695 13.85-6.4974 16.009-10.517l2.8776-5.3631 3.3762 4.2593c14.115 17.809-5.6752 42.845-40.853 51.686-4.4663 1.1225-8.5058 3.1535-8.9753 4.5143-0.95936 2.7806 29.189 1.85 39.213-1.2104 47.23-14.419 78.293-15.014 121.28-2.3219 22.767 6.7222 23.197 6.723 30.177 0.099 11.164-10.596 26.505-3.9148 26.344 11.472-0.14412 13.817-14.042 19.16-24.939 9.5881-7.061-6.2023-8.548-6.0567-60.185 5.915-15.841 3.6725-32.185 4.1452-46.056 1.336-4.8126-0.97465-14.085-2.8352-20.604-4.1375-6.5184-1.3023-17.928-3.9568-25.354-5.896-22.358-5.8385-45.327-4.1259-24.813 1.8499 20.882 6.083 36.26 34.62 25.35 47.038-4.7168 5.3689-7.7957 4.7402-10.315-2.1011-0.85109-2.3112-5.8949-6.7516-11.206-9.866-11.061-6.4865-17.173-12.702-23.584-23.995-9.2878-16.36-13.155-17.636-56.623-18.632-34.971-0.80163-51.1 1.3566-32.201 4.3087 30.403 4.7494 56.973 39.484 44.945 58.754-4.6822 7.5016-9.3681 7.4366-12.808-0.17507-2.0037-4.4334-5.8221-7.5221-15.157-12.26-11.495-5.8346-13.23-7.5276-22.027-21.483-14.983-23.767-26.749-28.579-70.874-28.985-26.201-0.24133-30.847 1.4381-16.721 6.0444 16.952 5.5279 40.566 24.381 44.774 35.749 6.4781 17.503 4.3481 37.2-4.2554 39.353-4.47 1.1191-5.4614-0.07-5.3935-6.4936 0.0842-8.0477-2.5737-11.575-13.581-18.027-10.129-5.9367-14.645-11.179-28.494-33.065-10.737-16.969-17.715-20.369-42.338-20.626l-18.807-0.19796 0.944 8.7507c1.294 12-2.4631 15.359-9.6108 8.5946-6.4664-6.1199-8.5211-5.9586-16.82 1.3246-19.19 16.841-30.346 16.011-60.292-4.4762-11.282-7.7184-19.73-12.052-26.663-13.68-16.203-3.8046-16.138 0.21348 0.15973 9.6376 35.376 20.457 50.897 56.202 30.477 70.188-14.055 9.6267-33.943-1.5942-47.202-26.629-4.3013-8.1216-12.329-8.3644-12.412-0.37682-0.0914 8.7695-9.4836 3.8561-11.902-6.2271-4.7875-19.957 16.605-30.824 39.308-19.964 22.756 10.885 12.559-5.5368-11.023-17.753-25.959-13.447-39.664-14.519-50.761-3.9738-6.4064 6.0882-13.21 8.3287-19.142 7.7192-0.82494 4.4194-3.6285 9.769-8.6555 15.739-8.6557 10.28-5.9079 31.232 7.7421 59.059 9.3427 19.046 15.452 20.341 10.985 2.3256-5.4074-21.806 2.2743-34.691 19.58-32.845 11.924 1.2719 16.726 6.1697 10.726 10.936-4.9974 3.9696-4.7795 5.938 1.1761 10.673 26.715 21.24 30.808 43.849 9.5043 52.489-16.867 6.841-53.092-20.932-62.629-48.013-1.3355-3.7923-4.8879-4.3386-4.9253-0.75745-0.13835 13.186 10.832 36.903 19.652 42.482 12.292 7.7759 15.229 38.814 5.3022 56.048l-4.9939 8.6708 4.0347 3.8406c9.9971 9.5112-7.8152 22.221-19.013 13.566-7.3492-5.6806-8.6811-3.8919-7.7039 10.365 1.92 28.01 10.727 42.511 32.544 53.581 14.065 7.1368 21.01 13.629 30.721 28.711 8.0171 12.451 10.858 14.866 17.566 14.936 8.7577 0.0917 1.6961 9.7028-9.5008 12.93-21.993 6.3391-65.372-30.804-65.111-55.751 0.0195-1.1444-1.4197-1.7783-3.182-1.4121-1.7625 0.36611-3.0219 1.6095-2.7978 2.7634 0.2243 1.154 1.1042 12.213 1.9564 24.577 2.4464 35.488 11.253 53.193 31.855 64.034 14.77 7.7722 21.571 13.901 27.044 24.376 3.5607 6.8149 7.0292 10.638 11.849 13.056 8.3893 4.2087 8.7027 8.4909 1.0771 14.772-6.9464 5.7218-15.53 6.0019-24.969 0.81454-3.7285-2.0489-7.9785-3.7413-9.4435-3.753-8.7711-0.0917-34.431-39.966-34.291-53.288 0.0195-1.0372-0.79941-1.8915-1.8042-1.9031-1.0048-0.0112-1.828 0.59752-1.827 1.3512 1e-3 0.75372 0.65539 16.895 1.454 35.867 1.9703 46.809 5.3164 57.081 21.289 65.354 11.799 6.1121 19.708 14.574 26.336 28.174 2.5662 5.2656 6.2704 11.36 8.2293 13.543 8.5827 9.5657-1.1132 17.166-16.805 13.174-15.895-4.0444-23.631-13.793-31.01-39.076-13.479-46.179-7.8322 10.503 6.7866 68.129 5.9022 23.266 3.9709 42.453-9.0398 89.84-3.0246 11.015-2.6226 13.985 2.9536 21.806 6.9669 9.7716-0.66417 27.146-11.872 27.029-12.142-0.12712-18.358-14.007-11.51-25.7 3.9212-6.6957 3.4984-16.686-1.8307-43.091-5.9695-29.579-6.2261-61.72-0.70801-88.489 1.9638-9.5262 5.0923-24.703 6.9542-33.728 1.8617-9.0248 2.9952-17.477 2.5196-18.78-1.423-3.9024-4.8169-1.4492-6.0749 4.3887-3.9583 18.372-30.788 35.118-43.072 26.884-5.7228-3.8359-5.7717-7.2381-0.15202-10.837 2.4025-1.5385 7.1705-8.2307 10.593-14.867 5.577-10.814 7.5248-12.821 18.784-19.351 18.145-10.524 19.042-13.676 20.897-73.374 0.61018-19.644-3.681-31.229-5.4355-14.673-0.80897 7.6327-11.626 27.839-17.17 32.076-17.822 13.618-18.849 14.139-27.778 14.045-7.1312-0.0747-9.9644-1.1097-14.563-5.306l-5.7095-5.2108 6.2271-3.597c4.2779-2.4702 8.1773-7.38 12.439-15.667 6.8141-13.25 13.98-20.329 28.898-28.544 13.372-7.3633 16.502-14.293 19.629-43.506 4.1385-38.66 1.8074-47.302-7.7267-28.669-14.356 28.056-38.005 41.865-59.991 35.026-13.034-4.0542-13.975-8.7946-2.1049-10.597 5.6768-0.8618 7.9027-2.5771 12.751-9.8203 8.3685-12.502 14.428-18.345 30.591-29.495 22.592-15.585 28.814-28.335 26.439-54.19l-1.0352-11.244-9.8089 0.71179c-11.675 0.84521-14.71-2.6972-8.1607-9.5234 5.2882-5.5122 4.9956-10.013-1.1457-17.657-14.828-18.458-14.592-31.738 0.93641-52.676 11.556-15.581 19.806-34.199 19.918-44.949 0-0.47612-2.0613 0.45863-4.5905 2.0783-2.5292 1.6196-4.6111 3.8039-4.6209 4.853-0.0273 2.6351-12.569 18.582-22.815 29.008-16.946 17.244-37.128 20.512-48.652 7.8791-10.506-11.516 1.2724-36.662 21.548-46.003 11.163-5.1429 13.327-10.665 5.3973-13.775-12.122-4.7546 2.0059-16.99 14.635-12.675 16.203 5.5363 19.497 22.977 8.2291 43.594-6.9355 12.69-5.5703 14.207 4.6513 5.1652 11.181-9.8904 22.738-34.048 24.155-50.487l1.1646-13.512-7.4527-8.7964c-4.7357-5.5889-7.2894-10.006-7.6431-13.627-3.9941-1.209-8.6257-3.8718-13.71-8.1531-10.28-8.6558-31.236-5.9117-59.063 7.7382-19.046 9.3429-20.337 15.452-2.3218 10.985 21.806-5.4074 34.691 2.2744 32.845 19.58-1.272 11.924-6.1698 16.73-10.936 10.73-3.9696-4.9973-5.9379-4.7832-10.673 1.1724-21.24 26.715-43.849 30.812-52.489 9.5082-6.841-16.867 20.928-53.096 48.009-62.633 3.7924-1.3356 4.3387-4.8879 0.75751-4.9254-13.186-0.13819-36.899 10.835-42.479 19.656-7.776 12.292-38.817 15.225-56.052 5.2984-9.003-8.3832-8.5268-1.5417-12.511-0.9592-4.8733 0.36104-9.0007-4.669-9.562-9.013-0.66052-5.1118 6.7748-8.1608 8.1867-13.118zm16.99-6.3676c0.04873 1.6863 1.8648 3.3028 5.4583 5.1005 14.789 7.3982 23.453 5.7124 24.574-4.7845 1.0625-9.9577-12.574-13.155-24.874-5.8313-3.4831 2.0739-5.2057 3.8291-5.1576 5.5154zm172.54-169c-0.0936 8.9582 11.94 15.671 17.802 9.9307 4.9113-4.8096 0.2635-27.33-6.5278-31.627-2.3002-1.4551-11.211 15.693-11.274 21.696zm1.5567 334.31c-0.0195 4.1429 1.2541 8.9454 4.0006 13.558 4.1477 6.9664 7.0203 6.8825 10.616-0.3045 7.3982-14.788 5.7087-23.45-4.7883-24.57-6.2236-0.66409-9.8044 4.4113-9.828 11.316zm1.9755-170.07c1.3242 4.9616 1.9371 9.3241 1.8422 12.949 4.2502-1.1985 8.0627-1.869 11.377-2.0402-1.0613-3.234-1.4412-6.9497-0.95532-11.008-3.6155 0.92489-7.7599 1.0337-12.264 0.099zm164.89 6.2195c0.0371 1.951 0.69261 3.8025 2.1277 5.268 4.8097 4.9114 27.33 0.25979 31.627-6.5316 1.4552-2.3001-15.693-11.208-21.696-11.271-6.7186-0.0704-12.172 6.6811-12.058 12.534z" fill="#00000033"/>
</svg>
