<svg xmlns="http://www.w3.org/2000/svg" viewBox="0 0 1600 1600">
  <path fill="#00000033" d="m159.7 159.71c-21.341 21.721-13.901 63.6 24.02 70.453 4e-3 0.896 0.495 102.96-0.811 103.63-11.722 6.284-18.374 19.532-19.309 32.475-13.618-4.367-25.677 6.617-22.995 22.652 1.436 1.495 37.549 2.804 41.362 82.445-16.015 3.141-19.272 6.942-26.622 11.679-25.597-28.691-49.204-93.033-79.071-87.921-13.115 2.604-15.815 14.726-13.937 20.98 6.572 29.358 63.049 49.187 87.771 72.375-5.282 7.666-9.604 16.115-11.263 25.356-75.201-1.714-81.444-40.128-82.119-41.023-20.497-2.653-25.249 14.547-22.17 23.634-20.718-0.366-37.449 20.318-34.141 27.425 4.834 14.288 19.989 22.857 34.508 23.625-4.981 13.622 7.472 26.626 22.055 22.671 2.106-6.231 4.772-12.503 9.582-17.164 16.932-16.653 48.243-22.855 72.286-23.649 1.348 9.234 5.194 18.028 11.143 25.217-10.646 12.251-41.452 26.117-68.275 46.994-37.544 27.658-14.465 60.189 13.797 40.619 20.905-14.415 41.02-61.72 60.114-81.886 7.275 6.477 16.523 10.27 26.065 11.849-1.244 30.456-10.861 75.698-40.844 82.089-3.336 20.499 13.051 25.952 22.86 22.673 0.523 13.473 8.112 26.852 20.131 33.269 0.03 109.89 0.045 102.53-0.316 104.42-3.086 0.973-6.331 1.431-9.338 2.656-38.604 15.406-32.59 71.459 6.522 79.356 10.776-0.071-24.634 27.829-30.015 36.887 0.686 9.161-1.85-15.359 31.493 300.7 0.644 4.924 0.243-17.479 0.382 365.12l1.328 0.701h11.383c-0.176-424.64-9.679-247.02 34.564-667.04-11.459-11.592-22.863-23.25-34.356-34.812 0.114-1.581 2.126-1.211 3.235-1.711 41.898-8.593 44.198-71.011-0.71-81.204-2.209-0.012-1.527 6.348-1.439-105.82 10.9-8.238 18.604-20.144 17.776-32.334 17.852 2.521 25.761-6.657 23.852-22.603-30.142-7.354-40.907-51.759-41.008-82.7 9.065-1.61 17.877-5.235 24.89-11.306 16.234 14.844 40.769 74.673 67.493 85.835 8.556 3.876 21.629 2.561 25.726-10.471 9.072-29.916-63.723-57.723-87.457-80.866 5.997-7.403 10.192-16.228 11.62-25.686 19.897 0.332 47.548 5.845 63.109 15.947 17.624 11.038 17.267 21.565 19.419 24.956 16.379 3.292 26.925-8.932 22.62-22.85 16.004-0.978 32.745-11.463 34.953-25.817-2.202-13.483-20.082-25.114-34.724-25.035 2.255-7.151-0.088-15.517-5.842-20.328-4.863-3.899-11.373-3.821-17.265-3.55-2.734 8.982-4.223 15.217-16.732 23.969-27.024 17.552-58.308 16.403-65.598 17.829-1.7-9.295-5.371-18.42-11.76-25.504 14.196-18.228 89.151-46.912 87.852-76.939-1.732-17.551-16.535-18.54-23.501-16.255-27.695 8.875-52.586 70.474-69.901 87.176-7.296-5.509-15.692-9.679-24.794-11.073 0.13-30.725 10.565-76.786 40.894-82.475 2.926-18.2-9.92-26.718-23.435-23.13-0.755-14.825-9.293-27.102-18.351-32.368 0.184-34.665-0.121-69.329 0.189-104 9.063-1.458 16.516-5.511 22.14-11.098 5.587-5.624 9.64-13.076 11.098-22.14 34.666-0.31 69.33-4e-3 104-0.189 5.266 9.058 17.543 17.596 32.368 18.35-3.588 13.514 4.929 26.36 23.13 23.435 5.689-30.329 51.75-40.764 82.475-40.894 1.394 9.102 5.564 17.498 11.073 24.794-16.702 17.315-78.301 42.206-87.176 69.901-2.286 6.966-1.296 21.769 16.255 23.501 30.026 1.299 58.711-73.656 76.939-87.852 7.084 6.389 16.209 10.059 25.504 11.76-1.426 7.29-0.277 38.573-17.829 65.598-8.752 12.509-14.987 13.998-23.969 16.732-0.271 5.892-0.349 12.402 3.55 17.265 4.811 5.755 13.178 8.098 20.328 5.842-0.079 14.642 11.552 32.522 25.035 34.724 14.354-2.208 24.839-18.949 25.817-34.953 13.918 4.306 26.142-6.241 22.85-22.62-3.391-2.152-13.919-1.795-24.956-19.419-10.102-15.561-15.615-43.212-15.947-63.109 9.458-1.428 18.283-5.623 25.686-11.62 23.143 23.734 50.95 96.529 80.866 87.457 13.033-4.097 14.347-17.17 10.471-25.726-11.162-26.724-70.991-51.26-85.835-67.493 6.071-7.013 9.696-15.825 11.306-24.89 30.94 0.1 75.345 10.865 82.7 41.008 15.945 1.908 25.124-6 22.603-23.852 12.191 0.828 24.096-6.876 32.334-17.776 112.17-0.089 105.81-0.771 105.82 1.438 10.194 44.908 72.611 42.608 81.204 0.71 0.5-1.108 0.13-3.12 1.711-3.234 11.562 11.493 23.221 22.897 34.812 34.356 420.03-44.243 242.4-34.74 667.04-34.564v-11.383l-0.701-1.328c-382.6-0.139-360.19 0.263-365.12-0.382-316.06-33.343-291.54-30.807-300.7-31.493-9.057 5.38-36.958 40.79-36.887 30.015-7.897-39.112-63.95-45.125-79.356-6.522-1.226 3.007-1.683 6.253-2.656 9.338-1.883 0.36 5.472 0.345-104.42 0.316-6.417-12.019-19.796-19.607-33.269-20.131 3.279-9.809-2.174-26.196-22.673-22.86-6.391 29.983-51.633 39.6-82.089 40.844-1.578-9.542-5.372-18.79-11.849-26.065 20.166-19.094 67.472-39.209 81.886-60.114 19.57-28.262-12.961-51.341-40.619-13.797-20.877 26.823-34.743 57.63-46.994 68.275-7.188-5.95-15.983-9.795-25.217-11.143 0.794-24.043 6.996-55.354 23.649-72.286 4.661-4.81 10.933-7.475 17.164-9.582 3.956-14.583-9.048-27.036-22.671-22.055-0.768-14.519-9.337-29.674-23.625-34.508-7.107-3.308-27.791 13.423-27.425 34.141-9.087-3.08-26.287 1.672-23.634 22.17 0.895 0.675 39.309 6.918 41.023 82.119-9.241 1.659-17.69 5.982-25.356 11.263-23.187-24.722-43.017-81.199-72.375-87.771-6.254-1.878-18.377 0.821-20.98 13.937-5.112 29.867 59.23 53.474 87.921 79.071-4.737 7.35-8.538 10.606-11.678 26.622-79.641-3.813-80.951-39.926-82.445-41.362-16.034-2.682-27.019 9.377-22.652 22.995-12.943 0.935-26.192 7.587-32.476 19.309-0.664 1.306-102.73 0.815-103.63 0.811-6.853-37.919-48.733-45.36-70.453-24.019zm52.6 347.56c7.952 11.959 4.612 31.04-10.191 38.734-32.421 15.597-56.248-28.551-27.309-47.536 11.587-7.647 29.098-4.364 37.5 8.802zm286.16-332.46c18.984-28.939 63.132-5.112 47.535 27.309-7.694 14.804-26.775 18.143-38.734 10.191-13.166-8.402-16.449-25.913-8.801-37.5z"/>
</svg>
