<svg xmlns="http://www.w3.org/2000/svg" viewBox="0 0 1600 1600">
  <g fill="#00000033" transform="rotate(-90 799.26 821.92)">
    <path d="m22.62 45.721c259.47 0.874 1566.8 1.386 1572.4 1.682 0.288 57.553-0.721 1379.2-1.992 1576.3h23.979c1.048-135.85 2.375-1426.8 4.133-1596.5 1.161-5.244-1105-3.177-1598.6-4.538z"/>
    <path d="m1550.4 162.62c-19.29-1.44-38.48 2.99-56.62 9.21 0.49 1.72 0.98 3.43 1.46 5.15 7.8-0.67 15.74-1.01 23.47 0.4 15.92 3.43 31.15 10.73 43.1 21.87 4.43 4.29 8.13 9.25 11.85 14.13-0.452-31.982 4.445-48.812-23.26-50.76z"/>
    <path d="m1572 90.332c1.02-7.04 1.22-14.19 0.87-21.3-6.85 0.12-13.73 0.01-20.54 0.8-14.979 1.409-25.432 24.891-47.06 54.94-7.68 10.09-16.04 19.63-24.02 29.48 1.83 1.94 3.7 3.83 5.58 5.71 5.29-3.51 9.9-7.87 14.73-11.94 26.545-23.846 67.165-39.051 70.44-57.69z"/>
    <path d="m1572.5 133.65c-1.09-3.86-4.61-7.26-8.78-7.27-9.72-0.14-18.51 4.56-26.93 8.85-12.93 6.85-25.89 13.73-38.02 21.94-3.41 2.31-7.31 4.15-9.99 7.37-0.31 1.54 0.68 3.17 2.11 3.74 3.36-1.06 6.32-3.04 9.54-4.41 34.515-14.334 50.272-10.572 65.63-18.34 4.14-2.18 7.58-7.06 6.44-11.88z"/>
    <path d="m1571.7 1623c0.752-101.21 1.336-1318.2 1.464-1345.7 0.38-16.58-2.32-33.53-9.97-48.39-4.54-8.98-11.96-16.1-19.73-22.31-10.7-8.55-24.22-12.49-37.54-14.64-16.04-1.87-32.93 1.45-46.66 10.11 4.74 5.1 9.45 10.24 14.54 15 4.82-1.89 9.52-4.29 14.7-4.95 19.624-2.486 39.952 6.854 50.27 19.16 4.51 5.44 8.78 11.29 10.98 18.09 4.69 15.496 5.057 1136 3.208 1373.6z"/>
    <path d="m1472.2 344.8c9.1 6.51 19.5 11.32 30.48 13.56 7.25 1.58 15.57 2.5 21.97-2.06 11.255-6.371 6.047-22.828 6.99-38.49-15.02 16.371-37.568 16.511-58.9 10.31-19.635-6.362-34.741-24.623-38-27.37 2.72 7.22 7.57 13.33 12.1 19.47 7.16 9.43 16.14 17.25 25.36 24.58z"/>
    <path d="m1480.7 474.48c-1.66 0.47-3.78 0.25-4.99 1.74 6.55 8.42 18.23 10.84 28.33 9.33 16.65-2.99 28.76-19.66 28.31-36.27 1.353-33.018-40.421-71.741-65.62-92.99-16.02-13.62-29.34-30.41-38.67-49.27-6.76-12.27-9.49-26.17-11.22-39.92-2.64-0.28-5.29-0.55-7.96-0.78-6.693 75.26 71.26 134.02 83.57 174.31 5.116 13.227 2.078 31.968-11.75 33.85z"/>
    <path d="m1523.7 295.13c12.459-19.018 6.235-47.668-15.1-56.74-13.104-6.657-33.675-2.803-39.42 14.21-2.58 6.43-0.56 14.21 4.21 19.08 3.63 3.64 8.94 4.23 13.8 4.43-1.25-2.61-3.02-5.04-3.7-7.89-0.958-12.024 15.216-16.399 22.53-8.13 12.813 16.44-1.382 35.306-17.44 36.84-18.38 1.7-36.34-12.21-40.25-30.06-2.47-11.57 0.03-24.3 7.38-33.68-4.62-4.35-8.72-9.36-13.99-12.95-5.995 2.414-21.051 30.385-8.61 60.71 13.752 36.547 68.075 49.126 90.59 14.18z"/>
    <path d="m1478.4 152.02c3.96-5.21 7.08-11.01 10.53-16.56 13.613-24.588 26.719-42.987 26.44-58.24 0.022-9.945-14.669-12.808-20.04-0.36-5.42 11.93-5.83 25.29-9.24 37.8-3.37 12.47-7.55 24.83-13.81 36.16 1.82 0.79 4.59 3.74 6.12 1.2z"/>
    <path d="m1472.1 170c3.39 3.1 4.49 7.67 6.22 11.74 3.83-0.33 7.51-1.59 11.21-2.52-3.042-13.689-11.056-22.787-26.94-27.14-1.13 3.7-2.12 7.45-3.08 11.2 4.47 1.64 9.27 3.11 12.59 6.72z"/>
    <path d="m1428.7 67.902c1.88 1.64 3.82 3.17 5.78 4.68 17.587 12.917 33.946 41.388 30 74.57 1.81 0.38 3.6 0.75 5.38 1.11 5.04-17.56 10.06-35.53 9.54-53.97-0.823-24.613-11.543-26.098-24.61-26.4-8.69 0.16-17.4-0.23-26.09 0.01z"/>
    <path d="m1405.9 175.33c1.038 1.282 58.385 58.985 59.57 60.17 3.43-3.69 6.9-7.35 9.94-11.37-3.04-3.013-53.992-54.244-58.42-58.38-3.9 2.95-7.61 6.13-11.09 9.58z"/>
    <path d="m1451.3 194.89c1.93 1.3 3.81-0.83 5.51-1.58 5.22-3.49 10.84-6.3 16.38-9.22-1.805-8.768-4.433-13.763-16-16.62-3.13 7.43-7.7 14.07-11.98 20.85 1.45 2.63 3.59 4.92 6.09 6.57z"/>
    <path d="m22.62 67.301v18.635c244.6 0.903 1358.1 0.976 1366.5 4.016 23.822 7.141 39.247 28.4 40.97 53.28 0.61 8.37-2 16.4-5.09 24.04 4.8 5.03 9.32 10.38 14.66 14.85 23.55-38.581 6.143-89.097-30.22-105.56-14.61-6.53-30.78-8.81-46.69-8.49-0.453-2e-3 -1228-0.378-1340.2-0.771z"/>
    <path d="m1419 243.62c4.32-10.28 8.71-20.63 15.35-29.67-2.21-2.53-4.24-5.57-7.47-6.86-7.7 3.225-5.16 5.098-28.88 13.79 0.12 3.02 0.08 6.13 1.07 9.02 5.316 11.294 14.624 12.38 19.93 13.72z"/>
    <path d="m1383.4 113.64c-25.15-9.157-49.475 5.954-55.75 27.51-5.9 19.33 0.86 41.2 14.75 55.47 21.21 19.67 56.89 21.97 79.69 3.7-4.64-4.52-8.58-10.23-14.35-13.3-6.55 2.77-13.05 6.09-20.29 6.61-19.99 2.43-39.92-13.18-42.86-32.98-4.249-20.802 18.604-39.368 35.21-27.51 5.23 3.76 7.69 11.29 5.06 17.26-1.99 3.35-5.1 6.63-9.16 7.16-3.99 0.46-7.25-2.26-10.47-4.17 0.03 3.35 0.01 6.86 1.5 9.96 3.62 7.7 13.34 11.29 21.34 9.2 26.055-7.925 24.447-47.709-4.67-58.91z"/>
    <path d="m1416.2 263.13c0.98-4.78 1.78-9.58 2.7-14.36-6.24-0.85-12.84-2.49-17.28-7.3-5.5-4.89-7.93-12.06-8.92-19.15-4.88 0.82-9.78 1.49-14.67 2.31 0.246 14.486 11.294 34.963 38.17 38.5z"/>
    <path d="m1347.6 441.44c24.1 12.291 48.555 2.894 61.21-21.14 11.442-25.023 2.877-51.513-5.04-79.09-7.654-36.377-7.386-45.497-0.15-77.38-1.2-0.29-2.42-0.58-3.69-0.7-5.02 4.55-6.65 11.38-8.66 17.58-12.529 42.104-8.682 55.432-8.82 76.53 0.803 16.458 0.499 46.75-15.35 51.33-13.956 3.413-21.822-11.539-16.25-19.28 2.08-3.52 6.06-5.03 9.38-7.06-2.64-1.31-5.34-2.96-8.41-2.84-9.11 0.45-17.45 6.63-21.05 14.94-8.579 17.428 0.386 38.558 16.83 47.11z"/>
    <path d="m1220.4 417.59c5.61-0.05 9.68-4.25 14.68-6.09 11.875-4.735 31.599-3.921 50.51-23.47 27.528-29.726 20.999-28.022 51.02-66.01 9.83-13.69 20.22-26.97 31.45-39.54 7.37-8.45 14.11-17.46 22.08-25.37-2.06-2.32-4.25-4.51-6.46-6.69-8.002 6.723-38.379 32.298-47.13 38.56-43.462 34.14-69.438 44.849-92.34 71.7-14.449 15.891-12.197 35.942-20.64 48.37-1.75 2.54-2.76 5.48-3.17 8.54z"/>
    <path d="m1337.4 355.59c1.27 7.29 12.23 9.92 16.6 3.89 8.004-11.812 4.961-29.107 23.7-69.23 1.84-4.48 4.61-8.62 5.45-13.46-5.17 2.76-7.45 8.49-11.16 12.74-7.435 10.822-36.187 51.748-34.59 66.06z"/>
    <path d="m1231.8 311.05c6.22 0.02 12.16-2.34 17.54-5.23 5.59-4.19 10.21-10.43 10.94-17.53 0.4-3.37-0.74-6.63-1.94-9.71-3.26 4.92-6.67 11.64-13.6 11.34-8.4 0.69-15.27-7.35-14.6-15.44 2.832-24.455 55.099-16.598 82.48-16.67 22.64-1.45 45.2-6.47 66.01-15.59-0.81-1.67-1.62-3.33-2.42-5-8.19 1.96-16.5 3.3-24.84 4.44-50.094 5.124-84.607-26.225-127.35-13.14-17.93 5.87-32.04 23.55-31.4 42.78 1.879 26.968 22.057 40.468 39.18 39.75z"/>
    <path d="m1374.5 231.94c-0.45-3.04 0.67-8.59-3.74-8.78-10.375-2.018-23.42-1.615-49.18-17.67-41.424-26.7-43.933-48.731-81.96-78.05-11.27-8.4-23.19-16.89-37.24-19.7-19.421-4.413-40.112 3.97-46.78 23.33-2.54 10.81-1.34 24.44 8.29 31.5 1.75-3.95 1.96-8.75 5.36-11.8 21.096-22.071 61.363 13.327 79.68 26.33 10.177 6.741 50.506 44.638 97.21 52.89 9.36 1.39 18.9 3.18 28.36 1.95z"/>
    <path d="m1280.2 285.64c-3.45 2.61-3.62 7.61-2.27 11.38 1.7 4.11 6.53 6.04 10.74 5.31 6.42-1.05 12.16-4.28 17.89-7.16 19-9.28 36.55-21.19 53.82-33.31 1.79-0.98 2.56-2.88 3.11-4.72-3.87 1.14-7.49 2.96-11.15 4.63-43.506 20.363-61.651 15.473-72.14 23.87z"/>
    <path d="m1303.8 108.13c-4.2 0-8.69-0.41-12.59 1.54-14.285 7.248-9.831 26.532-4.13 41.42 8.822 23.18 37.415 48.88 53.43 54.4-4.18-3.8-8.84-7.12-12.39-11.58-7.42-8.85-13.98-18.74-16.82-30.07-2.75-11.86-3.44-24.44-0.12-36.26 2.38-7.11 6.83-13.33 12.06-18.62-6.45-0.78-12.95-0.59-19.44-0.83z"/>
  </g>
</svg>
