<svg version="1.1" viewBox="0 0 2500 2500" xmlns="http://www.w3.org/2000/svg">
  <path d="m1570 114.28c14.484 1.15 31.753 13.733 29.904 38.55-4.076 29.204-45.411 42.908-64.39 8.953-60.887 0.023-552.72 0.07-570.26-5e-3 -27.832 38.034-75.373 49.897-122.5 48.848-188.41-16.504-324.39-190.19-564.55-180.68-12.405 1.477-120.69-1.462-189.03 59.234-45.424 41.404-65.484 106.15-61.721 144.66 0.217 0.01 0.653 0.025 0.87 0.035 51.399-101.17 227.92-226.04 543.64-76.517 135.2 63.962 191.68 126.93 292.9 97.933-1.679 25.013-13.99 55.741-38.53 68.385-72.201 37.641-159.09-74.811-182.9-91.294-1.483-0.638-1.122 1.241-0.386 1.804 54.828 66.486 14.788 80.583 55.398 224.16-29.004-2.803-60.919-17.49-81.97-43.306-32.437-40.102-27.109-92.657-63.669-152.85-15.401-24.711-35.538-40.752-52.427-47.473 1.374 4.069 11.821 22.147 20.842 53.51 32.011 109.77-2.926 219.62-99.243 259.84-179.04 73.343-316.57-170.41-182.59-276.35 44.759-34.819 103.21-25.714 123.82 4.652 1.177 1.622 1.933 3.614 3.653 4.761 3.947-30.783-51.188-65.948-114.72-47.226-133.52 38.729-176.48 279.28-57.781 398.26 37.569 38.612 108.46 68.479 155.74 44.547 37.729-18.193 36.345-57.937 82.464-62.804 50.859-2.762 60.299 60.605 15.711 84.303-1.285 0.771-2.966 1.29-3.51 2.857 45.051-7.765 113.14-47.815 140.67-83.839 0.227-0.01 0.682-0.025 0.91-0.035 7.572 30.333 4.551 51.561 4.4 59.704 112.28-37.721 176.69 18.498 183.16 80.517 4.285 27.057-10.172 78.192-48.813 77.007-20.185 0.526-39.847-15.404-22.592-20.195 4.961-1.56 21.982 0.958 33.003-13.669 12.263-15.829 8.734-42.279-11.192-55.245-81.238-55.269-219.38 181.19-317.39 103 1.605 33.196-21.494 52.222-45.521 57.9 0.985-18.135 11.204-21.631-71.109-71.475-41.334-25.625-78.848-60.584-105.69-95.881-1.216-1.518-2.121-3.505-4.118-4.158 2.368 11.689 28.835 46.189 37.957 57.296 77.732 94.629 135.38 128.73 110.53 239.42-5.01 21.531-9.577 30.999-10.718 34.833-26.039-8.894-36.121-24.603-42.545-44.893-0.267-0.114-0.801-0.341-1.068-0.455-2.119 28.557-23.403 53.529-50.736 59.704-0.044 192.24-0.025 384.47-0.01 576.71 26.042 15.283 21.042 52.749-5.947 61.592-39.741 13.052-63.559-43.46-24.535-63.071-0.076-291.08 0.056-576.28-0.084-578.03-1.127-1.33-2.828-1.953-4.232-2.951-31.744-22.205-21.901-58.788-18.573-64.816 0.292 2.645-0.049 5.314 0.143 7.974 2.471 42.13 54.133 40.518 72.681 11.672 7.151-10.145 11.674-30.452 12.779-43.336 4.945-136.14-166.13-250.62-168.05-515.98-50.475 1.288-93.797-52.655-83.018-141.53 4.311-34.4 7.397-23.027 3.915-34.64-24.828-73.552 4.746-155.42 56.308-198.1 62.957-55.492 182.37-83.424 297.44-66.126 23.872 3.442 70.315 15.723 122.87 5.596 25.755-4.835 52.649-15.503 78.341-15.518 50.249-1.172 90.939 19.305 118.68 15.933 2.333-0.198 4.657-0.539 6.99-0.593-7.231 14.591-29.066 41.682-62.982 50.919-18.17 5.006-32.105 2.906-35.03 3.179 1.582 1.463 3.658 2.155 5.581 3.03 81.401 34.931 103.57-63.977 222.57-14.129-12.177 50.281-48.884 83.149-111.48 78.129-4.805-0.45-9.551-1.364-14.341-1.963 3.68 4.373 80.086 46.006 149.83 40.829 35.437-2.328 82.418-11.496 80.808-47.004-2.457-15.512-12.066-19.603-15.36-29.662-8.804-26.231 43.123-40.365 60.757 11.029 2.229 6.946 4.331 14.084 4.192 21.455 31.06 0.01 537.77 0.073 562.95-0.04 5.983-10.829 16.301-17.274 32.882-16.903m-1546.1 211.38c-10.096 66.063 36.85 95.962 69.235 72.859 1.913-1.117 1.577-3.658 2.096-5.517 34.001-170.09 148.23-211.96 199.84-205.19 71.28 1.73 112.69 57.756 103.79 104.83-9.739 60.029-74.317 75.038-83.428 29.731-1.475-6.238-2.308-20.58 4.123-28.099 7.076-7.742 21.503-7.962 31.901-6.946-11.637-37.145-83.882-45.122-110.63 9.803-56.562 113.07 87.317 191.34 172.65 141.39 40.393-23.058 75.012-81.69 74.075-149.94-7.385-250-429.97-223.61-463.65 37.082z" fill="#00000033"/>
</svg>
