<svg xmlns="http://www.w3.org/2000/svg" viewBox="0 0 765 765">
  <g fill="#00000033">
    <path d="m342.54 52.94c1.1982-0.43744 3.9899-3.4164 5.063-4.3123 1.0731-0.89588 1.3233-0.71916 1.3753-1.063 0.052-0.34383-0.4169-0.45844-1.063-1-0.64612-0.54156-1.574-1.2804-2.8137-2.2493-1.2397-0.96894-2.958-2.3766-4.6247-3.5643-1.6667-1.1877-3.615-2.4366-5.3753-3.5617-1.7603-1.1251-3.353-2.1785-5.1863-3.189-1.8334-1.0105-4.0949-2.0617-5.8137-2.874-1.7187-0.81234-2.9466-1.3749-4.4987-2-1.5521-0.62511-3.3032-1.2402-4.8137-1.7507-1.5105-0.5105-2.9475-0.94794-4.2493-1.3123-1.3018-0.36439-2.5512-0.63473-3.5617-0.87402-1.0105-0.23928-1.3137-0.35346-2.5013-0.56168-1.1877-0.20822-3.2288-0.4895-4.6247-0.68766-1.3959-0.19816-2.2506-0.36571-3.7506-0.50131-1.5-0.13561-3.7704-0.26028-5.2494-0.31234-1.479-0.05206-2.1977 0-3.6247 0s-3.3434-0.07305-4.937 0c-1.5936 0.07305-2.7913 0.16754-4.6247 0.43832-1.8334 0.27078-4.1566 0.7489-6.3753 1.1864-2.2187 0.43744-4.8434 0.92782-6.937 1.4383-2.0936 0.5105-3.8119 1.0516-5.6247 1.6247-1.8128 0.57305-3.7414 1.2926-5.252 1.8136-1.5105 0.521-2.5612 0.83333-3.811 1.3123-1.2498 0.479-2.7292 1.1242-3.6877 1.5617-0.95844 0.43745-1.8858 1.2607-2.063 1.063-0.17717-0.19772 0.66667-1.2909 1-2.2493 0.33333-0.95844 0.82283-2.3867 1-3.5013 0.17717-1.1146 0.1566-1.9676 0.063-3.1864-0.0936-1.2187-0.25984-2.605-0.62467-4.126-0.36483-1.521-0.92869-3.4269-1.5643-5-0.63562-1.5731-1.3745-3.0009-2.2493-4.4383-0.87489-1.4374-1.979-3.0197-3-4.1864-1.021-1.1667-2.0324-1.9908-3.126-2.8136-1.0936-0.82283-2.2485-1.5608-3.4357-2.1234-1.1872-0.56255-2.4064-0.9392-3.6876-1.252-1.2813-0.31277-2.7397-0.52056-4-0.62467-1.2603-0.10411-2.4366-0.062555-3.5617 0-1.1251 0.062555-2.3762 0.14611-3.189 0.37533-0.81277 0.22922-1.1251 0.54156-1.6877 1-0.56256 0.45844-1.2607 1.1465-1.6877 1.7507-0.42694 0.60411-0.71785 1.1864-0.874 1.874-0.15618 0.68766-0.17762 1.7415-0.063 2.252 0.11461 0.5105 0.26116 0.69685 0.75066 0.81102 0.4895 0.11417 1.4156-0.10499 2.1864-0.12598 0.77079-0.020997 1.5945-0.052493 2.4383 0 0.84382 0.052494 1.885 0.17935 2.6247 0.31496 0.73973 0.13561 1.22 0.30096 1.8137 0.49869 0.59362 0.19773 1.8421 0.60411 1.748 0.68766-0.0941 0.083552-1.3644-0.1343-2.3123-0.18635-0.94794-0.052055-2.1461-0.094488-3.3753-0.12598-1.2292-0.031496-2.6461-0.09405-4-0.062992-1.3539 0.031059-2.8841 0.093176-4.1234 0.24934-1.2393 0.15617-2.3539 0.44794-3.3123 0.68766-0.95844 0.23972-1.6256 0.39633-2.4383 0.75066-0.81277 0.35433-1.7406 0.85433-2.4383 1.3753-0.69773 0.521-1.29 1.1155-1.748 1.7507-0.45801 0.63517-0.76028 1.2896-1 2.0604-0.23973 0.77078-0.40683 1.6264-0.43832 2.5643-0.0315 0.93788 0.0827 2.0735 0.24934 3.063 0.16667 0.9895 0.33377 1.9681 0.75066 2.874 0.41688 0.90595 1.0735 1.9576 1.7506 2.5617 0.67717 0.60411 1.4584 0.90682 2.3123 1.063 0.85389 0.15617 1.8841 0.08224 2.811-0.12598 0.92695-0.20822 1.7817-0.67585 2.7506-1.1234 0.96895-0.44751 2.1046-1.0201 3.063-1.5617 0.95843-0.54156 1.7292-1.0936 2.6876-1.6877 0.95845-0.59405 2.2817-1.4077 3.063-1.8766 0.78127-0.46894 1.1247-0.67673 1.6247-0.93701 0.5-0.26028 0.93788-0.479 1.3753-0.62467 0.43744-0.14567 0.937-0.22835 1.2494-0.24934 0.31233-0.021 0.86438-0.16798 0.62466 0.12336-0.23971 0.29134-1.2922 1.0411-2.063 1.6247-0.77078 0.58355-1.8325 1.2305-2.5617 1.8766-0.72924 0.64611-1.5534 1.3749-1.8137 2-0.26027 0.62511 2e-3 1.0634 0.25197 1.7507 0.25022 0.68722 0.8224 1.696 1.2493 2.3727 0.42696 0.67673 0.8539 1.3023 1.3124 1.6877 0.45843 0.38539 0.83419 0.48906 1.4383 0.62467 0.60411 0.13561 1.322 0.31365 2.1864 0.18898 0.8644-0.12467 2.0521-0.53062 3-0.93701 0.94795-0.40639 1.8438-1.0639 2.6877-1.5013 0.84382-0.43745 1.6566-0.75897 2.3753-1.1234 0.71873-0.36439 1.4165-0.79178 1.937-1.063 0.52057-0.27122 0.72791-0.4287 1.1864-0.5643 0.45843-0.13561 1.0122-0.3224 1.5643-0.24934 0.55206 0.07305 1.2275 0.21872 1.748 0.68766 0.52057 0.46894 1.094 1.3237 1.3753 2.126 0.28127 0.80227 0.33289 1.9899 0.31234 2.6877-0.0206 0.69773-0.30053 1.0822-0.4357 1.4987-0.13517 0.41645-0.56255 1.0831-0.37532 1 0.18722-0.08311 1.1448-1.0302 1.4987-1.4987 0.35389-0.4685 0.437-0.79134 0.62467-1.3123 0.18767-0.521 0.34471-1.1155 0.50131-1.8136 0.1566-0.69816 0.41733-1.5004 0.43832-2.3753 0.021-0.87489-0.0416-1.9055-0.31233-2.874-0.27078-0.9685-0.8224-2.0722-1.3124-2.937-0.48992-0.86483-0.99168-1.6059-1.6273-2.252-0.63561-0.64611-1.3635-1.1041-2.1864-1.6247-0.82283-0.52056-1.8237-1.1238-2.7507-1.4987-0.92694-0.37489-1.7279-0.52144-2.811-0.75066-1.0831-0.22922-2.5521-0.49956-3.6877-0.62467-1.1356-0.12511-2.1155-0.09449-3.126-0.12598-1.0105-0.0315-1.958-0.09449-2.937-0.06299-0.97901 0.0315-1.8535 0.09536-2.937 0.25197-1.0836 0.15661-2.5123 0.46894-3.5643 0.68766-1.0521 0.21872-1.8731 0.37489-2.748 0.62467-0.87489 0.24978-1.7926 0.61374-2.5013 0.87402-0.70866 0.26028-1.2091 0.45844-1.7506 0.68766-0.54157 0.22922-1.322 0.69816-1.4987 0.68766-0.17673-0.0105-0.0512-0.42782 0.43832-0.75066 0.4895-0.32284 1.5197-0.76991 2.4987-1.1864 0.979-0.41645 2.3128-0.91645 3.3753-1.3123 1.0626-0.39589 2.0626-0.78172 3-1.063 0.93745-0.28128 1.7603-0.42695 2.6247-0.62467 0.86438-0.19773 1.7073-0.41557 2.5617-0.56168 0.85432-0.14611 1.5643-0.24191 2.5643-0.31496 1-0.07305 2.3316-0.14436 3.4357-0.12336 1.1041 0.021 2.241 0.12424 3.189 0.24934 0.94793 0.12511 1.759 0.28259 2.4987 0.50131 0.73972 0.21872 1.1584 0.45713 1.9396 0.81102 0.78129 0.35389 1.9046 0.78084 2.748 1.3123 0.8434 0.5315 1.6457 1.2515 2.3123 1.8766 0.66666 0.62511 1.1251 1.1452 1.6877 1.874 0.56256 0.72878 1.2918 1.7069 1.6877 2.4987 0.39589 0.79178 0.5315 1.4913 0.68767 2.252 0.15616 0.76072 0.21785 1.5831 0.24935 2.3123 0.0315 0.72922 0.0437 1.3132-0.0604 2.063-0.10411 0.74978-0.27254 1.5818-0.56431 2.4357-0.29177 0.85389-0.7804 1.9269-1.1863 2.6877-0.40596 0.76072-0.1868 1.2515-1.2494 1.8766-1.0626 0.62511-3.5424 1.2178-5.126 1.874-1.5836 0.65617-0.84427 0.11505-4.3753 2.063-3.5311 1.9479-11.269 6.3329-16.811 9.6247-5.5416 3.2918-11.813 7.2511-16.438 10.126-4.6251 2.8749-8.1142 5.1444-11.312 7.1234-3.1982 1.979-5.5433 3.3653-7.8766 4.7507-2.3333 1.3854-4.0298 2.416-6.1234 3.5617s-4.157 2.1977-6.4383 3.3123c-2.2813 1.1146-5.0411 2.4794-7.2493 3.3753-2.2082 0.89588-4.2918 1.479-6 2-1.7082 0.521-3.1868 0.8657-4.2494 1.126-1.0626 0.26028-1.8342-0.06431-2.126 0.43569-0.29178 0.5 0.22966 1.6264 0.37534 2.5643 0.14566 0.93788 0.34251 2.1465 0.49868 3.063 0.15616 0.91645 0.28171 1.811 0.43831 2.4357 0.15662 0.62467-0.27995 1.2288 0.50131 1.3123 0.78129 0.08355 2.2074-0.25896 4.1864-0.81102 1.979-0.55206 5.4794-1.7305 7.6877-2.5013 2.2082-0.77078 3.4886-1.259 5.5617-2.1234 2.0731-0.8644 4.6159-1.9484 6.8766-3.063 2.2607-1.1146 3.1045-1.6352 6.6876-3.6247 3.5831-1.9895 8.8841-4.7603 14.811-8.3123 5.9269-3.5521 15.105-9.5206 20.751-13 5.6457-3.4794 9.3631-5.72 13.123-7.8766 3.7603-2.1566 6.3548-3.4694 9.4383-5.063s6.1671-3.1864 9.063-4.4987 5.7498-2.3858 8.3123-3.3753 4.4068-1.7283 7.063-2.5617c2.6562-0.83333 6.4055-1.8027 8.874-2.4383 2.4685-0.63561 3.8954-1.0109 5.937-1.3753 2.0416-0.36439 4.0411-0.62379 6.3124-0.81102 2.2712-0.18722 4.5958-0.36439 7.3149-0.31234 2.7192 0.05206 6.0941 0.23928 9 0.62467 2.906 0.38539 6.0713 1.1046 8.4357 1.6877 2.3644 0.58312 3.6566 1.0612 5.7507 1.811 2.094 0.74978 4.5844 1.6982 6.8136 2.6877 2.2292 0.9895 4.6868 2.2388 6.5617 3.2493 1.8749 1.0105 2.99 1.7511 4.6877 2.8136 1.6977 1.0626 4.0927 2.6032 5.4987 3.5617 1.4059 0.95844 2.0932 1.5429 2.937 2.189 0.84381 0.64611 0.9278 2.1251 2.126 1.6877z"/>
    <path d="m207.41 47c-0.16666 0.84383-1.864 0.94838-3.2493 1.7507-1.3854 0.80228-3.9694 2.6776-5.063 3.063-1.0936 0.38539-0.60324 0.10368-1.4987-0.75066-0.89545-0.85433-2.1553-2.6255-3.874-4.3753-1.7187-1.7498-4.3858-4.2695-6.4383-6.1234-2.0525-1.8539-4.0433-3.5726-5.8766-5-1.8333-1.4274-3.4672-2.4602-5.1234-3.5643-1.6562-1.1041-3.5534-2.2896-4.8136-3.0604-1.2603-0.77078-1.4462-0.88714-2.748-1.5643-1.3018-0.67717-3.3963-1.7279-5.063-2.4987-1.6667-0.77078-3.343-1.4799-4.937-2.126-1.594-0.64611-2.9917-1.2091-4.6273-1.7507-1.6356-0.54156-3.2909-1.0197-5.1864-1.4987-1.8954-0.479-4.332-1.021-6.1863-1.3753-1.8543-0.35433-3.2205-0.54243-4.9396-0.75066-1.7192-0.20822-3.6046-0.39458-5.3753-0.49869-1.7708-0.10411-3.4996-0.13648-5.2493-0.12598-1.7498 0.0105-3.4996 0.05337-5.2494 0.18898-1.7498 0.13561-3.4991 0.34339-5.2493 0.62467-1.7502 0.28128-3.4497 0.62555-5.252 1.063-1.8023 0.43744-3.7078 0.97856-5.5617 1.5617-1.8539 0.58312-3.7598 1.2393-5.5617 1.937-1.8018 0.69772-3.4991 1.364-5.2494 2.2493-1.7502 0.88539-3.5332 1.9589-5.252 3.063-1.7187 1.1041-3.3001 2.2388-5.0604 3.5617-1.7603 1.3228-3.9698 3.0105-5.5013 4.3753-1.5315 1.3648-2.5836 2.5219-3.6877 3.8136-1.1041 1.2918-2.1142 3.1352-2.937 3.937-0.82283 0.80184-1.0731 0.59274-2 0.87402-0.92694 0.28128-2.4261 0.53237-3.5617 0.81365-1.1356 0.28128-2.1579 0.60324-3.252 0.87402-1.0941 0.27078-2.4584 0.55249-3.3123 0.75066-0.85389 0.19816-1.8736 0.84471-1.811 0.43832 0.06255-0.40639 0.95713-1.2725 2.1863-2.8766 1.2292-1.6041 3.8141-5.0398 5.189-6.748 1.3749-1.7082 1.7375-2.126 3.0604-3.5013 1.3228-1.3753 3.3246-3.3237 4.8766-4.7507 1.5521-1.4269 2.769-2.4987 4.4357-3.811 1.6667-1.3123 3.7725-2.8648 5.5643-4.063 1.7918-1.1982 3.2074-2.0324 5.1864-3.126 1.979-1.0936 4.7397-2.5297 6.6877-3.4357 1.948-0.90595 3.1667-1.3333 5-2 1.8333-0.66667 3.9895-1.4269 6-2 2.0105-0.57305 4.0315-1.0319 6.063-1.4383s4.0114-0.71872 6.126-1c2.1146-0.28128 4.6868-0.55249 6.5617-0.68766 1.8749-0.13517 2.6461-0.18591 4.6877-0.12336 2.0416 0.062555 5.2804 0.25941 7.5617 0.49869s4.0324 0.58268 6.126 0.93701c2.0936 0.35433 4.269 0.67848 6.4357 1.189 2.1667 0.5105 3.9913 1.0201 6.5643 1.874 2.573 0.85389 6.5512 2.3224 8.874 3.2493 2.3228 0.92695 3.3338 1.458 5.063 2.3123 1.7292 0.85433 3.3749 1.699 5.3124 2.8136 1.9374 1.1146 4.2288 2.4676 6.3123 3.874 2.0836 1.4064 4.4598 3.2725 6.189 4.5643 1.7292 1.2918 2.6553 1.9156 4.1863 3.1864 1.5311 1.2708 3.4895 3.0319 5 4.4383 1.5105 1.4064 2.8548 2.7607 4.063 4 1.2082 1.2393 2.2804 2.311 3.1863 3.4357 0.90596 1.1247 2.416 2.4685 2.2493 3.3123z"/>
    <path d="m109.73 49.502c-0.32284 0.38539 0.44619 1.8014 0.74803 2.937s0.83377 2.9808 1.063 3.8766c0.22923 0.89589-0.0626 1.0717 0.31234 1.4987 0.37489 0.42694 1.1142 0.6881 1.937 1.063 0.82284 0.37489 1.8539 0.60324 3 1.1864 1.1461 0.58311 2.689 1.4996 3.8766 2.3123 1.1876 0.81277 2.2388 1.6059 3.2494 2.5643 1.0105 0.95844 1.9388 2.0717 2.8136 3.1863 0.87489 1.1146 1.6964 2.22 2.4357 3.5013 0.73927 1.2813 1.4685 2.8635 2 4.1864 0.53149 1.3228 0.80359 2.1986 1.189 3.7507 0.3854 1.5521 0.86309 3.8224 1.1234 5.5617 0.26029 1.7393 0.34427 3.1343 0.43833 4.874 0.094 1.7397 0.15704 3.8246 0.12597 5.5643-0.0311 1.7397-0.20778 3.2388-0.31233 4.874-0.10455 1.6352-0.18985 3.4055-0.31496 4.937-0.12512 1.5315-0.32153 3.2205-0.4357 4.252-0.11418 1.0315-0.74934 1.5206-0.24934 1.937s2.0726 0.46806 3.2493 0.56167c1.1767 0.0936 2.9256 0.0416 3.811 0 0.8854-0.0416 1.2095 0.063 1.5013-0.24934 0.29177-0.31233 0.0516 0.0214 0.24934-1.6247 0.19772-1.6461 0.6973-5.8666 0.93701-8.252 0.23972-2.3854 0.42826-3.8316 0.50131-6.0604 0.0731-2.2288 0.0311-4.958-0.063-7.3123-0.0941-2.3543-0.22005-4.7301-0.50132-6.8136-0.28128-2.0835-0.74891-3.9479-1.1864-5.6877-0.43746-1.7397-0.7301-3.063-1.4383-4.7507-0.70822-1.6877-1.7485-3.6881-2.811-5.3753-1.0626-1.6872-2.3561-3.4046-3.5643-4.748-1.2082-1.3434-2.3937-2.3123-3.685-3.3123s-2.563-1.8438-4.063-2.6877c-1.5-0.84383-3.4681-1.7292-4.937-2.3753-1.469-0.64611-2.4908-1.0429-3.8766-1.5013s-3.2511-0.93701-4.4383-1.2493c-1.1872-0.31234-2.3622-1.0101-2.685-0.62467z"/>
    <path d="m92.475 30.501c-0.85433-0.08311-1.5936 1.5009-2.3123 2.126-0.71872 0.62511-1.3959 1.0936-2 1.6247s-1.2808 1.0932-1.6247 1.5617c-0.34383 0.4685-0.59449 0.84296-0.43832 1.2493 0.15617 0.40639 0.65661 0.36614 1.3753 1.189 0.71873 0.82283 2.0617 2.5087 2.937 3.748 0.87533 1.2393 1.6168 2.5 2.315 3.6877s1.2388 2.1671 1.874 3.4383c0.63517 1.2712 1.3434 2.6054 1.937 4.189s1.1457 3.5521 1.6247 5.3123c0.47901 1.7603 0.88452 3.2703 1.2494 5.2493s0.68941 4.6457 0.93963 6.6247 0.39502 3.7183 0.56168 5.2493 0.29265 2.437 0.43832 3.937 0.31102 3.4689 0.4357 5.063c0.12467 1.594-0.0525 3.668 0.31233 4.5013 0.36483 0.83334 1.0954 0.49869 1.8766 0.49869 0.78127 0 1.8526-0.30096 2.811-0.49869 0.95844-0.19772 2.1374-0.55206 2.9396-0.68767 0.80227-0.1356 1.4265-0.08443 1.874-0.12598 0.4475-0.04156 0.69641 0.08487 0.81102-0.12336 0.11461-0.20822-0.0297 0.05119-0.12336-1.126-0.0936-1.1772-0.2091-3.5306-0.43833-5.937-0.22921-2.4064-0.63517-6.0739-0.937-8.5013-0.30183-2.4274-0.53018-4.0109-0.87402-6.063-0.34383-2.0521-0.76158-4.2913-1.189-6.2493-0.42738-1.958-0.81276-3.6968-1.3753-5.4987s-1.2918-3.5831-2-5.3123-1.416-3.4379-2.2494-5.063c-0.83333-1.6251-1.8653-3.3333-2.7506-4.6877-0.88539-1.3543-1.6973-2.3132-2.5617-3.4383-0.8644-1.1251-1.7183-2.3228-2.6247-3.3123s-1.9593-2.5416-2.8136-2.6247z"/>
    <path d="m93.352 58.503c0-0.57305-1.0735-2.4703-1.4383-3.5013-0.36483-1.0311-0.49038-1.8727-0.75065-2.685-0.26028-0.81234-0.67585-1.699-0.81103-2.189-0.13517-0.48994 0.15661-0.61549 0-0.75066-0.1566-0.13517-0.0022-0.07087-0.93963-0.06037-0.93745 0.0105-2.9143 0.01925-4.685 0.12336-1.7708 0.10411-3.8351 0.23053-5.9396 0.50131-2.1046 0.27078-4.3753 0.65486-6.6877 1.1234-2.3123 0.46851-4.5927 0.90639-7.1863 1.6877-2.5936 0.78128-5.9274 2.0311-8.3753 3-2.4479 0.96894-4.3438 1.8447-6.3123 2.8136-1.9685 0.96894-3.7069 1.9274-5.4987 3s-3.5853 2.2275-5.252 3.4357c-1.6667 1.2082-3.4357 2.6885-4.748 3.8136s-2.3447 2.1973-3.126 2.937c-0.78128 0.73972-1.4781 1.0219-1.5617 1.5013-0.08355 0.47944 0.3937 0.76071 1.0604 1.3753 0.66667 0.61461 1.9917 1.5311 2.9396 2.3123 0.94794 0.78128 2.0919 1.8233 2.748 2.3753 0.65617 0.55206 0.75153 0.87489 1.189 0.93701 0.43745 0.06211 0.51925 0.16492 1.4357-0.56431 0.91645-0.72922 2.7297-2.6444 4.063-3.811 1.3333-1.1667 2.5722-2.1575 3.937-3.189s2.8141-2.0626 4.252-3c1.4379-0.93745 2.9274-1.8539 4.3753-2.6247 1.4479-0.77078 2.8959-1.3543 4.3123-2 1.4164-0.64567 2.6969-1.2909 4.1864-1.874s3.1986-1.1557 4.7507-1.6247c1.5521-0.46894 3.0411-0.83464 4.5617-1.189 1.5206-0.35433 3.3014-0.69772 4.5617-0.93701 1.2603-0.23928 1.8954-0.35302 3-0.49869 1.1045-0.14567 2.3561-0.30227 3.6273-0.37533 1.2712-0.07305 2.8543-0.042 4-0.06299 1.1457-0.021 2.1553-0.06299 2.874-0.06299 0.71872 0 1.4383 0.63605 1.4383 0.06299z"/>
    <path d="m75.563 15.515c-0.09361 0.86002-2.3368 2.1129-3.3648 3.0289-1.028 0.91601-2.0744 1.8132-2.8031 2.4672-0.72878 0.65398-1.0647 1.3635-1.5696 1.4567-0.50481 0.09318-0.45013-0.31846-1.4593-0.89764-1.0092-0.57918-3.269-1.9606-4.5958-2.5774-1.3268-0.6168-2.1308-0.69335-3.3648-1.1234-1.234-0.43001-2.5626-1.1391-4.0394-1.4567-1.4768-0.31758-3.3451-0.33683-4.8215-0.44882-1.4764-0.11199-2.7095-0.27909-4.0367-0.2231-1.3272 0.05599-2.5057 0.26028-3.9265 0.55906-1.4208 0.29877-3.1592 0.74759-4.5984 1.2336-1.4392 0.486-2.8968 1.1404-4.0367 1.6824-1.14 0.542-1.5884 0.76597-2.8032 1.5696-1.2148 0.80359-3.1212 2.0744-4.4856 3.252-1.3644 1.1776-2.71 2.7108-3.7008 3.8136-0.99081 1.1028-1.4589 1.7375-2.2441 2.8031-0.78521 1.0656-1.8132 2.413-2.4672 3.5906-0.65398 1.1776-0.97069 2.1667-1.4567 3.4751-0.486 1.3084-1.0853 2.9921-1.4593 4.3753-0.37402 1.3832-0.57918 2.3911-0.78478 3.9239-0.2056 1.5328-0.52362 3.1234-0.44882 5.273 0.0748 2.1496 0.52362 5.6063 0.89764 7.6247 0.37402 2.0184 0.58005 2.7283 1.3465 4.4856 0.7664 1.7572 2.0932 4.2445 3.252 6.0577 1.1588 1.8132 2.3736 3.2891 3.7008 4.8215 1.3272 1.5324 2.8981 3.1015 4.2625 4.3727 1.3644 1.2712 2.5407 2.189 3.9239 3.2546 1.3832 1.0656 2.9921 2.2235 4.3753 3.1391 1.3832 0.91557 2.5783 1.5691 3.9239 2.3543 1.3456 0.78522 2.916 1.7585 4.1496 2.357s2.5604 0.542 3.252 1.2336c0.6916 0.6916 0.56124 1.5144 0.89764 2.916 0.3364 1.4016 0.89633 4.0919 1.1207 5.4934 0.22441 1.4016 0.5993 2.5608 0.22572 2.916-0.37358 0.3552-1.0464-0.18679-2.4672-0.78478-1.4208-0.59799-3.6465-1.6072-6.0577-2.8031-2.4112-1.196-5.9234-2.8959-8.4094-4.3727-2.486-1.4768-4.5249-3.0862-6.5066-4.4882-1.9816-1.402-3.72-2.5407-5.3832-3.9239-1.6632-1.3832-3.2314-2.9545-4.5958-4.3753-1.3644-1.4208-2.5809-2.804-3.5906-4.1496-1.0096-1.3456-1.57-2.4475-2.4672-3.9239-0.8972-1.4764-2.0936-3.2148-2.916-4.9344s-1.4204-3.57-2.0184-5.3832c-0.59799-1.8132-1.196-3.5521-1.5696-5.4961-0.37358-1.944-0.6531-3.7756-0.67192-6.168-0.01881-2.3924 0.22266-5.8123 0.55906-8.1863 0.3364-2.374 0.78653-4.0018 1.4593-6.0577 0.67279-2.056 1.6802-4.4094 2.5774-6.2782 0.8972-1.8688 1.8338-3.4388 2.8058-4.9344 0.972-1.4956 1.7743-2.5814 3.0262-4.0394 1.252-1.458 3.0647-3.3631 4.4856-4.7087 1.4208-1.3456 2.6185-2.3552 4.0394-3.3648s3.0276-1.8893 4.4856-2.6929c1.458-0.80359 2.6925-1.4558 4.2625-2.1286 1.57-0.67279 3.5503-1.3845 5.1575-1.9081 1.6072-0.52362 2.8032-0.95319 4.4856-1.2336 1.6824-0.2804 3.7397-0.35521 5.6089-0.44882 1.8692-0.093613 3.7747-0.24366 5.6063-0.11286 1.8316 0.1308 3.3456 0.44882 5.3832 0.89764 2.0376 0.44882 4.8049 1.0849 6.8425 1.7953 2.0376 0.71041 3.6824 1.5888 5.3832 2.4672 1.7008 0.87839 3.5507 1.9808 4.8215 2.8032 1.2708 0.8224 2.8968 1.2712 2.8031 2.1312z"/>
    <path d="m66.141 68.336c-1.7568 0.16798-9.3828 3.4948-11.551 4.9344-2.1684 1.4396-1.0481 2.1706-1.4593 3.7034-0.4112 1.5328-0.8399 3.5123-1.0079 5.4934-0.16798 1.9812-0.056 4.0945 0 6.3937 0.05599 2.2992 0.01837 4.8408 0.33596 7.4016 0.31758 2.5608 0.82196 5.4772 1.5696 7.9632 0.74759 2.486 1.7756 4.7848 2.916 6.9528 1.1404 2.168 2.4873 4.1859 3.9265 6.0551s3.1015 3.7021 4.7087 5.1601c1.6072 1.458 3.2148 2.5787 4.9344 3.5879 1.7196 1.0092 3.6448 1.7944 5.3832 2.4672 1.7384 0.67279 3.3836 1.1024 5.0472 1.5696s3.2148 0.91557 4.9344 1.2336c1.7196 0.31802 3.682 0.56211 5.3832 0.67453 1.7012 0.11242 3.8893 0.65441 4.8242 0 0.93482-0.65441 0.486-2.3749 0.78477-3.9265s1.4007-4.486 1.0079-5.3832c-0.39282-0.8972-1.9816 0.0932-3.3648 0-1.3832-0.0932-3.2712-0.22266-4.9344-0.55905-1.6632-0.3364-3.3438-0.8609-5.0446-1.4593-1.7008-0.59843-3.5525-1.3088-5.1601-2.1312-1.6076-0.82239-3.0836-1.7003-4.4856-2.8031-1.402-1.1028-2.8049-2.4864-3.9265-3.8137-1.1216-1.3272-1.9996-2.8224-2.8031-4.1496-0.80359-1.3272-1.3644-2.2625-2.0184-3.8136-0.65398-1.5512-1.4755-3.7178-1.9055-5.4934-0.43001-1.7756-0.48731-3.4777-0.67454-5.1601-0.18723-1.6824-0.41164-3.3644-0.44882-4.9344-0.03718-1.57 0.02013-2.654 0.22572-4.4856 0.2056-1.8316 0.7091-4.5787 1.0079-6.5039 0.29878-1.9252 0.48557-3.5516 0.78478-5.0472 0.29922-1.4956 2.7673-4.0945 1.0105-3.9265z"/>
    <path d="m126.7 89.532c0.56036 1.196 0.96982 6.2804 0.895 7.8504-0.0748 1.57-0.27864 1.1207-1.3438 1.5696-1.0652 0.44882-3.29 0.74934-5.0472 1.1234-1.7572 0.37402-3.3841 0.70955-5.4961 1.1207-2.112 0.4112-4.4283 0.89808-7.1758 1.3465s-6.6181 1.0262-9.3097 1.3438c-2.6916 0.31758-4.5971 0.39327-6.8399 0.56168-2.2428 0.16842-4.2428 0.33639-6.6168 0.44882-2.374 0.11242-5.5897 0.24453-7.6273 0.22572-2.0376-0.0188-3.5144-0.0206-4.5984-0.33858-1.084-0.31803-1.4383-0.54156-1.9055-1.5696-0.46719-1.028-0.69204-3.4956-0.89764-4.5984-0.2056-1.1028-1.1207-1.7008-0.33596-2.0184 0.78478-0.31759 2.7458 0.07523 5.0446 0.11285 2.2988 0.03762 6.0936 0.15048 8.748 0.11286 2.6544-0.03762 4.7297-0.15135 7.1785-0.33858 2.4488-0.18723 5.234-0.50438 7.5144-0.78478 2.2804-0.2804 3.682-0.46806 6.168-0.89764 2.486-0.42957 6.1312-1.1006 8.748-1.6798 2.6168-0.57918 5.2144-1.3093 6.9528-1.7953 1.7384-0.486 2.4869-0.82152 3.4777-1.1207 0.99081-0.29921 1.9068-1.8705 2.4672-0.67454z"/>
    <path d="m103.15 109.05c0.95319-1.0284 4.5774-0.78609 5.8294-1.0105s1.1028-0.22397 1.6824-0.33596c0.57961-0.11198 1.4772-0.56037 1.7953-0.33596 0.31803 0.22441 0.13167 0.29922 0.11286 1.6824-0.0188 1.3832-0.11329 3.6076-0.22572 6.6168-0.11243 3.0092-0.31802 8.0551-0.44882 11.438-0.13079 3.3832-0.0932 5.6085-0.33595 8.8609-0.24279 3.2524-0.70954 7.6444-1.1207 10.654-0.4112 3.0092-0.80446 5.0087-1.3465 7.4016-0.54199 2.3928-1.1951 4.619-1.9055 6.9554-0.71041 2.3364-1.3473 4.6518-2.357 7.063-1.0096 2.4112-2.2056 4.787-3.7008 7.4042-1.4952 2.6172-3.4759 5.7572-5.2703 8.2992-1.7944 2.542-3.8141 4.9904-5.4961 6.9528-1.682 1.9624-2.465 2.8215-4.5958 4.8215-2.1308 2-6.189 5.4213-8.189 7.1785-2 1.7572-2.9514 3.0284-3.811 3.3648-0.85957 0.3364-0.78565-0.63605-1.3464-1.3464-0.56081-0.71042-1.3268-1.888-2.0184-2.916-0.6916-1.028-2.262-2.336-2.1312-3.252 0.1308-0.916 1.4208-0.86089 2.916-2.2441 1.4952-1.3832 3.7187-3.5691 6.0551-6.0551 2.3364-2.486 5.7577-6.0385 7.9633-8.8609 2.2056-2.8224 3.906-5.9055 5.2703-8.0735 1.3644-2.168 1.888-2.9904 2.916-4.9344 1.028-1.944 2.3172-4.4304 3.252-6.7297 0.93482-2.2992 1.6654-4.5236 2.357-7.0656 0.6916-2.542 1.2695-5.5696 1.7927-8.1863 0.52319-2.6168 1.0472-5.0473 1.3465-7.5144 0.29921-2.4672 0.31802-4.5783 0.44882-7.2887s0.22397-6.0766 0.33596-8.9738c0.11198-2.8972 0.29833-6.1479 0.33595-8.4094 0.0376-2.2616-1.0634-4.1317-0.11023-5.1601z"/>
    <path d="m116.61 121.27c0.80402-1.2524 3.2537-0.98951 5.1601-1.4567 1.9064-0.46719 4.185-0.93526 6.2782-1.3465 2.0932-0.41119 4.2432-0.84033 6.2808-1.1207 2.0376-0.28041 3.9449-0.41207 5.9449-0.56168 2-0.1496 3.9432-0.33596 6.0551-0.33596 2.112 0 4.2056 0.0744 6.6168 0.33596 2.4112 0.26159 5.7568 0.78478 7.8504 1.2336 2.0936 0.44881 3.3281 0.9545 4.7113 1.4593 1.3832 0.50481 2.2983 0.89677 3.5879 1.5696 1.2896 0.67279 2.916 1.7008 4.1496 2.4672 1.2336 0.7664 2.0184 1.0284 3.252 2.1312 1.2336 1.1028 3.0092 3.0464 4.1496 4.4856 1.1404 1.4392 1.9077 2.6916 2.6929 4.1496 0.78522 1.458 1.4952 3.1032 2.0184 4.5984 0.52318 1.4952 0.87795 2.6159 1.1207 4.3727 0.24278 1.7568 0.44795 3.9996 0.33597 6.168-0.112 2.1684-0.63431 5.0481-1.0079 6.8425-0.37358 1.7944-0.5608 2.5219-1.2336 3.9239-0.67279 1.402-1.6256 2.9926-2.8032 4.4882-1.1776 1.4956-2.8045 3.2148-4.2625 4.4856-1.458 1.2708-2.7843 2.2419-4.4856 3.1391-1.7012 0.8972-3.7778 1.7393-5.7218 2.2441-1.944 0.50481-4.0359 0.72879-5.9423 0.78477-1.9064 0.056-3.4401 0-5.4961-0.44882-2.056-0.44882-4.4475-1.0477-6.8399-2.2441-2.3924-1.1964-5.4768-3.2524-7.5144-4.9344-2.0376-1.682-3.3281-3.2511-4.7113-5.1575-1.3832-1.9064-2.6347-4.1312-3.5879-6.2808-0.95319-2.1496-1.6452-4.598-2.1312-6.6168-0.486-2.0188-0.63517-3.4961-0.78477-5.4961-0.14961-2-0.18767-4.6907-0.11287-6.5039s0.0381-3.5901 0.56168-4.3753c0.52362-0.78522 1.4961-0.2616 2.5801-0.33597 1.084-0.0744 2.9519-0.0919 3.9239-0.11023 0.97202-0.0184 1.6278-0.42957 1.9081 0 0.2804 0.42956-0.16929 1.213-0.22572 2.5774-0.0564 1.3644-0.20647 3.9077-0.11285 5.6089 0.0936 1.7012 0.22572 2.8788 0.67453 4.5984 0.44882 1.7196 1.3644 4.168 2.0184 5.7192 0.65399 1.5512 0.95233 2.2047 1.9055 3.5879 0.95318 1.3832 2.4676 3.4777 3.8136 4.7113 1.346 1.2336 2.6549 1.9427 4.2625 2.6903 1.6076 0.74759 3.514 1.4772 5.3832 1.7953s4.094 0.39326 5.832 0.11287c1.738-0.28041 3.2502-1.0661 4.5958-1.7953 1.3456-0.72922 2.5429-1.6828 3.4777-2.58 0.93483-0.8972 1.4584-1.682 2.1312-2.8031s1.4383-2.6903 1.9055-3.9239c0.46718-1.2336 0.74803-2.1689 0.89763-3.4777 0.14961-1.3088 0.056-3.0293 0-4.3753-0.056-1.346 0.11242-2.2804-0.33596-3.7008-0.44838-1.4204-1.5879-3.5508-2.3543-4.8215-0.7664-1.2708-1.2345-1.85-2.2441-2.8032-1.0096-0.9532-2.3744-2.0376-3.8136-2.916-1.4392-0.87838-3.1955-1.7563-4.8215-2.3543-1.626-0.59798-3.196-0.85958-4.9344-1.2336-1.7384-0.37402-3.664-0.84208-5.4961-1.0105-1.832-0.16842-3.5337-0.0188-5.4961 0-1.9624 0.0188-4.0726-0.0556-6.2782 0.11286-2.2056 0.16842-4.787 0.58005-6.9554 0.89764-2.1684 0.31758-4.3171 0.69028-6.0551 1.0079-1.738 0.31758-3.0455 0.5796-4.3727 0.89763-1.3272 0.31802-2.7494 0.78608-3.5906 1.0105-0.84121 0.22442-1.1203 0.84078-1.4567 0.33597-0.3364-0.50482-0.41208-1.7944-0.56169-3.3648-0.1496-1.5704-1.14-4.8053-0.33595-6.0577z"/>
    <path d="m38.778 186.09c0.93438 1.5328 0.44882 1.7577 0.44882 2.58 0 0.8224-0.20604 1.6067-0.44882 2.3543-0.24278 0.74759-0.46588 1.4396-1.0079 2.1312-0.542 0.69161-1.3653 1.4764-2.2441 2.0184-0.87883 0.54201-2.0009 0.86002-3.0289 1.2336s-2.0551 0.76509-3.1391 1.0079c-1.084 0.24279-2.3368 0.16843-3.3648 0.44883-1.028 0.28041-1.85 0.80359-2.8032 1.2336-0.95319 0.43001-1.9812 0.89765-2.916 1.3464-0.93482 0.44883-1.8329 0.78566-2.6929 1.3465s-1.7008 1.2896-2.4672 2.0184c-0.76641 0.72878-1.5144 1.5319-2.1312 2.3543-0.6168 0.8224-1.0092 1.3836-1.5696 2.5801-0.56037 1.1964-1.3626 3.1216-1.7927 4.5984-0.43001 1.4768-0.69379 2.9169-0.7874 4.2625-0.09361 1.3456 0.0385 2.4095 0.22572 3.811 0.18723 1.4016 0.99125 4.318 0.89764 4.5984-0.09361 0.28039-1.0853-1.6264-1.4593-2.916-0.37402-1.2896-0.72878-3.2515-0.78478-4.8215-0.05599-1.57 0.18723-3.178 0.44882-4.5984 0.26159-1.4204 0.65354-2.7651 1.1207-3.9239 0.46719-1.1588 0.99081-2.0381 1.6824-3.0289 0.6916-0.99082 1.5884-2.0936 2.4672-2.916 0.87883-0.8224 0.97375-1.0276 2.8058-2.0184 1.832-0.99081 7.6632-3.2721 8.1864-3.9265 0.52319-0.65442-3.29 0.0372-5.0472 0-1.7572-0.0372-3.7017-0.2979-5.4961-0.2231-1.7944 0.0748-3.6632 0.22354-5.2703 0.67192-1.6072 0.44838-3.1951 1.2708-4.3727 2.0184-1.1776 0.74759-2.0197 1.6632-2.6929 2.4672-0.67323 0.80402-1.1037 1.385-1.3465 2.357-0.24278 0.972-0.24103 2.5779-0.11024 3.4751 0.1308 0.8972 0.31584 1.6837 0.89501 1.9081 0.57918 0.22441 1.9068-0.31846 2.5801-0.56167 0.67323-0.24323 0.8797-0.43045 1.4593-0.89765 0.57962-0.46719 2.056-2.2607 2.0184-1.9055-0.03762 0.35521-1.6085 2.5416-2.2441 4.0368-0.63561 1.4952-1.1772 3.3456-1.5696 4.9344-0.39239 1.5888-0.72878 3.0844-0.78478 4.5984-0.05599 1.514-0.05599 2.8779 0.44882 4.4856 0.50481 1.6076 1.6457 3.8141 2.5801 5.1601 0.93438 1.346 2.1479 2.1872 3.0262 2.916 0.87839 0.72878 1.3469 1.1203 2.2441 1.4567 0.8972 0.3364 2.0923 0.78609 3.1391 0.56168 1.0468-0.22442 2.4501-1.1041 3.1417-1.9082 0.6916-0.80401 0.82108-1.6076 1.0079-2.916 0.18679-1.3084 0.09405-3.458 0.11286-4.9344 0.01881-1.4764-0.01881-2.1671 0-3.9239 0.01881-1.7568 0.09405-5.2708 0.11286-6.6168 0.01881-1.346-0.14961-1.0853 0-1.4593 0.1496-0.37403 0.65485-1.2708 0.89764-0.78478 0.24278 0.48599 0.27909 2.3924 0.55906 3.7008 0.27996 1.3084 0.72835 3.028 1.1207 4.1496 0.39239 1.1216 0.56037 2.0564 1.2336 2.58 0.67323 0.52363 1.7962 0.82327 2.8058 0.56169 1.0096-0.2616 2.1868-1.178 3.252-2.1312 1.0652-0.95319 2.4103-2.3355 3.1391-3.5879 0.72878-1.2524 1.2336-2.3001 1.2336-3.9265s-0.78522-4.262-1.2336-5.832c-0.44838-1.57-1.1391-2.5411-1.4567-3.5879-0.31759-1.0468-0.59843-2.0013-0.44882-2.6929 0.14961-0.69161 0.61768-1.1391 1.3465-1.4567s1.6995 0.0748 3.0262-0.44882c1.3268-0.52362 3.85-1.8145 4.9344-2.6929 1.0844-0.87838 1.0674-1.587 1.5722-2.5774 0.50481-0.99037 1.1951-2.4676 1.4567-3.3648 0.26159-0.8972-1.0836-3.1212 0.11286-2.0184 1.1964 1.1028 4.916 6 7.0656 8.6352 2.1496 2.6352 3.6824 4.4842 5.832 7.1759 2.1496 2.6916 4.9536 6.1509 7.0656 8.9738 2.112 2.8228 4.2047 5.9444 5.6063 7.9632 1.4016 2.0188 1.6632 2.374 2.8031 4.1496 1.14 1.7756 2.7095 4.1116 4.0368 6.5039 1.3272 2.3924 2.5433 4.9532 3.9265 7.8504 1.3832 2.8972 3.1951 6.5424 4.3727 9.5328 1.1776 2.9904 1.8705 5.2695 2.6929 8.4094 0.8224 3.14 1.6995 7.3836 2.2415 10.43 0.542 3.0468 0.84209 5.2148 1.0105 7.8504 0.16841 2.6356 0.0748 4.9724 0 7.9633-0.07481 2.9908-0.11243 6.916-0.44882 9.9816-0.3364 3.0656-0.95276 5.4589-1.5696 8.412-0.6168 2.9532-1.4208 6.7279-2.1312 9.3071-0.71041 2.5792-1.0656 3.3268-2.1312 6.168-1.0656 2.8412-3.0101 7.8513-4.2625 10.879-1.2524 3.028-2.0372 4.8403-3.252 7.2887-1.2148 2.4484-2.5227 4.6912-4.0367 7.4016-1.514 2.7104-3.6269 6.4681-5.0472 8.8609-1.4204 2.3928-2.2043 3.6457-3.4751 5.4961-1.2708 1.8504-3.626 4.2795-4.1496 5.6063-0.52362 1.3268 0.57787 1.1956 1.0079 2.3543 0.43001 1.1588 1.217 3.458 1.5722 4.5984 0.35521 1.1404 0.14786 2.3001 0.55906 2.2441 0.41119-0.056 0.52493-0.63605 1.9081-2.58 1.3832-1.944 4.2791-5.9252 6.3911-9.084 2.112-3.1588 4.3368-6.71 6.2808-9.8688 1.944-3.1588 3.4952-5.6072 5.3832-9.084 1.888-3.4768 4.3373-8.3001 5.9449-11.777 1.6076-3.4768 2.5048-5.7196 3.7008-9.084 1.196-3.3644 2.4471-7.4576 3.4751-11.102 1.028-3.6448 2.0945-7.8504 2.6929-10.766 0.59843-2.916 0.59887-3.7765 0.89764-6.7296 0.29877-2.9532 0.87664-6.8963 0.89501-10.99 0.0184-4.0932-0.2804-9.4948-0.78477-13.57-0.50437-4.0748-1.3443-7.2905-2.2415-10.879-0.8972-3.5888-2.0201-7.5136-3.1417-10.654-1.1216-3.14-2.4851-5.794-3.5879-8.1864-1.1028-2.3924-1.5521-3.4576-3.0289-6.168-1.4768-2.7104-3.72-6.7297-5.832-10.094-2.112-3.3648-4.5595-6.8609-6.8399-10.094-2.2804-3.2336-4.1509-5.8119-6.8425-9.3071-2.6916-3.4952-6.6343-8.3368-9.3071-11.664-2.6728-3.3272-4.4864-5.514-6.7297-8.2992-2.2432-2.7852-4.3373-5.3281-6.7297-8.4121-2.3924-3.084-5.2511-6.8023-7.6247-10.092-2.3736-3.2896-4.8036-6.7109-6.6168-9.6457-1.8132-2.9348-3.0101-5.3653-4.2625-7.9633-1.2524-2.598-2.336-5.1203-3.252-7.6247-0.91601-2.5044-1.6645-4.9716-2.2441-7.4016-0.57962-2.43-1.0468-4.5241-1.2336-7.1785-0.18679-2.6544-0.07437-6.1312 0.11286-8.748 0.18722-2.6168 0.4685-4.7284 1.0105-6.9528s1.3631-4.1321 2.2415-6.3937c0.87839-2.2616 2.7485-5.7926 3.0289-7.1758 0.2804-1.3832-0.56124-0.41295-1.3465-1.1234-0.78521-0.71041-2.1689-2.1111-3.3648-3.1391-1.196-1.028-2.9703-2.9729-3.811-3.0289-0.84077-0.05599-0.50438 0.99169-1.2336 2.6929-0.72922 1.7012-2.3377 5.4772-3.1417 7.5144-0.80402 2.0372-1.0656 2.5967-1.6824 4.7087-0.6168 2.112-1.5512 5.6828-2.0184 7.9632-0.46719 2.2804-0.67279 3.308-0.78478 5.7192-0.11199 2.4112-0.12992 5.8696 0.11286 8.748 0.24278 2.8784 0.78303 5.8307 1.3438 8.5223 0.5608 2.6916 0.97419 4.6925 2.021 7.6273 1.0468 2.9348 2.8955 7.1216 4.2598 9.9816 1.3644 2.86 2.6181 5.0289 3.9265 7.1785 1.3084 2.1496 2.3911 3.4764 3.9239 5.7192 1.5328 2.2428 3.4969 5.3263 5.273 7.7375 1.776 2.4112 3.6264 4.5052 5.3832 6.7297 1.7568 2.2244 4.2231 5.084 5.1575 6.6168z"/>
    <path d="m32.16 476c1.0096 1.4392 1.4965 2.5792 2.6929 3.7008 1.1964 1.1216 3.0464 2.2625 4.4856 3.0289 1.4392 0.76642 2.6544 1.1772 4.1496 1.5696 1.4952 0.3924 3.2143 0.69117 4.8215 0.78479 1.6072 0.0936 3.4195 0.0197 4.8215-0.22308 1.402-0.2428 2.5061-0.70999 3.5906-1.2336s1.8132-1.0857 2.916-1.9081c1.1028-0.82239 3.8692-3.3254 3.7008-3.0262-0.16842 0.29923-3.4213 3.7564-4.7113 4.8215-1.29 1.0652-2.0381 1.1395-3.0289 1.5696-0.99081 0.43003-1.9816 0.80491-2.916 1.0105-0.93438 0.2056-1.7187 0.18592-2.6903 0.22309-0.97156 0.0372-1.9991 0.168-3.1391 0-1.14-0.16797-2.4668-0.57828-3.7008-1.0079-1.234-0.42956-2.4694-0.87793-3.7034-1.5696-1.234-0.69159-2.6168-1.664-3.7008-2.58-1.084-0.91602-2.2052-2.8224-2.8031-2.916-0.59799-0.0936-0.486 1.1767-0.78478 2.3543s-0.85827 3.1037-1.0079 4.7113c-0.14961 1.6076-0.11374 3.4952 0.11024 4.9344 0.22397 1.4392 0.5608 2.5792 1.2336 3.7008 0.67279 1.1216 1.6627 2.0757 2.8032 3.0289 1.1404 0.95319 2.5066 2.1299 4.0394 2.6903 1.5328 0.56037 3.4379 0.59711 5.1575 0.67194 1.7196 0.0748 3.6085 0.18808 5.1601-0.22312 1.5516-0.41119 3.0468-1.1973 4.1496-2.2441 1.1028-1.0468 2.2992-3.4016 2.4672-4.0367 0.16798-0.63519-0.86089 0.24451-1.4593 0.22571s-1.4396-0.11417-2.1312-0.33859c-0.6916-0.2244-2.2428-0.85871-2.0184-1.0079s2.0564 0.20648 3.3648 0.11286c1.3084-0.0936 2.7843-0.0577 4.4856-0.67453 1.7012-0.61679 4.1142-1.8675 5.7218-3.0262 1.6076-1.1588 3.0455-2.5805 3.9239-3.9265 0.8784-1.346 1.178-2.6544 1.3465-4.1496 0.16842-1.4952-0.05556-3.4943-0.33595-4.8215-0.2804-1.3272-0.74803-2.2069-1.3465-3.1417-0.59843-0.93481-1.4029-1.9064-2.2441-2.4672-0.84121-0.56079-1.85-0.82284-2.8032-0.89764s-1.9816 0.0188-2.916 0.44882c-0.93438 0.43002-1.8491 1.29-2.6903 2.1312-0.84121 0.84122-1.5717 1.944-2.357 2.916-0.78521 0.97202-1.6444 2.1124-2.3543 2.916-0.70998 0.80358-1.3259 1.4755-1.9055 1.9055-0.57961 0.43-1.3478 0.84253-1.5722 0.67453-0.22441-0.16797-0.11111-1.1776 0.22572-1.6824 0.33683-0.50482 1.2161-0.93527 1.7953-1.3465 0.57918-0.41119 1.3062-0.57873 1.6798-1.1207 0.37358-0.542 0.74847-1.3088 0.56168-2.1312-0.18679-0.82242-1.0844-2.0927-1.6824-2.8032-0.59799-0.71042-1.0831-1.0853-1.9055-1.4593-0.8224-0.37402-1.6457-0.76639-3.0289-0.78476-1.3832-0.0184-3.6815 0.16971-5.2703 0.67453s-3.0289 1.4011-4.2625 2.3543c-1.2336 0.95318-2.0923 3.776-3.1391 3.3648-1.0468-0.4112-2.2445-3.7012-3.1417-5.832-0.8972-2.1308-1.6435-4.336-2.2415-6.9528-0.59799-2.6168-1.122-6.0188-1.3465-8.748s-0.0748-4.9917 0-7.6273 0.24322-5.7192 0.44882-8.1863c0.2056-2.4672 0.3364-4.1496 0.78478-6.6168 0.44838-2.4672 1.2887-5.8688 1.9055-8.1863 0.6168-2.3176 1.1409-3.906 1.7953-5.7192 0.65442-1.8132 1.29-3.3657 2.1312-5.1601 0.84121-1.7944 1.9068-3.6999 2.916-5.6063 1.0092-1.9064 2.1671-4.056 3.1391-5.832 0.972-1.776 1.3281-2.6933 2.6929-4.8241 1.3648-2.1308 4.7673-6.1291 5.4961-7.9606 0.72878-1.8316-0.67454-2.0009-1.1234-3.0289-0.44882-1.028-1.0652-2.1859-1.5696-3.1391-0.50438-0.95321-0.93351-2.5612-1.4567-2.5801-0.52318-0.0188-0.56081 0.43002-1.6824 2.4672-1.1216 2.0372-3.6452 7.0083-5.0472 9.7559s-2.2244 4.3368-3.3648 6.7296c-1.1404 2.3928-2.3561 4.9545-3.4777 7.6273-1.1216 2.6728-2.28 5.7366-3.252 8.4094s-1.9821 5.3093-2.5801 7.6273c-0.59799 2.318-0.69029 3.4584-1.0079 6.2808-0.31758 2.8224-0.69204 7.682-0.89764 10.654-0.2056 2.9716-0.33596 5.1011-0.33596 7.1759s0.11155 3.1794 0.33596 5.273c0.22441 2.0936 0.56168 5.0643 1.0105 7.2887 0.44882 2.2244 0.89764 4.0577 1.6824 6.0577 0.78478 2 1.9611 4.1295 3.0262 5.9423 1.0652 1.8128 2.3552 3.4952 3.3648 4.9344z"/>
    <path d="m53.13 211.44c1.5888 0.50482 5.5897 4.336 6.3937 5.7192 0.80402 1.3832-0.35477 1.0849-1.5696 2.5801-1.2148 1.4952-3.9431 4.1855-5.7192 6.3911-1.776 2.2056-3.535 4.7865-4.937 6.8425-1.402 2.056-2.2979 3.4191-3.4751 5.4934-1.1772 2.0744-2.5971 4.9151-3.5879 6.9528-0.99081 2.0376-1.6654 3.5158-2.357 5.273-0.6916 1.7572-1.1947 3.308-1.7927 5.2704-0.59799 1.9624-1.2345 4.1676-1.7953 6.5039-0.5608 2.3364-1.3263 5.5704-1.5696 7.5144-0.24322 1.944-0.03937 2.3924 0.11024 4.1496 0.1496 1.7572 0.31977 4.2253 0.7874 6.3937 0.46763 2.1684 1.3084 4.7852 2.0184 6.6168 0.70997 1.8316 1.2511 2.9895 2.2415 4.3727 0.99038 1.3832 2.3364 2.8797 3.7008 3.9265 1.3644 1.0468 2.9339 1.8311 4.4856 2.3543 1.5516 0.5232 2.7305 0.654 4.8241 0.78479 2.0936 0.1308 5.6815 0.1868 7.7375 0 2.056-0.18679 3.5328-0.61593 4.5984-1.1207 1.0656-0.50482 1.1597-1.1418 1.7953-1.9081 0.6356-0.76642 1.4392-1.6623 2.0184-2.6903 0.57918-1.028 1.0643-2.3001 1.4567-3.4777 0.39239-1.1776 0.69204-2.4103 0.89764-3.588 0.2056-1.1776 0.35477-2.3937 0.33596-3.4777-0.01881-1.084-0.15005-1.9794-0.44882-3.0262-0.29878-1.0468-0.74584-2.189-1.3438-3.2546-0.59798-1.0656-1.4401-2.2795-2.2441-3.1391-0.80402-0.85959-1.7948-1.4764-2.58-2.0184-0.78522-0.54202-1.3648-0.85959-2.1312-1.2336-0.76641-0.37403-2.8784-1.4405-2.4672-1.0105 0.41119 0.43002 3.6632 2.3941 4.9344 3.5906 1.2712 1.1964 1.9077 2.0927 2.6929 3.5879 0.78521 1.4952 1.682 3.7008 2.0184 5.3832 0.3364 1.6824 0.2056 3.2345 0 4.7113-0.2056 1.4768-0.59798 2.692-1.2336 4.1496-0.6356 1.4576-1.7205 3.437-2.58 4.5958-0.85958 1.1588-0.89546 1.7773-2.5774 2.357-1.682 0.57963-6.4488 1.1955-7.5144 1.1207-1.0656-0.0748 1.1584-1.0088 1.1207-1.5696-0.03762-0.56082-0.59886-1.0477-1.3465-1.7953-0.74759-0.74758-2.2607-1.8491-3.1391-2.6903-0.87839-0.84122-1.5704-1.4781-2.1312-2.357-0.56081-0.87881-1.14-1.9256-1.2336-2.916-0.09361-0.99036 0.44751-2.1107 0.67192-3.0262 0.22441-0.91555 0.30052-1.7944 0.67454-2.4672 0.37402-0.67279 0.82196-1.1767 1.5696-1.5696 0.74759-0.39282 1.944-0.88055 2.916-0.78738 0.972 0.0932 1.9068 0.84164 2.916 1.3464 1.0092 0.50482 2.2047 1.1588 3.1391 1.6824 0.93439 0.52362 2.28 1.5901 2.4672 1.4593 0.18722-0.1308-0.48425-1.4401-1.3438-2.2441-0.85958-0.80402-2.5424-1.7577-3.8136-2.58-1.2712-0.82239-2.7292-1.4571-3.8137-2.3543-1.0844-0.89719-2.1133-1.9821-2.6929-3.0289-0.57962-1.0468-0.80359-2.2428-0.78478-3.252 0.01881-1.0092 0.33683-1.906 0.89764-2.8032 0.5608-0.89718 1.2148-1.9072 2.4672-2.58s3.4208-1.2139 5.0472-1.4567c1.6264-0.24277 3.1973-0.41119 4.7113 0s3.1019 1.346 4.3727 2.4672c1.2708 1.1212 2.3736 2.6898 3.252 4.2599 0.8784 1.57 1.4764 3.6645 2.0184 5.1601 0.542 1.4956 0.99038 2.8044 1.2336 3.8136 0.24322 1.0092-0.05468 2.2603 0.22572 2.2415s1.1579-1.5131 1.4567-2.3543c0.29877-0.84118 0.37314-1.8145 0.33595-2.6929-0.03718-0.87839-0.97025-2.4094-0.55905-2.5774 0.41119-0.168 2.185 0.99035 3.0262 1.5696 0.84121 0.57916 1.5162 0.9895 2.021 1.9055 0.50481 0.91602 0.8399 2.4501 1.0079 3.5906 0.16798 1.1404 0.16798 2.0184 0 3.252-0.16798 1.2336-0.48469 2.6916-1.0079 4.1496s-1.1964 3.1404-2.1312 4.5984-2.0385 2.8788-3.4777 4.1496c-1.4392 1.2708-3.6247 2.5967-5.1575 3.4751-1.5328 0.87839-2.4689 1.2533-4.0394 1.7953s-3.5888 1.1951-5.3832 1.4567c-1.7944 0.26156-3.6636 0.18765-5.3832 0.11285-1.7196-0.0748-3.57-0.35608-4.9344-0.56167-1.3644-0.2056-2.2056-0.31717-3.252-0.67194-1.0464-0.35477-1.9046-0.82108-3.0262-1.4567-1.1216-0.63559-2.4882-1.3285-3.7034-2.3569-1.2152-1.0284-2.5976-2.4864-3.5879-3.8137-0.99038-1.3272-1.7187-2.7852-2.3543-4.1496-0.63561-1.3644-1.2537-4.3736-1.4593-4.0367-0.2056 0.33682-0.11067 2.8801 0.22572 6.0577 0.3364 3.1776 1.2135 9.3819 1.7927 13.008 0.57917 3.626 0.972 5.7384 1.6824 8.748 0.71041 3.0096 1.6081 6.0949 2.5801 9.3097 0.972 3.2148 2.2423 6.9698 3.252 9.979 1.0096 3.0092 1.7962 5.2349 2.8058 8.0761 1.0096 2.8412 1.3456 4.1859 3.252 8.9711 1.9064 4.7852 6.0556 14.712 8.1863 19.74 2.1308 5.028 3.234 7.213 4.5984 10.428 1.3644 3.2148 2.0927 5.1973 3.5879 8.8609 1.4952 3.6636 3.8316 9.0836 5.3832 13.121 1.5516 4.0372 2.7861 7.7192 3.9265 11.102 1.1404 3.3832 2.0564 6.206 2.916 9.1968 0.85958 2.9908 1.4939 5.6076 2.2415 8.748 0.74759 3.1404 1.8329 7.3093 2.2441 10.095 0.41119 2.7852 0.12992 4.1872 0.22309 6.6168 0.09318 2.4296 0.29834 5.4374 0.33596 7.9606 0.03762 2.5232 0.07655 4.3561-0.11024 7.1785-0.18679 2.8224-0.54287 6.4847-1.0105 9.7559-0.46763 3.2712-1.2345 7.0114-1.7953 9.8714-0.56081 2.86-0.85958 4.4851-1.5696 7.2887s-1.6811 6.43-2.6903 9.5328-2.1124 5.944-3.3648 9.084c-1.2524 3.14-2.7476 6.7091-4.1496 9.7559-1.402 3.0468-2.5429 5.2725-4.2625 8.5249-1.7196 3.2524-4.4103 7.9427-6.0551 10.99-1.6448 3.0468-2.692 5.1041-3.8136 7.2914-1.1216 2.1872-1.944 3.7948-2.916 5.832-0.972 2.0372-2.0188 4.2603-2.916 6.3911-0.8972 2.1308-1.944 5.0477-2.4672 6.3937s-0.63473 1.0472-0.67192 1.6824c-0.03718 0.6352 0.13123 1.1382 0.44882 2.1286 0.31759 0.99036 0.74672 2.5612 1.4567 3.8137 0.70997 1.2524 1.8311 2.6728 2.8032 3.7008 0.972 1.028 1.7577 1.5324 3.0289 2.4672 1.2712 0.93482 3.346 2.0761 4.5984 3.1417 1.2524 1.0656 1.6076 2.0372 2.916 3.252 1.3084 1.2148 3.6636 2.8403 4.9344 4.0368 1.2708 1.1964 1.9239 2.0201 2.6903 3.1417 0.7664 1.1216 1.4593 2.3919 1.9081 3.5879 0.44882 1.196 0.6916 2.1675 0.78478 3.588 0.09318 1.4204-0.0573 3.5884-0.22572 4.9344-0.16841 1.346-0.46719 2.0389-0.78477 3.1417-0.31758 1.1028-0.55993 2.2043-1.1207 3.475-0.56081 1.2708-2.2817 3.9252-2.2441 4.1496 0.03762 0.22437 1.7406-1.7192 2.4698-2.8032 0.72922-1.084 1.2887-2.4296 1.9055-3.7008 0.6168-1.2712 1.4217-2.4313 1.7953-3.9265 0.37357-1.4952 0.61461-3.3815 0.44619-5.0446-0.16842-1.6632-0.82152-3.626-1.4567-4.9344-0.63517-1.3084-1.4383-1.9064-2.3543-2.916-0.91602-1.0096-2.1885-2.2069-3.1417-3.1417-0.95319-0.93481-1.755-1.8316-2.5774-2.4672-0.8224-0.63562-1.2725-0.44928-2.357-1.3465-1.0844-0.89715-4.0936-3.5695-4.1496-4.0367-0.056-0.46717 2.4304 0.87842 3.8136 1.2336 1.3832 0.35522 3.1212 0.72925 4.4856 0.89764 1.3644 0.16846 2.542 0.15009 3.7008 0.11286 1.1588-0.0372 2.1116-0.37311 3.252-0.33594 1.1404 0.0372 2.4877 0.14789 3.5906 0.55908 1.1028 0.4112 2.129 1.1229 3.0262 1.9081 0.8972 0.78522 1.7213 1.8499 2.357 2.8031 0.6356 0.95325 1.0643 1.832 1.4567 2.916 0.39239 1.084 0.82284 2.3171 0.89764 3.588 0.07481 1.2708-0.1496 2.822-0.44882 4.0368-0.29922 1.2148-1.1037 3.1395-1.3465 3.252s0.07655-1.7738-0.11024-2.5774c-0.18679-0.80359-0.54287-1.5709-1.0105-2.2441-0.46763-0.67322-1.7017-2.2065-1.7953-1.7952-0.09361 0.41119 0.97156 2.8792 1.2336 4.2624 0.26202 1.3832 0.39457 2.5416 0.33858 4.0367-0.05599 1.4952-0.16972 3.3268-0.67454 4.9344-0.50482 1.6076-1.4759 3.3093-2.3543 4.7113-0.87839 1.402-1.9068 2.6728-2.916 3.7008-1.0092 1.028-2.0363 1.8316-3.1391 2.4672-1.1028 0.63556-2.2253 1.1032-3.4777 1.3464-1.2524 0.24322-3.0088 0.24365-4.0367 0.11285-1.028-0.1308-1.29-0.28082-2.1312-0.89764-0.84121-0.61676-2.318-1.5695-2.916-2.8032-0.59798-1.2336-0.80271-2.8972-0.67191-4.5984 0.1308-1.7012 0.9895-4.0385 1.4567-5.609 0.46719-1.5704 1.0849-2.6548 1.3465-3.8137 0.2616-1.1588 0.55949-2.5971 0.2231-3.1391s-1.7371-0.50525-2.2415-0.11285c-0.50437 0.39239-0.67236 1.6072-0.78478 2.4672-0.11243 0.85999 0.09187 2.0013 0.11024 2.6929 0.01837 0.69165 0.486 1.3819 0 1.4567-0.48601 0.0748-1.9068-0.37274-2.916-1.0079-1.0092-0.63519-2.5039-1.6256-3.1391-2.8032-0.63517-1.1776-0.7839-2.7668-0.67192-4.2624 0.11198-1.4957 0.85827-3.2345 1.3438-4.7113 0.48556-1.4768 1.1395-2.8972 1.5696-4.1496 0.43001-1.2524 0.84208-2.3744 1.0105-3.3649 0.16842-0.99035 0.57961-1.8486 0-2.5774-0.57962-0.72876-2.4497-1.1968-3.4777-1.7953-1.028-0.59839-1.7747-0.9729-2.6903-1.7953-0.91557-0.82238-2.0556-2.1671-2.8032-3.1391-0.74759-0.97198-1.1964-1.8329-1.6824-2.6929-0.486-0.85998-0.74759-3.3272-1.2336-2.4672-0.486 0.86005-1.1964 4.8981-1.6824 7.6273-0.486 2.7292-0.93438 5.3648-1.2336 8.748-0.29921 3.3832-0.54287 8.056-0.56168 11.551s0.16842 6.2612 0.44882 9.4199c0.2804 3.1588 0.67279 6.2244 1.2336 9.5328 0.5608 3.3084 1.402 7.196 2.1312 10.318 0.72922 3.1216 1.1973 5.0289 2.2441 8.4121 1.0468 3.3832 2.766 8.5039 4.0367 11.887 1.2708 3.3832 2.2983 5.4401 3.5879 8.412 1.2896 2.972 2.86 6.5416 4.1496 9.4199 1.2896 2.8784 2.3543 5.0468 3.5879 7.8504 1.2336 2.8036 2.6732 5.962 3.8136 8.9711 1.1404 3.0092 2.3373 6.3924 3.0289 9.084 0.6916 2.6916 0.91514 4.9344 1.1207 7.0656 0.2056 2.1312 0.35564 3.7778 0.11286 5.7218-0.24278 1.944-0.80315 4.2227-1.5695 5.9423-0.7664 1.7196-1.9261 3.1601-3.0289 4.3753-1.1028 1.2153-2.2235 2.1873-3.5879 2.916-1.3644 0.72882-2.9348 1.2699-4.5984 1.4567-1.6636 0.18677-3.8692 0.0752-5.3832-0.336-1.514-0.41119-2.5792-1.0844-3.7008-2.1312-1.1216-1.0468-2.2813-2.3924-3.0289-4.1496-0.74759-1.7572-1.2323-4.6181-1.4567-6.3937-0.22441-1.7756-0.0018-2.9703 0.11024-4.2599 0.11198-1.2896 0.37445-4.0756 0.56168-3.4777 0.18722 0.59796 0.20647 5.1404 0.56168 7.0656 0.3552 1.9252 0.76596 3.1024 1.5696 4.4856 0.80358 1.3832 1.8876 2.9164 3.252 3.8136 1.3644 0.89722 3.2148 1.5136 4.9344 1.5696 1.7196 0.056 3.888-0.46722 5.3832-1.2336 1.4952-0.76642 2.6719-2.2248 3.5879-3.3649 0.91602-1.14 1.4405-2.2974 1.9081-3.475 0.46764-1.1776 0.76685-2.0202 0.89764-3.5906 0.13079-1.5704 0.20516-3.832-0.11286-5.832s-0.95407-3.7944-1.7953-6.168c-0.8412-2.3735-2.1492-5.5875-3.252-8.0735-1.1028-2.486-1.8136-3.6277-3.3648-6.8425-1.5512-3.2148-4.0359-8.2406-5.9423-12.446-1.9064-4.2056-3.9816-9.049-5.4961-12.787-1.5144-3.7384-2.4129-6.1106-3.5906-9.6431-1.1776-3.5324-2.5967-8.3547-3.4751-11.551-0.87839-3.1964-1.1785-4.6365-1.7953-7.6273-0.6168-2.9908-1.4011-6.598-1.9055-10.318-0.50438-3.7196-0.93395-8.4488-1.1207-12-0.18679-3.5512-0.14917-6.0735 0-9.3071 0.14917-3.2336 0.39064-6.6365 0.89501-10.094 0.50438-3.458 1.2524-7.1208 2.1312-10.654 0.87883-3.5328 1.9829-7.2161 3.1417-10.543 1.1588-3.3272 2.4094-6.2423 3.811-9.4199 1.4016-3.1776 2.8412-5.982 4.5984-9.6457 1.7572-3.6636 4.1689-8.7659 5.9449-12.336 1.776-3.57 3.1601-5.9252 4.7113-9.084 1.5512-3.1588 3.2314-6.6912 4.5958-9.8688 1.3644-3.1776 2.4878-6.2809 3.5906-9.1968 1.1028-2.916 2.0171-4.9908 3.0262-8.2992 1.0092-3.3084 2.2808-7.9252 3.0289-11.551 0.74803-3.626 1.0293-6.6719 1.4593-10.205 0.43001-3.5328 0.97156-7.4593 1.1207-10.992 0.14917-3.5328 0.18548-6.5599-0.22572-10.205-0.41119-3.6448-1.3631-7.7948-2.2415-11.664-0.8784-3.8692-1.9261-7.9064-3.0289-11.551-1.1028-3.6448-2.392-7.0092-3.5879-10.318-1.196-3.3084-1.8307-5.2152-3.5879-9.5328-1.7572-4.3176-4.9366-11.587-6.9554-16.373-2.0188-4.7852-3.1391-7.4785-5.1575-12.339-2.0184-4.86-4.878-11.588-6.9528-16.822-2.0748-5.2336-3.7765-9.9445-5.4961-14.58-1.7196-4.6356-3.3075-8.5796-4.8215-13.234-1.514-4.654-3.0472-9.6811-4.2625-14.69-1.2152-5.0092-2.2437-10.561-3.0289-15.365-0.78521-4.804-1.3832-9.0481-1.6824-13.459-0.29921-4.4112-0.30009-8.7651-0.11286-13.008 0.18723-4.2428 0.56299-8.4112 1.2362-12.449 0.67323-4.0376 1.6632-7.9637 2.8032-11.777 1.14-3.8132 2.6352-7.8504 4.0367-11.102 1.4016-3.252 2.6903-5.5682 4.3727-8.4094 1.6824-2.8412 3.9458-6.189 5.7218-8.6378s3.514-4.3543 4.9344-6.0551c1.4204-1.7008 2.4668-3.0096 3.5879-4.1496 1.1212-1.14 1.5503-3.1951 3.1391-2.6903z"/>
    <path d="m367.15 62.281c-1.0656 0.14961-2.0017 2.6728-2.8058 3.7008-0.80401 1.028-1.9812 1.7944-2.0184 2.4672-0.0372 0.67279 0.18769 0.35433 1.7953 1.5696 1.6076 1.2152 4.6544 3.7402 7.8504 5.7218 3.196 1.9816 8.0731 4.6168 11.325 6.168 3.2524 1.5512 5.4226 2.2047 8.189 3.1391 2.7664 0.93438 5.475 1.7944 8.4094 2.4672 2.9344 0.67279 5.6452 1.0835 9.1969 1.5695 3.5516 0.486 8.2624 1.1969 12.113 1.3465 3.8504 0.1496 7.3259-0.1496 10.99-0.44882 3.6636-0.29921 7.5529-0.87926 10.992-1.3465 3.4392-0.46719 5.8486-0.74672 9.643-1.4567 3.7944-0.70998 8.955-1.8123 13.123-2.8032 4.1684-0.99081 7.906-2.0013 11.887-3.1417 3.9812-1.1404 8.2056-2.5048 12-3.7008 3.7944-1.196 7.1964-2.3163 10.766-3.4751 3.57-1.1588 7.0088-2.2625 10.654-3.4777 3.6448-1.2152 7.8692-2.6737 11.215-3.8136 3.346-1.14 5.4965-1.8675 8.8609-3.0262 3.3644-1.1588 8.1479-2.8981 11.325-3.9265 3.1776-1.0284 4.6746-1.3841 7.7402-2.2441 3.0656-0.86002 7.7752-2.1312 10.654-2.916 2.8784-0.78478 4.1308-1.1758 6.6168-1.7926 2.486-0.6168 5.5888-1.3285 8.2992-1.9081 2.7104-0.57961 5.1036-1.1212 7.9633-1.5696 2.8596-0.44838 6.3534-0.84033 9.1942-1.1207 2.8408-0.2804 5.252-0.43088 7.8504-0.56168 2.5984-0.1308 5.5905-0.20472 7.7401-0.2231 2.1497-0.01838 3.5875-0.24235 5.1575 0.11286 1.57 0.35521 3.0848 1.084 4.2624 2.0184 1.1776 0.93438 2.0179 2.0556 2.8032 3.5879 0.78522 1.5324 1.8893 4.6343 1.9081 5.6063 0.0188 0.972-0.74847-0.18548-1.7953 0.22572-1.0468 0.4112-3.2892 1.3819-4.4856 2.2415-1.1964 0.85958-1.9265 2-2.6929 2.916-0.76642 0.91601-1.4943 1.776-1.9055 2.5801-0.41119 0.80402-0.43091 1.4217-0.5617 2.2441-0.1308 0.8224-0.31672 1.8867-0.22309 2.6903 0.0936 0.80359 0.16797 1.5892 0.78479 2.1312 0.61676 0.54199 1.9068 1.0088 2.916 1.1207 1.0092 0.11198 2.1487-0.09405 3.1391-0.44882 0.99035-0.35477 2.0179-1.1378 2.8032-1.6798s1.7025-1.815 1.9081-1.5722c0.20557 0.24278-0.22577 2.0569-0.67456 3.0289-0.44885 0.972-1.4764 1.9248-2.0184 2.8031-0.54199 0.8784-0.93482 1.6448-1.2336 2.4672-0.29883 0.8224-0.67151 1.4952-0.55909 2.4672 0.11243 0.972 0.5608 2.5048 1.2336 3.3648 0.67279 0.86002 1.4764 1.2157 2.8032 1.7953s3.9799 1.4208 5.1575 1.6824c1.1776 0.2616 0.97333-0.05686 1.9081-0.11286 0.93481-0.05599 2.5608 0.20692 3.7008-0.22309 1.14-0.43001 2.3355-1.4221 3.1391-2.357 0.80358-0.93482 1.3272-2.0372 1.6824-3.252 0.35516-1.2148 0.39282-2.9528 0.44879-4.0367 0.056-1.084 0.0739-1.3644-0.11285-2.4672-0.18677-1.1028-0.72791-3.0468-1.0079-4.1496-0.27997-1.1028-0.91467-2.654-0.67193-2.4672 0.24279 0.18679 1.3062 2.6535 2.1286 3.5879 0.82245 0.93438 1.6842 1.738 2.8058 2.0184 1.1216 0.2804 3.0267 0.05643 3.9239-0.33596 0.89722-0.39239 1.1978-1.084 1.4594-2.0184 0.2616-0.93439 0.3158-2.6347 0.11023-3.5879-0.20562-0.95319-0.67108-1.2524-1.3439-2.1312s-1.8141-2.2817-2.6929-3.1417c-0.87884-0.86002-1.6269-1.3268-2.5801-2.0184-0.95318-0.6916-1.9803-1.5332-3.1391-2.1312-1.1588-0.59799-2.2248-1.2139-3.8137-1.4567-1.5888-0.24278-4.4855 0.3364-5.7192 0-1.2336-0.3364-1.5888-2.3176-1.6824-2.0184-0.0936 0.29921 0.72834 2.5989 1.1207 3.8136 0.3924 1.2148 0.80359 2.2415 1.2336 3.4751 0.42999 1.2336 0.99127 2.7489 1.3464 3.9265 0.35522 1.1776 0.59802 2.0363 0.78479 3.1391 0.18683 1.1028 0.3548 2.4497 0.336 3.4777-0.0189 1.028-0.26209 1.7559-0.44886 2.6903-0.18676 0.93439-0.29834 1.8316-0.67193 2.916-0.37354 1.0844-1.4199 3.5717-1.5695 3.5906-0.1496 0.01881 0.44751-2.3001 0.67193-3.4777 0.22437-1.1776 0.56208-2.2419 0.6745-3.5879 0.11243-1.346 0.0748-3.217 0-4.4882-0.0748-1.2712-0.22436-2.0551-0.44879-3.1391-0.22442-1.084-0.63562-2.2992-0.89764-3.3648-0.26203-1.0656-0.45014-2.0197-0.67456-3.0289-0.22443-1.0092-0.31714-1.7743-0.67188-3.0262-0.35479-1.252-1.0643-3.308-1.4567-4.4856-0.3924-1.1776-0.39283-1.72-0.89765-2.5801-0.50482-0.86002-1.346-1.8325-2.1312-2.5801-0.78522-0.74759-2.7297-1.5503-2.5801-1.9055 0.14966-0.35521 1.7022-0.30053 3.4777-0.22572 1.7756 0.0748 4.2227 0.45013 7.1758 0.67454 2.9532 0.22441 7.3841 0.39151 10.543 0.67192s5.7205 0.61811 8.412 1.0105c2.6916 0.39239 4.9528 0.83946 7.7376 1.3438 2.7848 0.50438 6.2795 1.1216 8.9711 1.6824 2.6916 0.56081 4.6736 1.084 7.1785 1.6824 2.5048 0.59843 5.1216 1.1789 7.8504 1.9081 2.7288 0.72922 5.4007 1.458 8.5223 2.4672 3.1216 1.0092 7.4033 2.6159 10.207 3.5879 2.804 0.972 4.3552 1.4405 6.6168 2.2441 2.2616 0.80359 4.392 1.6619 6.9528 2.5774s5.8889 2.0936 8.4121 2.916c2.5231 0.8224 4.559 1.42 6.727 2.0184 2.168 0.59843 4.4117 1.1794 6.2809 1.5722 1.8692 0.39282 3.1588 0.65398 4.9343 0.78478 1.7756 0.1308 3.906 0.03762 5.7192 0 1.8132-0.03762 3.5153 0.07349 5.1601-0.22572 1.6448-0.29921 3.2507-0.87795 4.7087-1.5696 1.458-0.6916 2.9366-1.7577 4.0394-2.5801 1.1028-0.8224 1.7739-1.2891 2.5774-2.3543 0.80359-1.0652 1.7393-2.4291 2.2441-4.0367 0.50482-1.6076 0.99036-3.8517 0.78479-5.6089-0.20563-1.7572-1.028-3.5512-2.0184-4.9344-0.99042-1.3832-2.5219-2.4864-3.9239-3.3648-1.402-0.87839-2.9554-1.4195-4.4882-1.9055-1.5328-0.486-3.0079-0.78609-4.7086-1.0105-1.7008-0.22441-3.8137-0.29877-5.4961-0.33596-1.6824-0.03719-3.29 0.01924-4.5984 0.11286-1.3084 0.09362-3.5512 0.3552-3.252 0.44882 0.29925 0.09361 3.1033-0.07393 5.0472 0.11286 1.944 0.18679 4.6544 0.5783 6.6168 1.0079 1.9624 0.42957 3.5687 0.87795 5.1575 1.5696 1.5888 0.6916 3.1978 1.6452 4.3753 2.5801 1.1776 0.93482 2.0736 2.0197 2.6903 3.0289 0.61682 1.0092 0.8609 2.0919 1.0105 3.0262 0.1496 0.93438 0.0555 1.6452-0.11285 2.5801-0.1684 0.93482-0.13123 1.9633-0.89765 3.0289-0.76642 1.0656-2.3364 2.4116-3.7008 3.3648-1.3644 0.95319-2.71 1.7935-4.4855 2.3543-1.7756 0.5608-4 0.89851-6.168 1.0105-2.168 0.11198-4.3911 0.07262-6.8399-0.33858-2.4489-0.4112-5.4414-1.4186-7.853-2.1286-2.4116-0.70998-3.9628-1.1776-6.6168-2.1312-2.6539-0.95363-5.1202-1.9829-9.3071-3.5906-4.1868-1.6076-12-4.6347-15.814-6.0551-3.8132-1.4204-4.5424-1.6076-7.0656-2.4672-2.5232-0.85958-5.0643-1.7931-8.0735-2.6903-3.0092-0.8972-5.9628-1.6833-9.9816-2.6929s-10.056-2.5236-14.131-3.3648c-4.0748-0.84121-5.4764-1.0284-10.318-1.6824-4.8412-0.65398-13.216-1.7371-18.73-2.2415-5.514-0.50438-10.485-0.61636-14.354-0.78478-3.8692-0.16842-5.8889-0.20691-8.8609-0.22572-2.972-0.01881-5.364-0.11155-8.9711 0.11286-3.6072 0.22441-7.9804 0.59799-12.672 1.2336-4.6916 0.63561-9.8888 1.4213-15.478 2.5801-5.5888 1.1588-12.728 2.9523-18.055 4.3727-5.3272 1.4204-10.618 3.1588-13.908 4.1496s-2.5796 0.74847-5.832 1.7953c-3.2524 1.0468-8.5612 2.822-13.682 4.4856-5.1212 1.6636-11.923 3.8513-17.045 5.4961-5.1212 1.6448-9.3832 3.0831-13.682 4.3727-4.2992 1.2896-9.9073 2.7668-12.113 3.3648-2.2056 0.59799 0.46805-0.20691-1.1207 0.2231-1.5888 0.43001-5.3841 1.6094-8.4121 2.357-3.028 0.74759-6.3167 1.437-9.7559 2.1286-3.4392 0.6916-7.4584 1.4974-10.879 2.021-3.4208 0.52362-6.58 0.82196-9.6457 1.1207-3.0656 0.29878-4.9912 0.65311-8.748 0.67191-3.7568 0.01881-9.4751-0.18547-13.793-0.55905-4.3176-0.37358-8.5052-0.97201-12.113-1.6824-3.6076-0.71041-6.5984-1.608-9.5328-2.58-2.9344-0.97201-5.5315-2.0744-8.0735-3.252-2.542-1.1776-4.8793-2.4676-7.1785-3.8137-2.2992-1.346-4.916-3.0849-6.6168-4.2625-1.7008-1.1776-2.5223-2.9528-3.5879-2.8032z"/>
    <path d="m280.2 84.955c1.3316-0.36964 2.6816-1.1094 3.6614-1.664 0.97989-0.55468 1.4226-1.0166 2.2179-1.664 0.79526-0.64742 1.9248-1.4991 2.5538-2.2205 0.62902-0.72135 1.2576-1.3863 1.2204-2.1076-0.0372-0.72135-0.64828-1.6098-1.4436-2.2205-0.79526-0.61067-2.4221-0.92564-3.3281-1.4436-0.90595-0.51794-1.4786-1.0171-2.1076-1.664-0.62906-0.64698-1.2966-1.2563-1.6667-2.2178-0.37009-0.96151-0.49823-2.3119-0.55381-3.5512-0.0555-1.2393-0.0385-2.7931 0.22049-3.8845 0.25894-1.0914 0.70429-2.1089 1.3333-2.664 0.62906-0.55511 1.5534-0.87008 2.441-0.66666 0.88758 0.20341 1.8858 1.2397 2.8845 1.8871 0.99869 0.64742 2.2012 1.4611 3.1076 1.9974 0.9064 0.53631 2.682 1.7568 2.3307 1.2205-0.35129-0.5363-3.014-3.0696-4.4383-4.4383-1.4243-1.3688-2.85-2.6277-4.1076-3.7743-1.2577-1.1465-2.5508-1.9213-3.4383-3.105-0.88758-1.1837-1.9055-2.832-1.8872-3.9974 0.0184-1.1654 0.73972-2.2734 1.9974-2.9948 1.2577-0.72134 3.9024-1.0744 5.5486-1.3333 1.6461-0.25897 2.9226-0.31321 4.3281-0.22047 1.4055 0.09274 2.8657 0.33289 4.105 0.7769 1.2393 0.44401 2.4983 0.94401 3.3307 1.8871 0.83246 0.94314 1.1649 2.5328 1.664 3.7717 0.49912 1.2388 1.0718 2.57 1.3307 3.6614 0.25895 1.0914 0.16755 1.9252 0.22309 2.8871 0.0555 0.96194-0.14875 2.1264 0.11023 2.8845 0.25897 0.75809 1.1291 2.0525 1.4436 1.664 0.31451-0.38845 0.4252-2.9221 0.44357-3.9948 0.0184-1.0726-0.11154-1.6273-0.33334-2.4409-0.22177-0.81365-1.5892-2.4781-0.99738-2.4409 0.59189 0.03718 3.3281 1.8132 4.5486 2.664 1.2205 0.85083 2.1085 1.3316 2.7743 2.4409 0.6658 1.1094 0.96152 2.9948 1.2205 4.2152 0.25897 1.2205 0.49957 1.8311 0.33334 3.1076-0.16623 1.2765-0.7944 3.3119-1.3307 4.5512-0.53628 1.2393-1.0918 1.8858-1.8871 2.8845-0.79529 0.99869-1.7192 2.1089-2.8845 3.1076-1.1654 0.99869-2.6649 1.9781-4.1076 2.8845-1.4427 0.90639-3.217 1.7953-4.5486 2.5538-1.3316 0.75853-1.906 1.4055-3.441 1.9974-1.535 0.59186-5.4545 1.776-5.769 1.5538-0.31452-0.22222 2.5503-1.8513 3.8819-2.8871 1.3316-1.0359 2.9423-2.2187 4.1076-3.3281 1.1653-1.1094 2.0709-2.1815 2.8845-3.3281 0.81366-1.1465 1.4427-2.3119 1.9974-3.5512 0.55469-1.2393 1.2012-2.2196 1.3307-3.8845 0.12946-1.6649-0.1658-4.4033-0.55383-6.105-0.388-1.7017-1.164-2.9401-1.7743-4.105-0.61023-1.1649-0.98074-1.9226-1.8872-2.8845-0.90637-0.96194-2.164-1.9068-3.5512-2.8871-1.3872-0.98032-4.7161-3.1614-4.7717-2.9948-0.0555 0.16667 3.2918 2.8666 4.4383 3.9948 1.1466 1.1282 1.7568 1.72 2.441 2.7743 0.68417 1.0542 1.1645 2.2935 1.6641 3.5512 0.49955 1.2577 1.0743 2.626 1.3333 3.9948 0.25897 1.3688 0.36877 2.7012 0.22049 4.2178-0.14832 1.5166-0.51838 3.4208-1.1103 4.8819-0.59186 1.4611-1.5717 2.6452-2.4409 3.8845s-1.5166 2.3119-2.7743 3.5512c-1.2577 1.2393-3.773 2.9414-4.7717 3.8845-0.99869 0.94314-2.7004 1.9038-1.2205 1.7743 1.4799-0.12949 7.1404-1.7192 10.1-2.5512 2.9593-0.83202 5.0486-1.5162 7.6562-2.4409 2.6076-0.92476 5.178-1.8867 7.9895-3.1076 2.8114-1.2209 6.0494-2.8119 8.8792-4.2178 2.8298-1.4059 5.2144-2.664 8.0997-4.2178 2.8854-1.5538 6.1422-3.2926 9.2126-5.105s6.2506-3.9383 9.21-5.769c2.9593-1.8307 5.8456-3.6247 8.5459-5.2152 2.7004-1.5906 4.9746-2.7926 7.6562-4.3281 2.6815-1.5354 5.1037-3.0346 8.4331-4.8845 3.3294-1.85 8.2323-4.5875 11.543-6.2152 3.311-1.6277 5.5669-2.423 8.3228-3.5512 2.7559-1.1282 5.1794-2.2192 8.2126-3.2178 3.0332-0.99869 6.9724-2.0717 9.9869-2.7743 3.0144-0.70254 5.1037-1.0897 8.0997-1.4409 2.9961-0.35127 6.8801-0.64786 9.8766-0.66667 2.9965-0.01881 4.9948 0.16536 8.1024 0.55381 3.1076 0.38845 7.7506 1.2034 10.543 1.7769 2.7927 0.57349 4.0674 0.90595 6.2126 1.664s4.3653 1.8486 6.6588 2.8845c2.2935 1.0359 5.1046 2.2765 7.1024 3.3307 1.9978 1.0542 3.4046 2.07 4.8845 2.9948 1.4799 0.92476 2.241 1.4226 3.9948 2.5538 1.7537 1.1312 4.937 3.0131 6.5276 4.2336 1.5906 1.2205 2.0472 1.86 3.0158 3.0892 0.9685 1.2292 2.1111 2.8246 2.7952 4.2861 0.68418 1.4615 0.99869 3.0888 1.3097 4.4829 0.31103 1.3941 0.42694 4.1409 0.55642 3.8819 0.12949-0.25897 0.30228-3.8123 0.22049-5.4357-0.0818-1.6234-0.30142-3.035-0.7113-4.3045-0.40988-1.2695-0.99826-2.2708-1.748-3.3123-0.74978-1.0416-1.7367-2.0792-2.7507-2.937s-2.3521-1.6382-3.3333-2.21c-0.98117-0.57174-1.3491-0.70342-2.5538-1.2205-1.2047-0.51706-3.4576-1.36-4.6745-1.8819-1.217-0.52187-2.5556-0.63823-2.6273-1.2493-0.0717-0.61111 1.3128-1.6815 2.1968-2.4173 0.88409-0.73578 1.8683-1.4982 3.1076-1.9974 1.2393-0.49912 2.682-0.88626 4.3281-0.99738 1.6461-0.11111 3.8285 0.10892 5.5486 0.33071 1.72 0.22178 3.4401 0.53762 4.7717 1 1.3316 0.46238 2.2191 0.979 3.2178 1.7743s2.2564 2.1465 2.7743 2.9974c0.51792 0.85083 0.61066 1.3491 0.33332 2.1076-0.27735 0.75853-1.3263 1.8994-1.9974 2.4436-0.67102 0.54418-1.2428 0.78871-2.0289 0.82152-0.78607 0.03281-1.6387-0.17323-2.6876-0.62467-1.049-0.45144-3.9484-2.4396-3.6063-2.084 0.34207 0.35564 4.2161 2.9418 5.6588 4.2178s2.0171 2.0884 2.9974 3.4383c0.98032 1.35 2.2371 3.2555 2.8845 4.6614 0.6474 1.4059 0.94442 2.5166 1 3.7743 0.0555 1.2577-0.0193 2.6067-0.66669 3.7717-0.6474 1.1649-1.923 2.3486-3.2178 3.2178-1.2948 0.8692-3.1269 1.6273-4.5512 1.9974-1.4243 0.37008-2.9405 0.42651-3.9948 0.2231-1.0543-0.20342-1.5543-0.48163-2.3307-1.4436-0.77646-0.96194-1.7734-2.8303-2.3281-4.3281-0.55469-1.4978-0.62994-3.3828-1-4.6588-0.37008-1.276-0.68417-2.0722-1.2205-2.9974-0.53631-0.9252-1.9602-2.8683-1.9974-2.5538-0.0372 0.31452 1.6264 3.1828 1.7743 4.4409 0.14786 1.2581-0.22135 2.2384-0.88715 3.1076-0.6658 0.8692-1.8871 1.7008-3.1076 2.1076-1.2205 0.40683-2.976 0.6846-4.2152 0.33334-1.2393-0.35127-2.388-1.0906-3.2205-2.4409-0.83246-1.3504-1.4786-3.9965-1.7743-5.6614-0.29572-1.6649-0.14786-2.9593 0-4.3281 0.14785-1.3688 0.42477-2.8491 0.88714-3.8845 0.46237-1.0354 1.5542-1.5144 1.8872-2.3281 0.33288-0.81365 0.7944-1.7213 0.11023-2.5538-0.68418-0.83246-2.6247-1.7012-4.2152-2.4409-1.5906-0.73972-3.5893-1.3871-5.3281-1.9974-1.7389-0.61023-2.9781-1.1089-5.105-1.664-2.1269-0.55512-5.0298-1.1855-7.6562-1.6667-2.6264-0.48119-5.3464-0.9615-8.1024-1.2205-2.7559-0.25897-5.4554-0.42607-8.4331-0.33333-2.9777 0.09274-6.0481 0.31627-9.4331 0.88976-3.385 0.57349-7.2515 1.5157-10.877 2.5512-3.6251 1.0354-7.3784 2.2743-10.874 3.6614-3.4956 1.3871-6.8259 3.0892-10.1 4.6614-3.2738 1.5722-6.1772 2.9589-9.5433 4.7717-3.3662 1.8128-6.899 3.8482-10.654 6.105-3.7546 2.2568-8.0455 5.0315-11.874 7.4357-3.8285 2.4042-7.0652 4.5481-11.097 6.9895-4.0319 2.4414-8.8775 5.2913-13.094 7.6588-4.217 2.3675-8.5267 4.6964-12.207 6.5459-3.6807 1.8495-6.9357 3.2747-9.8766 4.5512-2.941 1.2765-5.0687 2.22-7.769 3.1076-2.7004 0.88758-5.5665 1.5704-8.4331 2.2178-2.8666 0.64742-5.7883 1.2966-8.7664 1.6667s-5.9208 0.57262-9.1024 0.55381c-3.1816-0.01881-6.6947-0.25984-9.9869-0.66667-3.2922-0.40682-6.9182-1.1085-9.7664-1.7743-2.8482-0.66579-4.7708-1.2402-7.3228-2.2205s-5.5109-2.4038-7.9895-3.6614c-2.4786-1.2577-4.4956-2.4046-6.8819-3.8845-2.3863-1.4799-5.2161-3.4226-7.4357-4.9948-2.2196-1.5722-3.7178-2.7555-5.8819-4.4383-2.164-1.6828-6.2332-4.3828-7.1024-5.6588-0.8692-1.276 0.85127-1.3316 1.8872-1.9974 1.0359-0.66579 2.9777-1.9786 4.3281-1.9974 1.3504-0.01881 2.0726 0.84908 3.7743 1.8845 1.7017 1.0354 4.6046 3.07 6.4357 4.3281s2.9051 2.1474 4.5512 3.2205c1.6461 1.0731 3.3836 2.1452 5.3255 3.2178 1.9418 1.0726 4.3648 2.3303 6.3254 3.2178 1.9606 0.88758 3.3298 1.3863 5.4383 2.1076s4.8268 1.5914 7.2126 2.2205c2.3858 0.62904 4.6422 1.1842 7.1024 1.5538 2.4602 0.36964 5.661 0.64567 7.6588 0.66405 1.9978 0.01837 2.9965-0.18417 4.3281-0.55381z"/>
  </g>
</svg>
