<svg xmlns="http://www.w3.org/2000/svg" viewBox="0 0 22600 22600">
  <path fill="#00000033" d="m2253.9 22591c96.196-0.358-274.33-339.07-296.33-603.53-27.999-258 50.011-624.99 175.01-931.99s297-554 508-769c211-214 461.99-396.01 537.99-358.01 76 37-20.958 294.02-82.958 625.02s-88.006 736.98 14.993 1075c102 338 333.01 607.01 592.01 747.01 138.32 74.713 313.72 95.607 454.53 97.124 415.31-17.357 789.54-341.44 979.45-662.45 135-234 174.02-434.65 160.02-629.65-15-195-83.012-341.02-189.01-463.02-105-122-248.02-219.01-372.02-288.01-123-68-227.01-107.01-231.01-76.013-4 31 92.019 132.01 188.02 253.01 97 122 194.01 265 210.01 452 15 187-51.014 417-224.01 585-173 167-452.99 270.98-685.99 241.98-233-30-419.99-191.97-522.99-462.97-103-270-122.03-648-39.026-1072 82-424 267.02-893.03 512.02-1358 118-225 251.01-448.95 387.01-676.95-21 135-31.025 283.96-11.024 427.96 39 275 192.01 535 443.01 656 176 85 401.01 101 606.01 42.003 40 20 79.984 42.004 114.98 63.004 106 65 154.98 125.02 171.98 230.02 18 106 5.043 256.96-75.957 336.96-81 81-230.01 90.018-323.01 26.018-93.001-65-128.02-205.01-160.02-238.01-32-34-58.988 39-57.988 134 2.001 94 32.992 208.99 120.99 289.99 87 81 231.98 129.03 382.98 123.03s308-63.981 388-199.98c80-135 81.031-348.02-10.969-506.02-89-151-264.03-251-420.03-310 40-19 79.031-42.012 116.03-69.012 250-181 399-524.97 395-821.97-4-296-161.02-545.04-385.02-616.04-224-71.001-515 34.036-635 200.04-119 165-67.006 390.98 21.993 516.98 88 126 213.01 151.98 239.01 114.98 26-36-47.009-135-20.009-247s153.03-237.01 271.03-239.01c118-2.001 226.98 120 249.98 275 24 155-37.981 344.03-199.98 483.03-163 138-425.99 228.01-628.99 196.01s-346.04-184.03-418.04-349.03-73.979-341.99-44.979-550.99c46-329 147-427.01 304-711.01 493-897 740.02-1639 781.02-2365 40.001-705-114-1397-424-2203-161-418-343.03-794.99-525.03-1194-43-93-85.984-188.05-128.98-283.05 29-8 60.975-16.002 94.974-21.001 131-18.001 296-0.974 494 46.026 198 46 429 121.02 621 251.02 193 131 347.05 317.95 325.05 337.95-22 21-220.02-125.97-407.02-229.97-188-103-365-164.99-501-205.99-135-40-229.03-60.014-229.03 15.986 1 75 97.038 245.99 221.04 402.99 123 158 274 301.99 508 381.99 234 79 549.97 94.003 751.97 190 201 95.999 287.02 272.98 294.02 213.98 0.375-3.625 0.446-8.152 0.225-13.56-3.475-81.112-74.035-355.85-176.22-617.42-110-278-255.98-540.99-488.98-734.99-233-193-553-315.98-839-333.98-286-18.001-538.03 69.978-681.03 157.98-17 10-31.972 20.979-45.971 30.979-124-277-251.02-566.99-386.02-882.99-203-477-421.99-1011-600.99-1597-105-342-195.99-701.02-268.99-1049 129 273 301 593.01 551 824.01 338 312 817.02 462 1254 296 436-166 830.99-646.98 917.99-1216 88-569-131.03-1226-476.03-1618-346-392-817.99-520-1165-324-347 196-570.02 716.99-520.02 1095 49 377 370.01 612.03 619.02 666.03 249 53 427-75.033 416-158.03-11-83-212.01-119.99-309.01-304.99-97-186-90.981-518.97 47.019-673.97 137-156 406.01-134 612.01 42.995s350 511.02 317 908.02c-32 398-241.04 860.97-517.04 1083-277 222-622 204-896 77.005-275-127-480.96-361.98-660.96-672.98-110-191-287-525-317-741-75.999-544-89.027-996-60.027-1397s114.86-832.54 285.26-1137.3c383.6-791.84 1192-1562.2 2458.5-1653.1 401-29 853-15.973 1397 60.028 216 30 550 207 741 317 311 180 545.98 385.96 672.98 660.96 127 274 145 619-77.005 896-222 276-684.97 485.04-1083 517.04-397 33-731.02-111-908.02-317s-198.99-475.01-42.994-612.01c155-138 487.97-144.02 673.97-47.019 185 97 221.99 298.01 304.99 309.01 83 10.999 211.03-167 158.03-416-54-249-289.03-570.02-666.03-619.01-378-50.001-898.99 173.02-1095 520.02-196 347-67.996 818.99 324 1165 392 345 1049 564.03 1618 476.03 569-87 1050-481.99 1216-917.99 166-437 15.997-916.02-296-1254-231-250-551.01-422-824.01-550.99 348 72.999 707.02 163.99 1049 268.99 586 179 1120 397.99 1597 600.99 316 135 605.99 262.02 882.99 386.02-10 14-20.978 28.972-30.978 45.972-88 143-175.98 395.03-157.98 681.03 17.995 286 140.98 606 333.98 839 194 233 456.99 378.98 734.99 488.98 261.56 102.19 536.3 172.75 617.42 176.22 5.408 0.226 9.935 0.154 13.56-0.221 59-7-117.98-93.018-213.98-294.02-96-202-111-517.97-190-751.97-80-234-223.99-385-381.99-508-157-124-327.99-220.04-402.99-221.04-76 0-55.986 94.03-15.986 229.03 40.999 136 102.99 313 205.99 501 104 187 250.97 385.02 229.97 407.02-20 22-206.95-132.05-337.95-325.05-130-192-205.02-423-251.02-621-47-198-64.026-363-46.027-494 5-34 13.002-65.975 21.002-94.975 95 43 190.05 85.985 283.05 128.98 399 182 775.99 364.03 1194 525.03 806 310 1498 464 2203 424 726-40.999 1468-288.02 2365-781.02 284-157 382.01-258 711.01-304 209-29 385.99-27.021 550.99 44.979s317.03 215.04 349.03 418.04-58.012 465.99-196.01 628.99c-139 162-328.03 223.98-483.03 199.98-155-23-277-131.98-275-249.98 2.001-118 127.01-244.03 239.01-271.03s211 46.009 247 20.009c37.001-26 11.016-151.01-114.98-239.01-126-89-351.99-140.99-516.98-21.994-166 120-271.04 411-200.04 635s320.04 381.02 616.04 385.02c297 4 640.97-145 821.97-395 27-37 50.012-76.03 69.012-116.03 59 156 159 331.03 310 420.03 158 92 371.02 90.969 506.02 10.969 136-80 193.98-237 199.98-388s-42.031-295.98-123.03-382.98c-81-88-195.99-118.99-289.99-120.99-95-1-168 25.988-134 57.988 33 31.999 173.01 67.018 238.01 160.02 64 93 54.983 242.01-26.017 323.01-80 81-230.96 93.957-336.96 75.957-105-17-165.02-65.979-230.02-171.98-21.001-35-43.004-74.983-63.004-114.98 59-205 42.997-430.01-42.003-606.01-121-251-381-404.01-656-443.01-144-20.001-292.96-9.976-427.96 11.024 228-136 451.95-269.01 676.95-387.01 465-245 934.03-430.02 1358-512.02 424-83 802-63.974 1072 39.026 271 103 432.97 289.99 462.97 522.99 29 233-74.983 512.99-241.98 685.99-168 173-398.01 239.01-585 224.01-187-16-330-113.01-452-210.01-121-96-222.01-192.02-253.01-188.02-31 3.999 8.013 108.01 76.013 231.01 69 124 166.01 267.02 288.01 372.02 122 106 268.02 174.01 463.02 189.01 195 14 395.65-25.018 629.65-160.02 321.01-189.92 645.09-564.14 662.45-979.45-1.517-140.82-22.411-316.21-97.124-454.53-140-259-409.01-490-747.01-592-338-103-743.98-76.993-1075-14.993-331 62-588.02 158.96-625.02 82.958-38-76 144.01-326.99 358.01-537.99 215-211 462-383 769-508s673.99-203.01 931.99-175.01c263.93 21 602.64 392 603 295-5.639-115.74-245.91-419.5-356.53-535.23-181-163-476.02-302-809.02-317-333-13.999-703 95.975-1002 355.98s-525.98 668.98-693.98 968.98c-167 301-274 492-402 635-129 143-278 237.01-317 225.01-39-13 31.997-133.96 77.997-293.96 45-161 64.977-363.04 23.978-567.04-40-205-140.99-413-325.99-515s-455-98.983-642 26.017c-186 125-289.99 371.98-296.99 559.98-5.999 189 85.008 319.03 133.01 314.03 49-5 56-144.99 134-240.99 76.999-95.999 227.02-147.03 357.02-81.028 130 66.999 239.96 252.01 223.96 478.01-16 225-158.97 492.01-483.97 747.01s-831.99 497.99-1335 692.99c-503 195-1004 341-1499 388s-986-4.982-1333-86.982c-348-83.001-551.97-197.02-553.97-238.02-2.001-40 199.98-7.984 509.98 5.016s729.01 6.957 1163-58.043c433-65 882.01-188.98 1262-425.98 380-237 690.96-587.97 858.96-913.97 167-326 190.02-628.02 139.02-901.02-50-273-173-516.99-423.99-657.99-250-141-625.99-180.01-910.99-104.01-284 76.001-474.98 268.01-552.98 471.01s-43.003 416.97 77.997 595.97c120 179 323.99 322 396.99 331 73 10 15.007-113.01-7.992-232.01-22-119-9.013-232.01 50.987-338.01 59.999-105 167.01-202.99 323.01-233.99 156-29.999 359.96 5.002 484.96 169s171.03 457.02 52.034 752.02c-118 296-400.99 594.97-804.99 814.97-405 221-931.02 363.99-1522 417.99-591 53-1247 18.022-1975-150.98-727-169-1526-471.02-2398-781.02-78-28.001-156.98-56.006-235.98-84.006 217-32 502.97-110.99 857.97-275.99 425-198 1064-698.98 1405-792.98 127-35 294.04-38.032 496.04-17.033 203 20.001 441.01 65.042 648.01 171.04 208 105 384.96 269.97 364.96 292.97-19 23-233.98-97.003-432.98-176-199-78.999-383-118-522-141-140-23-236-30.013-226 43.987 11 75 126.99 232.01 269.99 373.01 142 140 310.04 265.03 553.03 314.03 242 49 558 22.99 769 92.99 212 69 319.99 234.01 318.99 175.01s-110.99-341.03-254.99-603.03c-144-263-322.01-504.97-578-666.97-255-162-588.01-244-874.01-226-91 6-176.98 21.979-255.98 44.979 101-96 191.96-188.01 286.96-281.01 214-209 452-424 712-586 261-162 545.04-272.99 602.04-282.99 57-9-114.02 82.036-301.02 200.04-188 119-393.03 264.96-561.03 406.96-169 142-301.97 280.02-257.97 336.02 45 56 267.01 29.975 486.01-32.025 218-63 433-161.96 600-314.96 167-152 286.98-359.01 375.98-577.01 88-218 144.99-449 162.99-628 18-180-2.971-308.02-31.97-294.02-30 13-67.027 169.01-300.03 295.01s-661.99 222-974.99 423c-314 202-512.02 508.98-639.02 736.98-128 228-185.01 377.04-394.01 573.04-210 196-571.96 437.95-949.96 619.95-379 181-772.99 303.04-1130 383.04-356 79-674.03 117.01-949.03 133.01-17.001 1.002-34.972 1.978-52.972 2.977 235-106 433.99-311.98 522.99-602.98 127-418-72.998-704.01 42.002-987.01 60-150 121.98-221 235.98-254 114-33 281.02-28.042 378.02 75.958 96.001 104 121.97 306 59.972 437-62.001 131-211.96 191.02-244.96 237.02-34 46 49.962 77.02 152.96 68.02 103-10 227.03-62.02 307.03-188.02 80-125 117.97-325.98 95.967-530.98-21-204-101.96-414.03-258.96-511.03-157-97-391.03-82.004-554.03 56.996-157 133-249.99 379.03-297.99 596.03-26-54-55.029-105.02-88.029-152.02-224-326-617.96-500.96-942.96-470.96-325 29.999-582.03 263.97-638.03 574.97-56 310 88.994 697 282.99 846 194 148 437.04 59.003 566.04-70.997 130-131 145.97-303.03 102.97-335.03-43-33-143.99 75.019-269.99 47.018-126-26.999-275.99-188.97-289.99-348.97s108.99-318.04 276.99-362.04c168-45 381.99 23.999 550.99 233 169 210 293.03 560.01 279.03 838.01-14 279-168.04 486.02-341.04 597.02-341 219-1186-139-1608-212-875-151-1681-134.99-2287-0.993-1298.1 333.01-2172.3 1329.5-2437.7 2484.3-134 606-150.01 1412 0.993 2287 72.999 422 431 1267 212 1608-111 173-318.02 327.04-597.02 341.04-278 14-628.01-110.03-838.01-279.03-209-169-278-382.99-233-550.99 44-168 202.04-290.99 362.04-276.99s321.97 163.99 348.97 289.99c28 126-80.018 226.99-47.018 269.99 32 43 204.03 27.033 335.03-102.97 130-129 219-372.04 70.997-566.04-149-194-536-338.99-846-282.99-311 56-544.97 313.03-574.97 638.03-29.999 325 144.96 718.96 470.96 942.96 47 33 98.026 62.03 152.02 88.029-217 48-463.03 140.99-596.03 297.99-139 163-154 397.03-56.995 554.03 97 157 307.03 237.96 511.03 258.96 205 22 405.99-15.967 530.99-95.967 126-80 178.02-204.03 188.02-307.03 9.001-103-22.019-186.96-68.019-152.96-46 33-106.02 182.96-237.02 244.96-131 62.001-333 36.028-437-59.972-104-97-108.96-264.02-75.958-378.02 33-114 104-175.98 254-235.98 283-115 569.01 84.998 987.01-42.002 291-89.001 496.97-287.99 602.98-522.99-1 18-1.976 35.971-2.977 52.971-16 275-54.008 593.03-133.01 949.03-80 357-202.04 750.99-383.04 1130-182 378-423.95 739.96-619.95 949.96-196 209-345.04 266.01-573.04 394.01-228 127-534.98 325.02-736.98 639.02-201 313-297 741.99-423 974.99s-282.01 270.03-295.01 300.03c-14 29 114.02 49.971 294.02 31.97 179-18 410-74.994 628-162.99 218-88.999 425.01-208.98 577.01-375.98 153-167 251.96-382 314.96-600 62-219 88.025-441.01 32.025-486.01-56-44-194.02 88.969-336.02 257.97-142 168-287.96 373.03-406.96 561.03-118 187-209.04 358.02-200.04 301.02 10-56.999 120.99-341.04 282.99-602.04 162-260 377-498.01 586-712 93.001-95.001 185.01-185.96 281.01-286.96-23 79-38.979 164.98-44.979 255.98-18 286 63.999 619.01 226 874.01 162 256 403.97 434.01 666.97 578 262 144 544.03 253.99 603.03 254.99 59 0.999-106.01-106.99-175.01-318.99-70-211-43.99-527-92.99-769-49-243-174.03-411.03-314.03-553.03-141-143-298.01-258.98-373.01-269.98-74.001-10-66.987 85.998-43.987 226 23 139 62.001 323 141 522 79 199 199 413.98 176 432.98-22.999 20-187.97-156.96-292.97-364.96-106-207-151.04-445.01-171.04-648.01-20.999-202-17.968-369.04 17.032-496.04 94.001-341 594.98-979.99 792.98-1405 165-355 243.99-640.97 275.99-857.97 28 79 56.005 157.98 84.005 235.98 310 872 612.02 1671 781.02 2398 169 728 203.98 1384 150.98 1975-54 591-196.99 1117-417.99 1522-220 404-518.97 686.99-814.97 804.99-295 119-588.02 72.965-752.02-52.035s-199-328.96-169-484.96c31-156 128.99-263.01 233.99-323.01 106-60 219-72.988 338.01-50.987 119 23 242 80.993 232.01 7.993-9.001-73-152-276.99-331-396.99-179-121-392.97-156-595.97-77.997-203 78-395.01 268.98-471.01 552.98-76 285-36.986 660.99 104.01 910.99 141 251 384.99 373.99 657.99 423.99 273 51 575.02 27.984 901.02-139.02 326-168 676.97-478.96 913.97-858.96s360.98-829.01 425.98-1262c65-434 71.043-853.01 58.043-1163-13-310-45.016-511.98-5.016-509.98 41 2.001 155.02 205.97 238.02 553.97 82 347 133.98 838 86.982 1333-46.999 495-193 996.03-388 1499-195 503-437.99 1010-692.99 1335s-522.01 467.97-747.01 483.97c-226 16-411.01-93.958-478.01-223.96-66-130-14.972-280.02 81.028-357.02 96-78 235.99-85 240.99-134 5-48-125.03-139.01-314.03-133.01-188 7-434.98 110.99-559.98 296.99-125 187-128.02 457-26.017 642s310 285.99 515 325.99c204 41 406.04 21.022 567.04-23.978 160-46 280.96-117 293.96-77.997 12 39-82.006 188-225.01 317-143 128-334 235-635 402-300 168-708.98 394.98-968.98 693.98s-369.98 669-355.98 1002c15 333 154 628.02 317 809.02 116 111.13 420 351.4 536 357.03z"/>
</svg>
